<svg width="212" height="64" viewBox="0 0 212 64" fill="none" xmlns="http://www.w3.org/2000/svg">
<path fill-rule="evenodd" clip-rule="evenodd" d="M140.667 34.0871C140.667 36.8184 140.659 39.5503 140.67 42.2823C140.678 44.2716 139.95 45.398 137.714 45.2193C135.083 45.0096 132.413 45.5018 129.804 44.743C126.138 43.6768 123.88 40.9863 123.78 37.1805C123.674 33.2101 123.738 29.2347 123.739 25.2614C123.74 24.1487 123.799 22.9436 125.253 22.8532C126.884 22.752 127.069 24.0556 127.085 25.243C127.132 28.8847 127.071 32.5277 127.119 36.17C127.165 39.6323 129.055 41.6805 132.118 41.7044C135.292 41.7298 137.217 39.6173 137.241 36.0258C137.265 32.4662 137.247 28.9069 137.246 25.3467C137.245 24.1143 137.4 22.8288 138.957 22.8513C140.491 22.8744 140.656 24.1786 140.662 25.395C140.677 28.2919 140.667 31.1893 140.667 34.0871" fill="#707070"/>
<path fill-rule="evenodd" clip-rule="evenodd" d="M167.685 45.2508C163.895 45.2867 160.747 43.4815 159.562 40.6481C159.108 39.5632 158.857 38.4528 160.074 37.8401C161.279 37.2334 162.024 38.0701 162.656 39.0762C164.363 41.7917 167.817 42.6969 170.612 41.2078C171.684 40.6363 172.553 39.833 172.517 38.5307C172.479 37.1368 171.592 36.2264 170.337 35.8055C169.41 35.4942 168.407 35.3535 167.427 35.2718C165.566 35.1168 163.856 34.6096 162.371 33.4503C159.403 31.1334 159.222 27.2074 161.96 24.618C165.148 21.6038 170.944 21.9034 173.792 25.242C174.109 25.6133 174.39 26.0321 174.604 26.4698C175.145 27.5797 175.482 28.7912 174.102 29.4742C172.829 30.1031 172.109 29.1601 171.626 28.1252C170.484 25.6787 168.377 25.494 166.155 25.9212C164.716 26.199 163.526 27.0228 163.531 28.7557C163.536 30.3572 164.615 31.0643 165.961 31.4957C166.35 31.6204 166.762 31.6903 167.169 31.7456C167.578 31.8016 167.996 31.7911 168.407 31.8385C172.739 32.3317 176.099 35.3535 176.012 38.6691C175.919 42.1967 172.107 45.2095 167.685 45.2508Z" fill="#707070"/>
<path fill-rule="evenodd" clip-rule="evenodd" d="M155.21 31.9003C155.211 35.4599 155.197 39.0194 155.219 42.5794C155.226 43.8733 154.851 45.085 153.457 45.1063C152.116 45.1279 151.846 43.7898 151.84 42.7126C151.8 35.4286 151.807 28.1432 151.839 20.8581C151.844 19.8105 152.226 18.7871 153.489 18.7585C154.923 18.7259 155.21 19.7844 155.21 20.9722C155.209 24.6152 155.209 28.2576 155.211 31.9003" fill="#707070"/>
<path fill-rule="evenodd" clip-rule="evenodd" d="M49.1495 31.7876C49.1495 28.2273 49.1505 24.6673 49.1484 21.1074C49.1481 19.9564 49.3068 18.8225 50.749 18.7693C52.1741 18.7175 52.534 19.8317 52.5382 20.9718C52.5657 28.2572 52.566 35.5433 52.5311 42.8283C52.5253 43.9758 52.0289 45.1396 50.7393 45.1003C49.4311 45.0603 49.1512 43.869 49.1505 42.7156C49.1478 39.0726 49.1495 35.4303 49.1495 31.7876" fill="#707070"/>
<path fill-rule="evenodd" clip-rule="evenodd" d="M144.598 31.5527C144.597 28.1656 144.586 24.7773 144.604 21.3891C144.61 20.2346 144.502 18.8643 146.152 18.7865C147.803 18.7086 147.89 20.0389 147.893 21.2205C147.913 28.3268 147.905 35.4339 147.898 42.5399C147.897 43.7806 147.591 45.108 146.164 45.082C144.691 45.0556 144.601 43.653 144.6 42.461C144.595 38.8245 144.597 35.1892 144.597 31.5527" fill="#707070"/>
<path fill-rule="evenodd" clip-rule="evenodd" d="M69.9557 39.8173C68.0624 40.5254 66.3582 41.411 64.357 41.166C58.9679 40.5055 56.2831 37.0506 56.5493 31.0462C56.776 25.9393 59.9025 22.9056 65.1329 22.768C67.0372 22.7183 68.9459 22.8094 70.8482 22.7398C72.5002 22.6793 73.4025 23.4083 73.4084 25.0275C73.4289 30.3214 73.5608 35.6229 73.3171 40.9064C73.1386 44.783 70.685 47.5058 67.2103 48.4952C64.1157 49.376 60.0431 47.9827 58.0965 45.3562C57.5038 44.556 56.7453 43.625 57.4505 42.6681C58.9536 40.629 59.8785 42.2012 60.8499 43.3578C62.4734 45.2908 64.5171 45.7986 66.8642 44.9331C69.1924 44.0738 70.0809 42.3079 69.9557 39.8173V39.8173ZM64.8603 26.1218C61.708 26.1489 59.8736 28.2342 59.8193 31.8512C59.7667 35.3444 61.9353 37.8358 64.9857 37.7865C68.0015 37.7371 69.9985 35.4338 70.0204 31.9774C70.0444 28.2778 68.1195 26.0933 64.8603 26.1218Z" fill="#707070"/>
<path fill-rule="evenodd" clip-rule="evenodd" d="M103.892 24.6029C109 21.6609 112.371 21.6238 115.567 24.3153C119.353 27.5047 120.71 33.0965 118.916 38.1251C117.289 42.688 113.812 45.1599 108.948 45.1953C107.043 45.2097 105.136 45.1436 103.233 45.2139C101.48 45.2778 100.507 44.4866 100.497 42.7792C100.455 35.5 100.468 28.2205 100.484 20.9411C100.487 19.77 100.87 18.7156 102.281 18.7675C103.535 18.8137 103.868 19.7933 103.888 20.8767C103.909 22.0323 103.893 23.1881 103.893 24.6029L103.892 24.6029ZM110.201 41.6838C113.545 41.6167 116.347 37.9337 116.348 33.6023C116.348 33.4372 116.344 33.2714 116.337 33.1067C116.161 28.9689 113.392 25.7284 110.066 25.768C106.873 25.8063 104.148 29.0148 103.927 32.9996C103.918 33.1643 103.926 33.3297 103.926 33.4953C103.867 37.9292 106.805 41.7533 110.201 41.6838" fill="#707070"/>
<path fill-rule="evenodd" clip-rule="evenodd" d="M45.1933 37.9458C45.1644 46.4694 46.0837 45.1141 36.8792 45.1833C31.606 45.2233 27.7241 42.1523 26.3972 37.0706C25.0529 31.9248 27.2329 25.8258 31.2482 23.5006C36.1788 20.6453 42.0033 23.0842 44.2433 28.8876C45.3813 31.8358 45.2006 34.8931 45.1933 37.9458ZM35.7128 25.774C32.3373 25.6898 29.4847 29.0471 29.3263 33.2902C29.1648 37.6219 32.0223 41.5409 35.4419 41.6789C38.8232 41.8152 41.7935 38.0043 41.774 33.5543C41.7548 29.2582 39.1069 25.8588 35.7128 25.774Z" fill="#707070"/>
<path fill-rule="evenodd" clip-rule="evenodd" d="M77.4374 34.2218C77.3782 31.3971 78.0163 28.9547 79.4292 26.7233C82.9882 21.103 90.6934 21.0175 94.3853 26.56C97.3952 31.078 97.1651 37.6802 93.8488 41.9451C89.6174 47.3875 81.4095 45.9894 78.5295 39.3252C77.8009 37.6406 77.3655 35.8799 77.4374 34.2218ZM87.2021 25.7782C83.7782 25.6339 80.9988 28.8028 80.7171 33.1713C80.4446 37.4004 83.2732 41.4182 86.6997 41.6685C89.9843 41.9091 93.0054 38.2688 93.1346 33.9163C93.2651 29.5022 90.6565 25.9238 87.2021 25.7782Z" fill="#707070"/>
<path d="M180.915 24.3648H179.372L179.358 23.459H180.795C180.993 23.4543 181.177 23.4189 181.347 23.3529C181.521 23.2868 181.66 23.1925 181.764 23.0698C181.873 22.9424 181.927 22.7867 181.927 22.6027C181.927 22.3669 181.887 22.1805 181.807 22.0437C181.726 21.9069 181.592 21.8078 181.403 21.7465C181.219 21.6851 180.967 21.6545 180.646 21.6545H179.684V26.7567H178.686V20.7557H180.646C181.113 20.7557 181.516 20.8218 181.856 20.9539C182.196 21.086 182.458 21.2865 182.642 21.5554C182.826 21.8196 182.918 22.1546 182.918 22.5603C182.918 22.815 182.859 23.0439 182.741 23.2467C182.623 23.4496 182.45 23.6241 182.224 23.7704C181.998 23.9166 181.722 24.0346 181.396 24.1242C181.382 24.1242 181.365 24.1407 181.347 24.1737C181.332 24.2021 181.318 24.2162 181.304 24.2162C181.224 24.2634 181.172 24.2988 181.148 24.3224C181.13 24.3412 181.108 24.353 181.085 24.3577C181.066 24.3625 181.009 24.3648 180.915 24.3648ZM180.844 24.3648L180.986 23.7279C181.717 23.7279 182.215 23.8836 182.479 24.195C182.748 24.5016 182.882 24.8908 182.882 25.3626V25.7448C182.882 25.9193 182.892 26.0868 182.91 26.2472C182.929 26.4029 182.96 26.535 183.002 26.6435V26.7567H181.976C181.929 26.6341 181.901 26.4595 181.891 26.233C181.887 26.0066 181.884 25.8415 181.884 25.7377V25.3697C181.884 25.0253 181.804 24.7729 181.644 24.6125C181.488 24.4474 181.222 24.3648 180.844 24.3648ZM176.52 23.8411C176.52 24.4686 176.629 25.0536 176.846 25.5961C177.063 26.1387 177.365 26.6128 177.752 27.0185C178.138 27.4243 178.587 27.7404 179.096 27.9668C179.606 28.1933 180.151 28.3065 180.731 28.3065C181.311 28.3065 181.854 28.1933 182.358 27.9668C182.868 27.7404 183.314 27.4243 183.696 27.0185C184.083 26.6128 184.385 26.1387 184.602 25.5961C184.819 25.0536 184.927 24.4686 184.927 23.8411C184.927 23.209 184.819 22.624 184.602 22.0861C184.385 21.5483 184.083 21.0789 183.696 20.6779C183.314 20.2722 182.868 19.9584 182.358 19.7367C181.854 19.5103 181.311 19.397 180.731 19.397C180.151 19.397 179.606 19.5103 179.096 19.7367C178.587 19.9584 178.138 20.2722 177.752 20.6779C177.365 21.0789 177.063 21.5483 176.846 22.0861C176.629 22.624 176.52 23.209 176.52 23.8411ZM175.706 23.8411C175.706 23.091 175.836 22.3952 176.096 21.7535C176.355 21.1119 176.716 20.5529 177.178 20.0764C177.641 19.5952 178.174 19.2225 178.778 18.9583C179.386 18.6894 180.037 18.5549 180.731 18.5549C181.424 18.5549 182.073 18.6894 182.677 18.9583C183.286 19.2225 183.819 19.5952 184.276 20.0764C184.739 20.5529 185.099 21.1119 185.359 21.7535C185.618 22.3952 185.748 23.091 185.748 23.8411C185.748 24.5913 185.618 25.2871 185.359 25.9287C185.099 26.5704 184.739 27.1341 184.276 27.6201C183.819 28.1013 183.286 28.4763 182.677 28.7452C182.073 29.0142 181.424 29.1486 180.731 29.1486C180.037 29.1486 179.386 29.0142 178.778 28.7452C178.174 28.4763 177.641 28.1013 177.178 27.6201C176.716 27.1341 176.355 26.5704 176.096 25.9287C175.836 25.2871 175.706 24.5913 175.706 23.8411Z" fill="#707070"/>
</svg>
