<svg width="212" height="64" viewBox="0 0 212 64" fill="none" xmlns="http://www.w3.org/2000/svg">
<g clip-path="url(#clip0_2785_12874)">
<path d="M65.9763 11.7685C59.7536 12.8954 54.1189 17.1092 51.2443 22.8256C49.6764 25.9125 49.0558 28.64 49.0558 32.3312C49.0558 37.8679 50.9177 42.6043 54.6415 46.5405C57.6794 49.758 61.4522 51.8649 65.7476 52.7305C67.4462 53.0898 72.052 53.0898 73.8812 52.7305C79.9243 51.5872 85.461 47.4388 88.2865 41.951C89.9851 38.6682 90.6058 36.0223 90.6058 32.2495C90.6058 27.4804 89.2992 23.4953 86.5226 19.7878C83.3541 15.574 78.8137 12.7648 73.5709 11.7685C71.8723 11.4418 67.7729 11.4418 65.9763 11.7685ZM73.3096 15.084C76.5108 15.7536 79.3853 17.2562 81.8025 19.5428C89.0705 26.4188 89.2502 37.6066 82.1945 44.6459C75.1552 51.7016 63.9674 51.5219 57.0914 44.2539C54.7722 41.804 53.3022 38.9622 52.6163 35.6793C52.159 33.4744 52.2733 29.865 52.8613 27.7581C54.5762 21.666 59.3453 16.8969 65.3067 15.3453C67.2829 14.8227 67.2992 14.8227 69.7164 14.79C71.219 14.79 72.2643 14.8717 73.3096 15.084Z" fill="#707070"/>
<path d="M68.3301 23.3636C66.4845 24.1639 65.6679 26.6138 66.5988 28.5737C66.8111 29.0147 67.5788 30.0436 68.2974 30.8603C69.898 32.6242 70.633 33.9634 71.1229 35.9233C71.9396 39.2879 73.1808 40.5781 75.5817 40.5781C77.6723 40.5781 79.1095 39.0592 79.1095 36.8216C79.1095 35.4007 78.7992 34.7964 77.0516 32.8038C75.2551 30.7623 74.8468 30.0436 74.2098 27.6917C73.9485 26.6791 73.5728 25.5685 73.3932 25.2255C73.0012 24.4416 71.8742 23.478 71.1229 23.2656C70.2736 23.037 68.9834 23.0696 68.3301 23.3636Z" fill="#707070"/>
<path d="M63.0704 33.2938C62.2211 33.6041 61.7148 33.9471 61.2575 34.5677C59.3629 37.132 61.1268 40.5781 64.328 40.5781C67.7578 40.5781 69.3258 36.25 66.7126 34.0124C65.6836 33.1305 64.2953 32.8528 63.0704 33.2938Z" fill="#707070"/>
<path d="M101.485 26.1569C101.109 26.4999 100.407 27.9862 98.5447 32.3796C97.1891 35.5481 96.0948 38.243 96.0948 38.3573C96.0948 38.782 96.5032 38.9453 97.5811 38.9453C98.1854 38.9453 98.7897 38.9126 98.9204 38.8636C99.0347 38.8147 99.394 38.145 99.7043 37.3774L100.26 36.0055L102.84 36.0381L105.437 36.0871L105.96 37.3447C106.237 38.047 106.548 38.684 106.646 38.782C106.76 38.8963 107.348 38.9453 108.116 38.9126L109.406 38.8636L109.39 38.2103C109.357 37.2794 104.865 26.8266 104.212 26.1896C103.82 25.7813 103.624 25.716 102.857 25.716C102.122 25.716 101.893 25.7976 101.485 26.1569ZM103.526 31.3507C103.853 32.151 104.163 32.9186 104.212 33.0166C104.277 33.1799 103.951 33.2289 102.889 33.2289C102.122 33.2289 101.485 33.1636 101.485 33.0983C101.485 33.0329 101.73 32.396 102.024 31.6773C102.334 30.9587 102.628 30.2237 102.693 30.0604C102.742 29.8971 102.824 29.7828 102.857 29.8154C102.889 29.8481 103.199 30.5341 103.526 31.3507Z" fill="#707070"/>
<path d="M110.043 25.9277C109.994 26.0584 109.978 26.6953 110.01 27.365L110.059 28.5736L111.97 28.6226L113.897 28.6716L113.93 33.7673L113.979 38.8631L115.253 38.9121C116.07 38.9447 116.625 38.8957 116.772 38.7651C116.952 38.6181 117.001 37.6708 117.001 33.6203V28.6552H118.781C120.104 28.6552 120.61 28.5899 120.741 28.4266C120.855 28.2796 120.92 27.7406 120.888 26.9893L120.839 25.7971L115.482 25.7481C111.105 25.7154 110.125 25.7481 110.043 25.9277Z" fill="#707070"/>
<path d="M123.971 25.8153C123.906 25.8806 123.857 28.8205 123.857 32.3483C123.857 39.6163 123.694 38.9467 125.408 38.9467C127.058 38.9467 126.96 39.11 126.96 36.2355V33.7203H129.41H131.86V36.1375C131.86 37.8034 131.925 38.62 132.056 38.7507C132.317 39.012 134.669 39.012 134.93 38.7507C135.208 38.473 135.208 26.191 134.93 25.9133C134.816 25.799 134.212 25.7173 133.395 25.7173C132.333 25.7173 132.039 25.7663 131.958 25.9786C131.909 26.1256 131.86 27.2526 131.86 28.5102V30.7804H129.41H126.976L126.927 28.2815L126.878 25.799L125.49 25.75C124.722 25.7337 124.037 25.75 123.971 25.8153Z" fill="#707070"/>
<path d="M140.046 25.9965C139.752 26.1435 139.36 26.5028 139.197 26.7642C138.903 27.2378 138.887 27.6134 138.919 32.4479L138.968 37.6253L139.442 38.1153C139.72 38.3929 140.193 38.7032 140.504 38.7849C141.386 39.0299 148.572 38.9972 148.817 38.7522C149.095 38.4746 149.078 36.433 148.801 36.188C148.654 36.0737 147.396 35.992 145.322 35.9757L142.072 35.9267L142.039 32.4969C142.006 30.5206 142.055 28.969 142.153 28.8221C142.268 28.6261 142.904 28.5607 145.534 28.4954L148.768 28.4137V27.1071V25.8005L144.685 25.7679C141.141 25.7352 140.536 25.7515 140.046 25.9965Z" fill="#707070"/>
<path d="M153.6 26.0109C153.29 26.1579 152.881 26.5008 152.702 26.7458C152.375 27.1868 152.359 27.4481 152.31 32.8542C152.277 36.9863 152.31 38.5543 152.457 38.7176C152.702 39.0116 155.053 39.0442 155.347 38.7502C155.478 38.6196 155.543 37.9336 155.543 36.7087V34.8631H156.523H157.487L158.843 36.8557L160.198 38.8646L161.423 38.9136C163.84 39.0116 163.906 38.7666 162.109 36.1534L160.819 34.2915L161.57 33.8015C161.978 33.5238 162.534 32.9522 162.811 32.5112C163.269 31.7599 163.301 31.5966 163.301 30.143C163.301 28.7221 163.252 28.5097 162.844 27.7911C161.88 26.1579 160.623 25.7169 156.866 25.7169C154.612 25.7169 154.057 25.7659 153.6 26.0109ZM159.643 29.1304C160.002 29.4897 160.116 29.7673 160.116 30.241C160.116 31.5639 159.398 31.9559 157.16 31.8906L155.625 31.8416L155.576 30.4696C155.543 29.7183 155.56 28.9997 155.609 28.8691C155.674 28.7057 156.131 28.6567 157.422 28.6567C159.12 28.6567 159.169 28.6731 159.643 29.1304Z" fill="#707070"/>
<path d="M143.945 30.9912C143.047 31.4485 142.933 32.7551 143.733 33.3921C144.076 33.6534 144.403 33.7188 145.53 33.7188C147.473 33.7188 148.029 33.3921 148.029 32.2488C148.029 31.5629 147.882 31.2852 147.359 31.0239C146.787 30.7136 144.517 30.6972 143.945 30.9912Z" fill="#707070"/>
</g>
<defs>
<clipPath id="clip0_2785_12874">
<rect width="114.857" height="42" fill="white" transform="translate(48.5714 11)"/>
</clipPath>
</defs>
</svg>
