<svg width="212" height="64" viewBox="0 0 212 64" fill="none" xmlns="http://www.w3.org/2000/svg">
<path d="M128.253 26.3411C128.253 25.7032 127.733 25.1801 127.092 25.1801H108.359V42.516H110.678V27.5021H127.089C127.733 27.5021 128.253 26.9822 128.253 26.3411Z" fill="#707070"/>
<path d="M130.951 30.7891C131.774 29.9789 132.75 28.5467 132.75 26.3395C132.75 23.07 130.061 20.1802 126.99 20.1547H108.375V22.4736H126.98C128.786 22.4863 130.431 24.3332 130.431 26.3395C130.431 27.7493 129.829 28.6424 129.321 29.1432C128.53 29.9279 127.564 30.2022 126.977 30.1926L123.015 30.1511L128.865 40.1955H125.666L119.874 30.1767H113.363V42.5144H115.682V32.4956H118.537L124.33 42.5144H125.382H127.006H130.215H131.076H132.897L127.069 32.5083C128.438 32.4892 129.88 31.8513 130.951 30.7891Z" fill="#707070"/>
<path d="M89.0813 25.208L89.3397 25.7566L90.6187 28.4997L91.3906 30.1616L94.8355 37.5393H97.3904L89.3205 20.2289H86.3828L75.9685 42.5599H78.5298L87.8533 22.5701L89.0813 25.208Z" fill="#707070"/>
<path d="M102.945 37.5392L94.8593 20.1937H92.2979L100.384 37.5392L101.625 40.1963H98.6327H96.0745H91.0508H85.1658L89.137 31.6798V31.6766L87.8611 28.9303L81.5232 42.5184H91.0508H103.656H105.267L103.656 39.0639L102.945 37.5392Z" fill="#707070"/>
<path d="M158.472 35.8272V26.8323C158.472 25.9169 157.736 25.1801 156.82 25.1801H142.754C141.838 25.1801 141.101 25.9169 141.101 26.8323V35.8304C141.101 36.7459 141.838 37.4827 142.754 37.4827H148.929L147.86 35.1893H143.404V27.4798H156.182V35.1861H151.643L152.712 37.4795H156.823C157.736 37.4795 158.472 36.7459 158.472 35.8272Z" fill="#707070"/>
<path d="M157.244 20.1586H142.336C142.077 20.1586 141.828 20.1777 141.589 20.2064C140.805 20.2925 140.081 20.5222 139.411 20.8667C138.693 21.2207 138.065 21.7056 137.529 22.2989C136.916 22.9783 136.441 23.7884 136.164 24.6879V24.6975C135.972 25.3099 135.867 25.9574 135.867 26.6273V36.0496C135.867 39.6125 138.76 42.5055 142.332 42.5055H151.27L150.198 40.2026H142.332C142.189 40.2026 142.045 40.193 141.902 40.1834C141.49 40.1356 141.088 40.0399 140.728 39.8868C139.219 39.2552 138.16 37.7752 138.16 36.0464V26.6241C138.16 25.8203 138.39 25.0771 138.782 24.4455H138.792C139.213 23.747 139.832 23.1952 140.578 22.8507C141.114 22.6019 141.704 22.4583 142.336 22.4583H157.244C159.538 22.4583 161.41 24.3307 161.41 26.6209V36.0496C161.41 38.1994 159.767 39.9665 157.665 40.1834C157.531 40.193 157.388 40.2026 157.244 40.2026H153.984L155.053 42.496H157.656C157.943 42.496 158.278 42.429 158.278 42.429C161.352 41.9218 163.703 39.268 163.703 36.0496V26.6241C163.703 23.0516 160.807 20.1586 157.244 20.1586Z" fill="#707070"/>
<path d="M55.7185 51.8902L56.8477 46.0179H57.6865L59.1028 49.7818L60.519 46.0179H61.3579L62.487 51.8902H61.4504L60.7518 48.2571L59.4409 51.7562H58.7583L57.4473 48.2571L56.752 51.8902H55.7185Z" fill="#707070"/>
<path d="M65.8829 51.9996C65.4906 51.9996 65.1206 51.9199 64.7729 51.7636C64.4252 51.6041 64.1222 51.3872 63.8575 51.1065C63.5927 50.8258 63.3886 50.5037 63.2387 50.1337C63.0887 49.7669 63.0154 49.3713 63.0154 48.9535C63.0154 48.5356 63.0919 48.1401 63.2387 47.7733C63.3886 47.4065 63.5959 47.0811 63.8575 46.8036C64.119 46.5261 64.4252 46.306 64.7729 46.1466C65.1174 45.9871 65.4906 45.9105 65.8829 45.9105C66.2784 45.9105 66.6516 45.9903 66.9961 46.1466C67.3406 46.306 67.6468 46.5229 67.9115 46.8036C68.1763 47.0843 68.3804 47.4065 68.5303 47.7733C68.6771 48.1401 68.7536 48.5356 68.7536 48.9535C68.7536 49.3745 68.6802 49.7669 68.5303 50.1337C68.3836 50.5005 68.1763 50.8258 67.9115 51.1065C67.6468 51.3872 67.3438 51.6041 66.9961 51.7636C66.6516 51.9199 66.2816 51.9996 65.8829 51.9996ZM65.8829 50.9757C66.1381 50.9757 66.3773 50.9215 66.6006 50.8163C66.8239 50.711 67.0216 50.5643 67.1939 50.3793C67.3629 50.1943 67.4969 49.9774 67.5926 49.735C67.6883 49.4925 67.7361 49.231 67.7361 48.9535C67.7361 48.676 67.6883 48.4144 67.5894 48.172C67.4937 47.9264 67.3597 47.7127 67.1875 47.5277C67.0152 47.3427 66.8207 47.1992 66.5974 47.0907C66.3741 46.9854 66.1349 46.9312 65.8797 46.9312C65.6245 46.9312 65.3853 46.9854 65.162 47.0907C64.9388 47.196 64.741 47.3427 64.5688 47.5277C64.3997 47.7127 64.2657 47.9296 64.17 48.172C64.0744 48.4144 64.0265 48.676 64.0265 48.9535C64.0265 49.2342 64.0744 49.4957 64.1732 49.7381C64.2689 49.9806 64.4029 50.1975 64.5751 50.3825C64.7474 50.5675 64.9419 50.7142 65.1652 50.8195C65.3885 50.9247 65.6277 50.9757 65.8829 50.9757Z" fill="#707070"/>
<path d="M69.6794 51.8902V46.0179H71.8006C72.1068 46.0179 72.3875 46.0817 72.6331 46.2093C72.8819 46.3369 73.0765 46.5187 73.2232 46.7548C73.3699 46.9908 73.4401 47.2715 73.4401 47.5905C73.4401 47.734 73.4178 47.8775 73.3763 48.0211C73.3348 48.1678 73.271 48.2986 73.1849 48.4134C73.0988 48.5282 72.9871 48.6144 72.8532 48.6718C73.035 48.7164 73.1817 48.7962 73.2934 48.9142C73.4082 49.0322 73.4943 49.1694 73.5613 49.3288C73.6251 49.4883 73.6697 49.6478 73.6921 49.8105C73.7144 49.9732 73.7272 50.1263 73.7272 50.2666C73.7272 50.576 73.6506 50.8535 73.4975 51.0959C73.3444 51.3383 73.1403 51.5329 72.8851 51.6733C72.6299 51.8168 72.346 51.887 72.0334 51.887H69.6794V51.8902ZM70.6938 48.289H71.6826C71.8867 48.289 72.0621 48.2252 72.2089 48.0944C72.3556 47.9668 72.4258 47.7946 72.4258 47.5841C72.4258 47.3576 72.3524 47.1854 72.2089 47.0705C72.0621 46.9557 71.8899 46.8951 71.6826 46.8951H70.6938V48.289ZM70.6938 51.013H71.9314C72.0972 51.013 72.2471 50.9715 72.3811 50.8918C72.5151 50.812 72.6203 50.6972 72.7001 50.5569C72.7798 50.4133 72.8213 50.2507 72.8213 50.0688C72.8213 49.9126 72.7798 49.7626 72.7001 49.6255C72.6203 49.4851 72.5119 49.3735 72.3811 49.2842C72.2471 49.1981 72.0972 49.1534 71.9314 49.1534H70.6938V51.013Z" fill="#707070"/>
<path d="M74.8513 51.8902V46.0179H75.8656V51.8902H74.8513Z" fill="#707070"/>
<path d="M77.0779 51.8902V46.0179H78.0922V50.8663H80.5164V51.8902H77.0779Z" fill="#707070"/>
<path d="M81.5466 51.8902V46.0179H82.5609V51.8902H81.5466Z" fill="#707070"/>
<path d="M88.0894 46.014V47.0379H86.3096V51.8895H85.2952V47.0379H83.5154V46.014H88.0894Z" fill="#707070"/>
<path d="M92.4897 46.014H93.6858L91.6859 49.242V51.8895H90.6716V49.242L88.6716 46.014H89.8678L91.1787 48.1256L92.4897 46.014Z" fill="#707070"/>
<path d="M96.2654 51.8898V50.9743C96.4472 50.8372 96.6577 50.6681 96.9065 50.464C97.1521 50.2598 97.4073 50.0429 97.6688 49.8037C97.9304 49.5677 98.1696 49.3316 98.3929 49.0924C98.6162 48.8564 98.7948 48.6267 98.9352 48.413C99.0755 48.1961 99.1457 48.0143 99.1457 47.858C99.1457 47.6858 99.1042 47.5326 99.0213 47.3891C98.9384 47.2488 98.8267 47.1339 98.6896 47.051C98.5524 46.9681 98.3993 46.9266 98.2302 46.9266C98.0612 46.9266 97.9081 46.9681 97.7677 47.051C97.6274 47.1339 97.5189 47.2488 97.436 47.3891C97.3531 47.5295 97.3116 47.6858 97.3116 47.858H96.2973C96.2973 47.488 96.3866 47.1563 96.562 46.8628C96.7406 46.5662 96.9735 46.3333 97.2669 46.1611C97.5604 45.9888 97.8794 45.9027 98.2302 45.9027C98.5843 45.9027 98.9065 45.9888 99.1999 46.1643C99.4902 46.3397 99.723 46.5757 99.8985 46.8724C100.074 47.169 100.16 47.4976 100.16 47.858C100.16 48.0494 100.125 48.2408 100.058 48.4321C99.9878 48.6267 99.8921 48.8213 99.7677 49.0159C99.6433 49.2104 99.4966 49.4082 99.3275 49.6091C99.1584 49.8101 98.9734 50.0142 98.7693 50.2216C98.5652 50.4289 98.3514 50.6426 98.1282 50.8627H100.195V51.8866H96.2654V51.8898Z" fill="#707070"/>
<path d="M101.535 51.9976C101.392 51.9976 101.267 51.9465 101.168 51.8445C101.066 51.7424 101.015 51.618 101.015 51.4681C101.015 51.3245 101.066 51.2033 101.168 51.0981C101.271 50.996 101.392 50.9418 101.535 50.9418C101.679 50.9418 101.803 50.9928 101.905 51.0981C102.007 51.2001 102.058 51.3245 102.058 51.4681C102.058 51.618 102.007 51.7424 101.905 51.8445C101.803 51.9465 101.679 51.9976 101.535 51.9976Z" fill="#707070"/>
<path d="M105.069 51.9996C104.731 51.9996 104.425 51.9199 104.147 51.7636C103.87 51.6041 103.631 51.3872 103.43 51.1065C103.229 50.8258 103.076 50.5037 102.967 50.1337C102.859 49.7669 102.804 49.3713 102.804 48.9535C102.804 48.5356 102.859 48.1401 102.967 47.7733C103.076 47.4065 103.229 47.0811 103.43 46.8036C103.631 46.5229 103.87 46.306 104.147 46.1466C104.425 45.9871 104.731 45.9105 105.069 45.9105C105.407 45.9105 105.717 45.9903 105.991 46.1466C106.268 46.306 106.505 46.5229 106.705 46.8036C106.903 47.0843 107.056 47.4065 107.168 47.7733C107.276 48.1401 107.331 48.5356 107.331 48.9535C107.331 49.3745 107.276 49.7669 107.168 50.1337C107.06 50.5005 106.903 50.8258 106.705 51.1065C106.508 51.3872 106.268 51.6041 105.991 51.7636C105.717 51.9199 105.407 51.9996 105.069 51.9996ZM105.069 50.9757C105.366 50.9757 105.611 50.8801 105.806 50.6919C106.001 50.5005 106.144 50.2517 106.237 49.9455C106.332 49.6393 106.377 49.3075 106.377 48.9567C106.377 48.5835 106.326 48.2454 106.227 47.9392C106.128 47.633 105.981 47.3873 105.787 47.2055C105.592 47.0237 105.353 46.9344 105.069 46.9344C104.846 46.9344 104.651 46.9886 104.485 47.1003C104.32 47.2119 104.182 47.3618 104.077 47.55C103.969 47.7414 103.889 47.9551 103.835 48.1975C103.784 48.4399 103.755 48.6919 103.755 48.9535C103.755 49.3043 103.803 49.6329 103.899 49.9423C103.994 50.2517 104.141 50.5005 104.336 50.6919C104.533 50.8801 104.776 50.9757 105.069 50.9757Z" fill="#707070"/>
<path d="M48.2966 50.905L57.0459 32.6281H48.5773L62.9596 12.0004L54.4623 30.2645H63.1446L48.2966 50.905Z" fill="#707070"/>
<path d="M68.6817 20.1976H60.1078L59.0169 22.5389H68.6817C70.4647 22.5389 72.152 24.4144 72.152 26.3952C72.152 28.5419 70.3786 30.2165 68.8029 30.2994V30.293L64.2671 30.2962L62.583 32.6374L68.6817 32.6342V32.647C70.3244 32.647 72.152 34.2355 72.152 36.5193C72.152 38.7361 70.318 40.3916 68.5668 40.3916H57.0042L55.3201 42.7328H68.6785C71.7757 42.7328 74.4933 39.8302 74.4933 36.5193C74.4933 34.3152 73.4375 32.5417 71.9926 31.4636C73.4821 30.3058 74.4933 28.427 74.4933 26.3952C74.4933 23.0939 71.7757 20.1976 68.6817 20.1976Z" fill="#707070"/>
<path d="M155.432 44.6178L150.077 33.1254H147.515L152.874 44.6178H155.432Z" fill="#707070"/>
</svg>
