<svg width="212" height="64" viewBox="0 0 212 64" fill="none" xmlns="http://www.w3.org/2000/svg">
<g clip-path="url(#clip0_2785_13056)">
<path d="M86.742 36.641C88.5407 36.641 90.1189 36.135 91.4572 35.1463C92.7954 34.1563 93.7372 32.771 94.242 30.9671H90.7554C90.4046 31.781 89.8789 32.3967 89.155 32.8141C88.4311 33.2315 87.6198 33.4519 86.7433 33.4519C85.4272 33.4519 84.3302 32.9902 83.4759 32.0889C82.6202 31.1876 82.182 30.0215 82.182 28.6363C82.182 27.251 82.6202 26.1071 83.4759 25.1836C84.3315 24.2823 85.4272 23.8206 86.7433 23.8206C87.642 23.8206 88.4533 24.041 89.1772 24.4806C89.9011 24.9202 90.4268 25.5358 90.7554 26.3276H94.242C93.7372 24.5236 92.7941 23.1163 91.4572 22.1276C90.1202 21.1389 88.5407 20.6523 86.742 20.6523C84.4176 20.6523 82.5094 21.4219 81.0407 22.9402C79.5498 24.4571 78.8037 26.3706 78.8037 28.6363C78.8037 30.9228 79.5498 32.8363 81.0407 34.3545C82.5094 35.8715 84.4176 36.641 86.742 36.641Z" fill="#707070"/>
<path d="M101.067 36.6181C102.844 36.6181 104.312 36.0468 105.474 34.8807C106.637 33.7146 107.207 32.2851 107.207 30.5477C107.207 28.8103 106.637 27.3585 105.474 26.1925C104.312 25.0264 102.842 24.4551 101.067 24.4551C99.2905 24.4551 97.8218 25.0264 96.6596 26.1925C95.4974 27.3585 94.9053 28.8103 94.9053 30.5477C94.9053 32.2851 95.4753 33.7146 96.6374 34.8807C97.7996 36.0468 99.2696 36.6181 101.067 36.6181ZM98.984 32.7037C98.4361 32.1324 98.1505 31.4059 98.1505 30.549C98.1505 29.6685 98.4361 28.9433 98.984 28.372C99.5318 27.8007 100.213 27.5151 101.067 27.5151C101.923 27.5151 102.602 27.8007 103.15 28.372C103.698 28.9433 103.961 29.6698 103.961 30.549C103.961 31.4072 103.698 32.1324 103.15 32.7037C102.602 33.275 101.921 33.562 101.067 33.562C100.213 33.562 99.5318 33.275 98.984 32.7037Z" fill="#707070"/>
<path d="M115.958 41.3907C117.165 41.3907 118.129 41.1051 118.81 40.5116C119.489 39.9181 119.818 39.0155 119.818 37.8064V24.742H116.638V25.929H116.397C116.133 25.6433 115.892 25.4229 115.673 25.2246C115.431 25.0486 115.103 24.8725 114.642 24.6964C114.182 24.5425 113.677 24.4551 113.107 24.4551C111.616 24.4551 110.365 25.0486 109.379 26.2146C108.371 27.3807 107.866 28.8311 107.866 30.5255C107.866 32.2629 108.392 33.6924 109.446 34.8585C110.476 36.0246 111.748 36.6181 113.262 36.6181C114.601 36.6181 115.631 36.1564 116.377 35.2551H116.618V37.6524C116.618 38.1807 116.377 38.4442 115.894 38.4442H110.741V41.3907H115.958ZM113.898 33.5829C113.129 33.5829 112.472 33.2972 111.946 32.7246C111.398 32.1533 111.135 31.4268 111.135 30.5255C111.135 29.6464 111.398 28.9198 111.946 28.3485C112.472 27.7994 113.131 27.5124 113.898 27.5124C114.687 27.5124 115.345 27.7759 115.871 28.3264C116.397 28.8755 116.66 29.6242 116.66 30.5255C116.66 31.3837 116.397 32.109 115.893 32.7024C115.366 33.2972 114.709 33.5829 113.898 33.5829Z" fill="#707070"/>
<path d="M124.551 36.3324V29.602C124.551 29.0085 124.748 28.5246 125.121 28.1281C125.494 27.7537 125.955 27.5568 126.525 27.5568C127.073 27.5568 127.535 27.7551 127.906 28.1281C128.257 28.5024 128.433 28.9851 128.433 29.5798V36.3311H131.635V28.5455C131.635 27.3794 131.262 26.4129 130.518 25.6212C129.749 24.8516 128.785 24.4551 127.579 24.4551C126.329 24.4551 125.407 24.8946 124.772 25.7972H124.553V24.742H121.351V36.3324H124.551Z" fill="#707070"/>
<path d="M138.786 36.6181C140.562 36.6181 142.031 36.0468 143.193 34.8807C144.355 33.7146 144.925 32.2851 144.925 30.5477C144.925 28.8103 144.355 27.3585 143.193 26.1925C142.031 25.0264 140.561 24.4551 138.786 24.4551C137.009 24.4551 135.541 25.0264 134.378 26.1925C133.216 27.3585 132.624 28.8103 132.624 30.5477C132.624 32.2851 133.194 33.7146 134.356 34.8807C135.518 36.0468 136.987 36.6181 138.786 36.6181ZM136.701 32.7037C136.154 32.1324 135.868 31.4059 135.868 30.549C135.868 29.6685 136.154 28.9433 136.701 28.372C137.249 27.8007 137.93 27.5151 138.784 27.5151C139.639 27.5151 140.32 27.8007 140.868 28.372C141.415 28.9433 141.679 29.6698 141.679 30.549C141.679 31.4072 141.415 32.1324 140.868 32.7037C140.32 33.275 139.64 33.562 138.784 33.562C137.929 33.562 137.251 33.275 136.701 32.7037Z" fill="#707070"/>
<path d="M164.489 36.3327L159.334 20.9375H154.728L149.53 36.3327H153.039L154.026 33.2532H160.058L161.045 36.3327H164.489ZM156.9 24.2362H157.141L159.092 30.2623H154.969L156.9 24.2362Z" fill="#707070"/>
<path d="M172.59 36.3327V33.3419H170.485V23.9284H172.59V20.9375H165.155V23.9284H167.216V33.3406H165.155V36.3314H172.59V36.3327Z" fill="#707070"/>
<path d="M56.3696 47.913C65.7344 47.913 73.3261 40.3214 73.3261 30.9565C73.3261 21.5917 65.7344 14 56.3696 14C47.0048 14 39.4131 21.5917 39.4131 30.9565C39.4131 40.3214 47.0048 47.913 56.3696 47.913Z" fill="#707070"/>
<path d="M61.4894 40.6147C62.8499 39.3234 63.5294 37.5769 63.5294 35.4495C63.5294 33.3991 62.8499 31.6512 61.4894 30.2086C60.0533 28.8417 58.316 28.1582 56.276 28.1582C54.1603 28.1582 52.4229 28.8417 51.0625 30.2086C49.702 31.6512 49.0225 33.3991 49.0225 35.4495C49.0225 37.5769 49.702 39.3234 51.0625 40.6147C52.4229 41.9817 54.1603 42.6652 56.276 42.6652C58.3916 42.6652 60.129 41.9817 61.4894 40.6147Z" fill="white" fill-opacity="0.4"/>
<path opacity="0.6" d="M61.4894 21.2399C62.8499 22.5312 63.5294 24.2777 63.5294 26.4051C63.5294 28.4555 62.8499 30.2034 61.4894 31.646C60.0533 33.0129 58.316 33.6964 56.276 33.6964C54.1603 33.6964 52.4229 33.0129 51.0625 31.646C49.702 30.2034 49.0225 28.4555 49.0225 26.4051C49.0225 24.2777 49.702 22.5312 51.0625 21.2399C52.4229 19.8729 54.1603 19.1895 56.276 19.1895C58.3916 19.1895 60.129 19.8729 61.4894 21.2399Z" fill="white"/>
<path d="M47.4791 25.6845C48.7704 24.3241 50.517 23.6445 52.6443 23.6445C54.6948 23.6445 56.4426 24.3241 57.8852 25.6845C59.2522 27.1206 59.9357 28.858 59.9357 30.898C59.9357 33.0137 59.2522 34.7511 57.8852 36.1115C56.4426 37.4719 54.6948 38.1515 52.6443 38.1515C50.5183 38.1515 48.7704 37.4719 47.4791 36.1115C46.1122 34.7524 45.4287 33.0137 45.4287 30.898C45.4287 28.7824 46.1122 27.045 47.4791 25.6845Z" fill="white" fill-opacity="0.4"/>
<path d="M65.1352 25.6845C63.8439 24.3241 62.0974 23.6445 59.97 23.6445C57.9196 23.6445 56.1718 24.3241 54.7291 25.6845C53.3622 27.1206 52.6787 28.858 52.6787 30.898C52.6787 33.0137 53.3622 34.7511 54.7291 36.1115C56.1718 37.4719 57.9196 38.1515 59.97 38.1515C62.0974 38.1515 63.8439 37.4719 65.1352 36.1115C66.5022 34.7511 67.1857 33.0137 67.1857 30.898C67.1857 28.7824 66.5035 27.045 65.1352 25.6845Z" fill="white" fill-opacity="0.4"/>
<path d="M126.189 47.9021C127.541 47.9021 128.508 46.8703 128.508 45.4186C128.508 43.9577 127.586 42.9168 126.244 42.9168C125.249 42.9168 124.765 43.556 124.619 43.8025H124.564V40.9355H123.843V47.7834H124.537V47.0347H124.591C124.71 47.2081 125.158 47.9021 126.189 47.9021ZM126.144 47.2538C125.158 47.2538 124.537 46.4229 124.537 45.4277C124.537 44.2499 125.267 43.5742 126.162 43.5742C127.093 43.5742 127.769 44.3412 127.769 45.4277C127.769 46.5325 127.057 47.2538 126.144 47.2538ZM128.879 49.8834H129.381C130.148 49.8834 130.586 49.6094 130.824 48.9886L133.134 43.0355H132.321L130.851 47.0895H130.796L129.408 43.0355H128.605L130.349 47.7834H130.541L130.203 48.669C130.057 49.0434 129.847 49.226 129.408 49.226H128.879V49.8834ZM140.064 47.7834H140.84L138.484 41.3921H137.434L135.051 47.7834H135.827L136.384 46.2677H139.507L140.064 47.7834ZM136.631 45.5921L137.918 42.0677H137.973L139.26 45.5921H136.631ZM141.067 47.7834H143.705V47.1625H142.747V40.9355H141.067V41.5564H142.025V47.1625H141.067V47.7834ZM144.067 47.7834H146.705V47.1625H145.747V40.9355H144.067V41.5564H145.025V47.1625H144.067V47.7834ZM148.095 42.1773C148.405 42.1773 148.624 41.949 148.624 41.6477C148.624 41.3555 148.405 41.1273 148.095 41.1273C147.793 41.1273 147.574 41.3555 147.574 41.6477C147.574 41.949 147.793 42.1773 148.095 42.1773ZM147.738 47.7834H148.46V43.0355H146.844V43.6473H147.738V47.7834ZM149.717 47.7834H150.438V44.9529C150.438 44.1677 151.023 43.5925 151.771 43.5925C152.438 43.5925 152.995 44.0855 152.995 44.8434V47.7834H153.716V44.7977C153.716 43.7477 153.05 42.9168 151.945 42.9168C151.205 42.9168 150.694 43.3003 150.493 43.7295H150.438V43.0355H149.717V47.7834ZM157.591 47.9021C159.016 47.9021 160.157 47.0621 160.559 45.8295H159.737C159.418 46.6695 158.587 47.2081 157.601 47.2081C156.185 47.2081 155.126 46.1034 155.126 44.5877C155.126 43.0903 156.185 41.9673 157.601 41.9673C158.587 41.9673 159.399 42.5151 159.737 43.346H160.559C160.139 42.1408 159.025 41.2734 157.601 41.2734C155.747 41.2734 154.359 42.7068 154.359 44.5877C154.359 46.4868 155.738 47.9021 157.591 47.9021ZM163.201 47.9021C164.233 47.9021 164.671 47.2264 164.79 47.0347H164.845V47.0803C164.854 47.4912 165.146 47.7834 165.539 47.7834H166.005V47.1442H165.785C165.639 47.1442 165.548 47.0712 165.548 46.9251V43.0355H164.818V43.8025H164.763C164.626 43.556 164.133 42.9168 163.147 42.9168C161.795 42.9168 160.882 43.9577 160.882 45.4186C160.882 46.8703 161.841 47.9021 163.201 47.9021ZM163.238 47.2538C162.325 47.2538 161.622 46.5325 161.622 45.4277C161.622 44.3412 162.298 43.5742 163.229 43.5742C164.115 43.5742 164.845 44.2499 164.845 45.4277C164.845 46.4229 164.233 47.2538 163.238 47.2538ZM166.597 47.7834H169.235V47.1625H168.277V40.9355H166.597V41.5564H167.555V47.1625H166.597V47.7834ZM169.598 47.7834H172.237V47.1625H171.278V40.9355H169.598V41.5564H170.557V47.1625H169.598V47.7834Z" fill="#707070"/>
</g>
<defs>
<clipPath id="clip0_2785_13056">
<rect width="133.174" height="36" fill="white" transform="translate(39.4131 14)"/>
</clipPath>
</defs>
</svg>
