<svg width="212" height="64" viewBox="0 0 212 64" fill="none" xmlns="http://www.w3.org/2000/svg">
<path fill-rule="evenodd" clip-rule="evenodd" d="M99.5904 22.7371C103.559 19.7542 107.127 19.6212 111.666 22.7371C111.666 22.7371 123.499 30.9901 122.965 30.4497L107.658 16.0095C106.218 14.647 104.954 14.6801 103.46 16.0095L88.2902 30.4497C87.7146 31.0319 99.5904 22.7371 99.5904 22.7371ZM80.2315 45.7103C80.5174 45.3874 80.7118 45.1169 80.8152 44.8983C81.0122 44.4807 81.1268 43.9941 81.1598 43.4389C81.1798 43.0989 81.1931 42.798 81.2009 42.5273C80.5749 42.6343 80.027 42.7304 79.5774 42.8125C78.874 42.9405 78.3068 43.0569 77.8754 43.1611C77.4439 43.266 77.0641 43.3797 76.7359 43.5031C76.3609 43.6547 76.0586 43.8187 75.8288 43.9941C75.5989 44.1702 75.4301 44.3621 75.3224 44.5707C75.2145 44.7798 75.1606 45.0122 75.1606 45.2687C75.1606 45.6199 75.2473 45.9217 75.4208 46.1731C75.5944 46.4245 75.8403 46.6168 76.1594 46.7498C76.4781 46.8825 76.8579 46.9492 77.2988 46.9492C78.002 46.9492 78.5949 46.8232 79.0781 46.5718C79.5608 46.3202 79.9453 46.0328 80.2315 45.7103ZM82.0241 34.3901C83.0649 34.8078 83.8528 35.5293 84.3871 36.5544C84.6871 37.1243 84.8654 37.6936 84.9217 38.2635C84.9779 38.8326 85.006 39.469 85.006 40.1715V49.5698H81.6584V47.6786C81.0547 48.3988 80.4151 48.9432 79.7383 49.3062C78.8805 49.7668 77.7948 49.997 76.482 49.997C75.3943 49.997 74.473 49.7853 73.7181 49.363C72.9632 48.941 72.3912 48.3762 72.0022 47.6684C71.613 46.9616 71.4184 46.1806 71.4184 45.3261C71.4184 44.6141 71.5261 43.9641 71.7419 43.3754C71.9575 42.7867 72.3069 42.2671 72.7898 41.816C73.2728 41.3651 73.9222 40.9877 74.738 40.6841C75.3005 40.4753 75.971 40.2901 76.7493 40.1287C77.5277 39.9671 78.4091 39.8131 79.3938 39.666C79.9714 39.5796 80.587 39.4869 81.2323 39.389C81.1594 38.7565 80.9557 38.2708 80.6175 37.9358C80.1861 37.5087 79.4643 37.2949 78.4513 37.2949C77.8886 37.2949 77.3026 37.4328 76.6932 37.7077C76.0835 37.9833 75.657 38.4724 75.4131 39.1745L71.9529 38.064C72.3374 36.7921 73.0592 35.7572 74.119 34.9596C75.1787 34.1622 76.6228 33.7637 78.4513 33.7637C79.7923 33.7637 80.9832 33.9725 82.0241 34.3901ZM96.7001 41.4316C96.0016 41.0282 95.0755 40.6745 93.9221 40.3709C92.7406 40.067 91.8616 39.8204 91.2849 39.6306C90.708 39.4404 90.3283 39.2552 90.1455 39.0748C89.9626 38.8946 89.8712 38.6718 89.8712 38.4057C89.8712 37.9593 90.0843 37.6179 90.5112 37.3802C90.9378 37.1431 91.5028 37.0482 92.2061 37.0958C92.9279 37.1523 93.5002 37.3473 93.9221 37.6793C94.3442 38.0119 94.5879 38.4626 94.6536 39.0321L98.564 38.3202C98.4325 37.39 98.0831 36.583 97.5159 35.8994C96.9485 35.2161 96.2055 34.6891 95.2865 34.3187C94.3675 33.9488 93.3125 33.7637 92.1215 33.7637C90.8931 33.7637 89.8264 33.9607 88.9216 34.3547C88.0165 34.7486 87.3157 35.3084 86.8188 36.035C86.3216 36.7612 86.0732 37.6179 86.0732 38.6047C86.0732 39.3933 86.2373 40.0645 86.5656 40.6199C86.8938 41.1753 87.4285 41.6522 88.1692 42.0512C88.9098 42.4499 89.8992 42.8106 91.1372 43.1332C92.2342 43.4276 93.0431 43.665 93.5634 43.8451C94.0839 44.0259 94.419 44.2082 94.5691 44.3937C94.7191 44.5786 94.7942 44.8233 94.7942 45.1267C94.7942 45.6111 94.6065 45.9881 94.2317 46.2589C93.8562 46.5294 93.322 46.6646 92.6281 46.6646C91.784 46.6646 91.0877 46.4606 90.5393 46.0523C89.9907 45.6444 89.6367 45.0792 89.4774 44.3581L85.5668 44.9561C85.82 46.5603 86.5351 47.8018 87.7122 48.6798C88.8888 49.5578 90.4336 49.997 92.3468 49.997C94.3347 49.997 95.8914 49.5463 97.0166 48.6444C98.1419 47.7422 98.7044 46.5036 98.7044 44.9274C98.7044 44.1302 98.545 43.4492 98.2261 42.884C97.9075 42.3194 97.3985 41.8354 96.7001 41.4316ZM109.729 49.5712H105.903V28.6387H109.729V49.5712ZM121.282 45.1206C120.677 45.9607 119.76 46.3805 118.532 46.3805C117.341 46.3805 116.438 45.9748 115.824 45.1631C115.21 44.3514 114.903 43.2574 114.903 41.8809C114.903 40.9886 115.032 40.2055 115.289 39.5314C115.547 38.8574 115.944 38.3304 116.478 37.9508C117.013 37.5711 117.697 37.3809 118.532 37.3809C119.741 37.3809 120.653 37.7892 121.267 38.6054C121.882 39.422 122.189 40.5138 122.189 41.8809C122.189 43.2003 121.886 44.2804 121.282 45.1206ZM125.273 37.6723C124.626 36.4527 123.724 35.496 122.566 34.8031C121.407 34.11 120.064 33.7637 118.536 33.7637C117.035 33.7637 115.709 34.1051 114.555 34.789C113.402 35.472 112.497 36.4242 111.841 37.6439C111.184 38.8637 110.856 40.2758 110.856 41.8802C110.856 43.4658 111.177 44.8683 111.819 46.0883C112.462 47.3081 113.36 48.2645 114.513 48.9576C115.666 49.6502 117.007 49.997 118.536 49.997C120.055 49.997 121.394 49.6527 122.552 48.9645C123.71 48.2762 124.615 47.3223 125.266 46.1023C125.918 44.8826 126.244 43.4752 126.244 41.8802C126.244 40.2948 125.92 38.8923 125.273 37.6723ZM135.059 45.7103C135.346 45.3874 135.54 45.1169 135.643 44.8983C135.84 44.4807 135.955 43.9941 135.988 43.4389C136.008 43.0989 136.021 42.798 136.029 42.5273C135.403 42.6343 134.855 42.7304 134.405 42.8125C133.702 42.9405 133.135 43.0569 132.703 43.1611C132.272 43.266 131.892 43.3797 131.564 43.5031C131.189 43.6547 130.887 43.8187 130.657 43.9941C130.427 44.1702 130.258 44.3621 130.151 44.5707C130.043 44.7798 129.989 45.0122 129.989 45.2687C129.989 45.6199 130.075 45.9217 130.249 46.1731C130.422 46.4245 130.669 46.6168 130.987 46.7498C131.306 46.8825 131.686 46.9492 132.127 46.9492C132.83 46.9492 133.423 46.8232 133.906 46.5718C134.389 46.3202 134.773 46.0328 135.059 45.7103ZM136.853 34.3901C137.893 34.8078 138.681 35.5293 139.216 36.5544C139.515 37.1243 139.693 37.6936 139.75 38.2635C139.806 38.8326 139.834 39.469 139.834 40.1715V49.5698H136.487V47.6784C135.883 48.3988 135.243 48.9432 134.567 49.3062C133.708 49.7668 132.623 49.997 131.31 49.997C130.222 49.997 129.301 49.7853 128.546 49.363C127.792 48.941 127.219 48.3762 126.83 47.6684C126.441 46.9616 126.247 46.1806 126.247 45.3261C126.247 44.6141 126.354 43.9641 126.57 43.3754C126.786 42.7867 127.135 42.2671 127.618 41.816C128.101 41.3651 128.75 40.9877 129.566 40.6841C130.129 40.4753 130.799 40.2901 131.578 40.1287C132.356 39.9671 133.238 39.8131 134.222 39.666C134.8 39.5796 135.415 39.4869 136.061 39.389C135.988 38.7565 135.784 38.2708 135.446 37.9358C135.014 37.5087 134.292 37.2949 133.28 37.2949C132.717 37.2949 132.131 37.4328 131.521 37.7077C130.911 37.9833 130.485 38.4724 130.241 39.1745L126.781 38.064C127.166 36.7921 127.888 35.7572 128.947 34.9596C130.007 34.1622 131.451 33.7637 133.28 33.7637C134.62 33.7637 135.812 33.9725 136.853 34.3901ZM155.422 39.7172C155.384 39.1569 155.277 38.5373 155.098 37.8587C154.92 37.18 154.622 36.5274 154.205 35.9006C153.788 35.2741 153.204 34.7569 152.454 34.3486C151.704 33.9407 150.733 33.7363 149.542 33.7363C148.051 33.7363 146.816 34.0638 145.836 34.719C145.375 35.027 144.971 35.3816 144.619 35.7799V34.1921H141.215V49.5711H145.098V41.7676C145.098 40.8088 145.203 40.0402 145.414 39.4607C145.625 38.8819 145.894 38.4427 146.223 38.1435C146.551 37.8446 146.902 37.6427 147.278 37.5386C147.652 37.4342 148.004 37.3817 148.332 37.3817C149.149 37.3817 149.779 37.5666 150.225 37.9373C150.67 38.3073 150.991 38.768 151.188 39.3185C151.385 39.869 151.502 40.4176 151.54 40.9628C151.577 41.5092 151.596 41.9576 151.596 42.3088V49.5711H155.478V40.9417C155.478 40.6856 155.459 40.2773 155.422 39.7172ZM63.7236 50.0009C62.1589 50.0009 60.7804 49.6594 59.5881 48.9773C58.3956 48.2953 57.4625 47.3554 56.7887 46.1578C56.1147 44.9604 55.7778 43.5885 55.7778 42.0427C55.7778 40.3536 56.1076 38.8844 56.7675 37.6342C57.4271 36.3843 58.3368 35.4134 59.4962 34.7215C60.6555 34.0297 61.9892 33.6836 63.4974 33.6836C65.0997 33.6836 66.4616 34.0655 67.5834 34.8287C68.705 35.5923 69.5345 36.6658 70.0717 38.0493C70.609 39.433 70.7975 41.0598 70.6373 42.9301H67.1112V42.9305H59.9162C60.0373 43.857 60.3238 44.6082 60.7757 45.1845C61.393 45.9715 62.3002 46.3651 63.4974 46.3651C64.2514 46.3651 64.8971 46.1983 65.4343 45.8644C65.9716 45.5304 66.3816 45.0485 66.6644 44.4185L70.51 45.5351C69.935 46.9475 69.0277 48.0449 67.7884 48.827C66.5489 49.6095 65.194 50.0009 63.7236 50.0009ZM60.0177 40.0391H66.7473C66.636 39.2013 66.4175 38.5547 66.0918 38.0994C65.5969 37.4077 64.7886 37.0617 63.667 37.0617C62.3568 37.0617 61.393 37.4647 60.7757 38.2712C60.4213 38.734 60.1687 39.3233 60.0177 40.0391ZM59.8496 41.8423C59.8496 41.7129 59.8517 41.5862 59.8559 41.462V42.1909C59.8517 42.0769 59.8496 41.9607 59.8496 41.8423Z" fill="#707070"/>
<path fill-rule="evenodd" clip-rule="evenodd" d="M101.914 29.8477C103.378 29.8477 104.565 31.1153 104.565 32.6788C104.565 34.2424 103.378 35.51 101.914 35.51C100.449 35.51 99.2621 34.2424 99.2621 32.6788C99.2621 31.1153 100.449 29.8477 101.914 29.8477ZM100.2 49.9988V36.3639L103.698 36.3184V49.9988H100.2Z" fill="#707070"/>
</svg>
