<svg width="212" height="64" viewBox="0 0 212 64" fill="none" xmlns="http://www.w3.org/2000/svg">
<path d="M43.3095 16.6098C40.5667 18.2185 37.9545 19.7837 37.5192 20.175C36.8226 20.7837 36.7791 21.5663 36.8661 27.3924L36.9967 33.9576L41.3504 36.4359C43.7448 37.8272 46.0087 38.9141 46.357 38.8272C46.7924 38.7837 47.0971 38.0445 47.2277 36.8272L47.4454 34.8706L52.2344 32.088C56.7622 29.4359 57.1105 29.3054 58.4165 29.8272C59.2002 30.088 60.0274 30.175 60.2886 30.0445C60.5498 29.8706 60.724 27.7402 60.724 25.0445V20.3054L54.9336 17.0445C51.7555 15.2185 48.9692 13.7402 48.7515 13.7402C48.4903 13.7402 46.0523 15.0445 43.3095 16.6098Z" fill="#707070"/>
<path d="M58.4108 14.651C56.234 15.7815 56.4517 16.651 59.3251 18.2597L61.589 19.5641V22.0423C61.589 24.6075 62.4162 26.2162 63.461 25.6075C66.378 23.9554 66.4215 23.8684 66.2909 20.1728L66.1603 16.651L63.5481 15.2162C62.1114 14.3902 60.7618 13.738 60.5006 13.7815C60.2829 13.7815 59.3251 14.1728 58.4108 14.651Z" fill="#707070"/>
<path d="M92.4193 17.1281L91.2003 17.8673V27.1281C91.2003 37.4325 91.4615 38.8238 93.769 39.9977C94.4655 40.389 95.8587 40.6934 96.86 40.6934C98.5144 40.6934 98.6015 40.6064 98.6015 39.389C98.6015 38.2151 98.4709 38.0847 97.2519 38.0847C96.5117 38.0847 95.5539 37.8673 95.075 37.6499C94.2914 37.2151 94.2479 36.6064 94.2479 26.7803C94.2479 21.0412 94.1172 16.3455 93.9431 16.3455C93.7254 16.3455 93.0724 16.6934 92.4193 17.1281Z" fill="#707070"/>
<path d="M103.087 17.0851C102.217 17.6503 102.086 18.1286 102.086 20.7373V23.7373H100.78C99.6044 23.7373 99.4738 23.8677 99.4738 25.0416C99.4738 26.2155 99.6044 26.346 100.78 26.346H102.086V31.9981C102.086 37.5633 102.086 37.6503 103.305 38.9981C104.306 40.1286 104.959 40.4329 106.788 40.6068L109.052 40.8242V39.4329C109.052 38.172 108.921 38.0851 107.615 38.0851C105.09 38.0851 104.698 37.2155 104.698 31.4329V26.346H106.875C109.008 26.346 109.052 26.3025 109.052 25.0416C109.052 23.7807 109.008 23.7373 106.875 23.7373H104.698V20.0416C104.698 17.9981 104.567 16.346 104.393 16.3894C104.176 16.3894 103.61 16.6938 103.087 17.0851Z" fill="#707070"/>
<path d="M77.35 24.6521C71.2549 27.6955 71.6032 36.9999 77.916 39.8694C80.2234 40.9564 82.6614 40.9129 84.9688 39.7825C86.7974 38.9129 89.0177 36.3477 89.0177 35.1738C89.0177 34.0434 86.7974 34.6086 85.3607 36.0868C82.4002 38.9999 78.0901 38.2607 76.131 34.5216C73.5188 29.5216 79.8751 24.1738 84.577 27.4781C85.0995 27.826 85.5348 28.2607 85.5348 28.4347C85.5348 28.6086 83.6628 29.6086 81.3989 30.6521L77.3065 32.5216L77.9595 33.7825C78.482 34.7825 78.7432 34.9564 79.3527 34.6521C79.7445 34.4347 82.2261 33.2607 84.7947 32.0868L89.4531 29.8694L88.9742 28.6521C87.4069 24.4781 81.7036 22.5216 77.35 24.6521Z" fill="#707070"/>
<path d="M113.403 32.2151V40.6934H114.71H116.016V35.6499C116.016 31.9977 116.19 30.2151 116.669 29.2151C117.409 27.6934 119.673 26.3455 121.458 26.3455C122.372 26.3455 122.546 26.1281 122.546 24.9977V23.6064L120.326 23.8673C119.107 24.0412 117.626 24.4325 117.06 24.8238C116.059 25.476 116.016 25.4325 116.016 24.6064C116.016 23.9107 115.711 23.7368 114.71 23.7368H113.403V32.2151Z" fill="#707070"/>
<path d="M128.643 24.391C125.595 25.7823 123.81 28.5649 123.81 31.9127C123.767 35.6084 125.508 38.304 128.861 39.8692C131.908 41.2606 135.086 40.6953 137.786 38.2606C141.747 34.6519 141.312 28.1301 136.871 25.1736C134.651 23.7388 130.95 23.391 128.643 24.391ZM134.651 27.1736C139.222 29.5214 138.526 36.0432 133.563 37.6953C132.344 38.0866 131.691 38.0432 130.167 37.4345C125.508 35.6953 125.16 29.2606 129.557 27.0866C131.473 26.1301 132.692 26.1736 134.651 27.1736Z" fill="#707070"/>
<path d="M143.443 35.912V48.0859H144.749H146.055V39.6946C146.055 30.5207 146.316 29.2598 148.797 27.4772C150.452 26.2598 153.412 26.2598 155.067 27.4772C156.808 28.7381 157.984 31.2598 157.635 33.0859C157.026 36.3468 153.325 38.7381 150.452 37.7381C149.276 37.3033 149.015 37.3903 148.449 38.2164C147.535 39.5207 147.578 39.6946 149.363 40.2598C154.196 41.8685 159.551 38.3903 160.247 33.2164C161.162 26.5207 153.761 21.4772 147.927 24.8251L146.055 25.8685V24.7816C146.055 23.912 145.837 23.7381 144.749 23.7381H143.443V35.912Z" fill="#707070"/>
<path d="M160.686 24.6923C160.817 25.214 162.427 28.8662 164.169 32.8227L167.391 39.9531L166.476 41.3879C165.388 43.1705 163.516 44.5183 161.513 45.0836C160.207 45.4749 159.989 45.6923 159.989 46.8227C159.989 48.0836 160.033 48.127 161.426 47.8662C164.648 47.1705 167.739 44.7357 169.306 41.6488C169.611 40.9966 171.004 36.9966 172.354 32.7792C173.703 28.5183 174.922 24.7357 175.096 24.3879C175.314 23.8227 175.096 23.6923 173.921 23.8227C172.484 23.9531 172.441 23.9531 170.612 29.5618C169.567 32.6488 168.653 35.214 168.566 35.3444C168.479 35.4314 167.216 32.8662 165.823 29.6053C163.255 23.7792 163.255 23.7357 161.818 23.7357C160.512 23.7357 160.381 23.8227 160.686 24.6923Z" fill="#707070"/>
<path d="M52.8831 33.2163L48.7472 35.6946V40.6946V45.6511L52.6655 47.9554C54.8423 49.2163 56.8885 50.2598 57.2368 50.2598C57.585 50.2598 59.6748 49.2163 61.8081 47.9554L65.7263 45.6511V40.6511V35.6946L61.5904 33.2163C59.3265 31.825 57.3674 30.738 57.2368 30.738C57.1061 30.738 55.147 31.825 52.8831 33.2163Z" fill="#707070"/>
</svg>
