<svg width="212" height="64" viewBox="0 0 212 64" fill="none" xmlns="http://www.w3.org/2000/svg">
<path d="M155.531 28.235L156.649 26.6074H167.399L166.359 28.235H163.441C163.441 28.235 164.115 28.9794 164.202 29.6263C164.222 29.7953 164.252 29.963 164.292 30.1284C164.382 30.474 164.448 31.2331 163.941 32.5565C163.941 32.5565 163.222 35.2149 158.767 35.4719L164.939 42.9747L162.303 43.1017L156.089 35.7466L156.13 34.249C156.13 34.249 158.027 34.7216 160.484 33.738C160.484 33.738 162.105 32.7514 162.003 31.3336C162.003 31.3336 162.383 29.5819 160.226 28.4772C160.226 28.4772 158.488 27.9337 155.531 28.235Z" fill="#707070" stroke="#707070" stroke-width="1.57538" stroke-miterlimit="10"/>
<path d="M168.852 28.235L169.969 26.6074H180.719L179.68 28.235H176.761C176.761 28.235 177.435 28.9794 177.522 29.6263C177.542 29.7953 177.572 29.963 177.612 30.1284C177.702 30.474 177.768 31.2331 177.262 32.5565C177.262 32.5565 176.543 35.2149 172.087 35.4719L178.259 42.9747L175.623 43.1017L169.409 35.7466L169.451 34.249C169.451 34.249 171.347 34.7216 173.804 33.738C173.804 33.738 175.425 32.7514 175.323 31.3336C175.323 31.3336 175.704 29.5819 173.546 28.4772C173.546 28.4772 171.809 27.9337 168.852 28.235Z" fill="#707070" stroke="#707070" stroke-width="1.57538" stroke-miterlimit="10"/>
<path d="M32.9545 20.9231C33.4414 20.5042 34.0656 20.2734 34.7118 20.2734C35.3579 20.2734 35.9822 20.5042 36.469 20.9231C36.9143 21.4055 37.161 22.0343 37.161 22.6865C37.161 23.3388 36.9143 23.9676 36.469 24.45C35.9813 24.8671 35.3574 25.0967 34.7118 25.0967C34.0661 25.0967 33.4422 24.8671 32.9545 24.45C32.5111 23.9666 32.2656 23.3382 32.2656 22.6865C32.2656 22.0348 32.5111 21.4064 32.9545 20.9231ZM32.4242 26.5826H37.0023V43.7799H32.4242V26.5826Z" fill="#707070"/>
<path d="M49.7414 26.2227C50.5264 26.2219 51.3038 26.3748 52.0285 26.6724C52.7531 26.9701 53.4107 27.4065 53.963 27.9566C55.1854 29.1125 55.7966 30.6377 55.7966 32.5321V43.7921H51.2155V34.4196C51.2155 31.7198 50.2118 30.3689 48.2044 30.3669C47.3097 30.3452 46.426 30.5648 45.6487 31.002C44.9486 31.3985 44.4025 32.0139 44.0967 32.7507V43.7921H39.5156V26.5948H44.0967V28.9579C44.7774 28.1034 45.653 27.4192 46.6524 26.9611C47.6129 26.4898 48.6686 26.2375 49.7414 26.2227Z" fill="#707070"/>
<path d="M57.2031 26.5938H61.7842L65.3616 37.0799L68.906 26.5938H73.4871L67.6207 43.791H63.0396L57.2031 26.5938Z" fill="#707070"/>
<path d="M82.2436 26.2218C83.3096 26.1975 84.3695 26.3866 85.3592 26.7775C86.349 27.1684 87.2481 27.7531 88.0022 28.4962C89.5602 30.0106 90.3392 32.1767 90.3392 34.9947C90.3462 35.4701 90.3252 35.9455 90.2763 36.4184H77.7854C77.9485 37.4707 78.4885 38.4305 79.3074 39.1242C80.1081 39.7925 81.1288 40.1497 82.1777 40.1285C82.9372 40.1563 83.69 39.9783 84.354 39.6137C85.018 39.2491 85.5679 38.712 85.9439 38.0608L89.8658 40.0074C89.0904 41.2902 87.9857 42.3488 86.6629 43.0764C85.2893 43.8285 83.7398 44.2124 82.1687 44.19C80.9828 44.2202 79.8032 44.0107 78.7025 43.5743C77.6019 43.1379 76.6035 42.4839 75.769 41.6526C74.0552 39.963 73.1973 37.8087 73.1953 35.1896C73.1933 32.5706 74.0622 30.4211 75.802 28.7414C76.6473 27.9141 77.6539 27.2643 78.7611 26.8313C79.8683 26.3982 81.0529 26.1909 82.2436 26.2218ZM82.1807 30.2449C81.3089 30.237 80.4553 30.4904 79.7329 30.9715C78.999 31.4599 78.4311 32.1546 78.103 32.9654H85.7581C85.7324 32.2688 85.4338 31.6092 84.9252 31.1251C84.3699 30.5383 83.4541 30.2449 82.1777 30.2449H82.1807Z" fill="#707070"/>
<path d="M105.835 38.7201C105.835 40.5338 105.213 41.8995 103.969 42.8171C102.724 43.7348 100.983 44.1936 98.7464 44.1936C97.5105 44.1963 96.2802 44.0293 95.0911 43.6974C94.1885 43.479 93.3184 43.1464 92.5024 42.7078L91.6875 42.2145L93.5691 38.7497C93.7369 38.8531 93.9765 38.9919 94.2911 39.1662C94.8748 39.4483 95.4836 39.6767 96.1098 39.8485C96.962 40.1189 97.8511 40.2594 98.7464 40.265C99.792 40.265 100.496 40.1321 100.865 39.8633C101.039 39.7414 101.181 39.579 101.276 39.3904C101.372 39.2019 101.419 38.9929 101.413 38.7822C101.413 38.3273 101.093 37.9403 100.454 37.6213C99.709 37.2596 98.933 36.9631 98.1352 36.7352C97.2243 36.4693 96.3145 36.1601 95.4057 35.8076C94.515 35.4724 93.7187 34.9315 93.0837 34.2303C92.4436 33.5266 92.1006 32.6083 92.1249 31.6634C92.1249 29.9324 92.7841 28.5924 94.1024 27.6432C95.4832 26.6752 97.1456 26.1756 98.8393 26.2195C99.9524 26.2172 101.059 26.3897 102.117 26.7305C102.935 26.9595 103.712 27.309 104.424 27.7673L105.146 28.2606L103.348 31.6014C103.202 31.498 103.004 31.371 102.749 31.2144C102.247 30.9571 101.723 30.7455 101.182 30.5823C100.425 30.3207 99.6294 30.185 98.8273 30.1806C97.3292 30.1806 96.5682 30.6118 96.5682 31.4773C96.5682 31.8278 96.8878 32.1429 97.527 32.4225C98.2817 32.7432 99.0562 33.0164 99.846 33.2408C100.769 33.514 101.675 33.8394 102.56 34.2155C103.458 34.596 104.25 35.1848 104.867 35.9317C105.518 36.7171 105.861 37.7065 105.835 38.7201Z" fill="#707070"/>
<path d="M109.511 21.9238H113.933V26.5939H118.451V30.7292H113.927V36.7905C113.925 37.204 113.947 37.6172 113.993 38.0282C114.034 38.3871 114.118 38.74 114.242 39.0798C114.347 39.4048 114.558 39.687 114.841 39.8832C115.149 40.0799 115.511 40.1779 115.878 40.1638C116.347 40.1661 116.814 40.0871 117.256 39.9305C117.597 39.8287 117.917 39.6666 118.2 39.4519L118.499 39.2363L119.943 42.5151C119.793 42.681 119.631 42.836 119.458 42.9788C119 43.2858 118.505 43.5349 117.984 43.7203C116.288 44.3597 114.409 44.3375 112.729 43.6582C112.037 43.3702 111.428 42.9188 110.955 42.3438C110.502 41.7231 110.177 41.0205 109.999 40.2761C109.782 39.4973 109.64 38.7002 109.574 37.8953C109.524 37.1627 109.498 36.2608 109.496 35.1895V30.7381H106.641V26.6027H109.511V21.9238Z" fill="#707070"/>
<path d="M121.234 20.4375H125.815V34.616L132.152 26.6051H137.518L130.897 34.4003L137.926 43.8024H132.832L128.317 37.431L125.806 40.3848V43.7877H121.234V20.4375Z" fill="#707070"/>
<path d="M147.369 26.2224C148.159 26.2035 148.945 26.3403 149.681 26.6249C150.416 26.9095 151.087 27.336 151.653 27.8795C152.812 28.9803 153.392 30.7064 153.394 33.0576V43.7919H148.813V41.6002C147.537 43.335 145.696 44.2015 143.291 44.1995C141.908 44.2146 140.561 43.7657 139.471 42.9264C138.923 42.516 138.484 41.9807 138.192 41.3665C137.9 40.7523 137.763 40.0773 137.793 39.3995C137.793 37.4008 138.492 35.8805 139.89 34.8388C141.364 33.7724 143.157 33.2224 144.984 33.2762H148.843V33.0901C148.843 31.2765 148.044 30.3686 146.446 30.3667C145.623 30.3683 144.804 30.4836 144.013 30.7093C143.39 30.8675 142.786 31.0955 142.215 31.3887L141.616 31.7284L139.89 28.4201C139.974 28.3581 140.091 28.2813 140.238 28.1867C140.385 28.0922 140.702 27.9209 141.194 27.661C141.695 27.3995 142.213 27.1725 142.746 26.9816C143.421 26.7521 144.113 26.5763 144.816 26.4558C145.658 26.3004 146.512 26.2222 147.369 26.2224ZM145.164 36.2832C143.322 36.2832 142.401 37.0877 142.401 38.6965C142.387 38.9902 142.44 39.2833 142.557 39.5538C142.674 39.8244 142.851 40.0655 143.075 40.2591C143.627 40.6733 144.313 40.8768 145.005 40.8322C145.539 40.8319 146.066 40.7035 146.539 40.458C147.011 40.2126 147.417 39.8574 147.719 39.4232C148.44 38.4858 148.801 37.5938 148.801 36.747V36.2832H145.164Z" fill="#707070"/>
</svg>
