<svg width="212" height="64" viewBox="0 0 212 64" fill="none" xmlns="http://www.w3.org/2000/svg">
<path d="M90.1875 31.6804V47.1094H92.9838H95.7801V31.6804V16.2514H92.9838H90.1875V31.6804Z" fill="#707070"/>
<path d="M126.812 30.8978V45.4305L127.134 45.5928C128.513 46.2897 129.813 46.7933 131.173 47.1608C131.985 47.378 133.079 47.569 134.06 47.6644C136.202 47.8673 137.843 47.7146 139.543 47.1513C140.471 46.8458 141.205 46.4902 142.051 45.9412C143.938 44.7145 145.414 42.848 146.213 40.6785C146.955 38.6689 147.223 36.5018 146.969 34.5494C146.849 33.6138 146.566 32.5374 146.199 31.6257C145.648 30.2533 144.742 28.8881 143.781 27.9883C142.278 26.5802 140.546 25.8522 138.698 25.8546C137.572 25.8546 136.393 26.0432 135.168 26.4203C134.794 26.5348 134.183 26.7568 134.149 26.7902C134.127 26.8117 134.318 27.2031 134.615 27.7354C135.268 28.912 135.934 29.5302 136.751 29.7163C136.857 29.7402 137.082 29.7545 137.459 29.7593C137.959 29.7664 138.031 29.7736 138.241 29.8285C138.712 29.9526 139.053 30.1531 139.435 30.5254C139.983 31.0624 140.345 31.6758 140.655 32.5923C141.126 33.9909 141.261 36.1557 140.99 38.0102C140.771 39.521 140.377 40.6308 139.7 41.6523C139.113 42.5378 138.258 43.2156 137.331 43.5306C136.775 43.7216 136.301 43.7765 135.449 43.7526C134.316 43.7216 133.622 43.6404 132.75 43.4376L132.369 43.3469V29.8548V16.3626H129.591H126.812V30.8978Z" fill="#707070"/>
<path d="M101.117 33.9948C101.124 41.2485 101.126 41.8781 101.165 42.151C101.291 43.0583 101.499 43.7645 101.845 44.4635C102.775 46.3356 104.429 47.4608 106.506 47.6355C107.193 47.693 108.438 47.5541 109.426 47.3099C110.033 47.1591 111.06 46.8024 111.835 46.4721C112.212 46.3093 113.19 45.8353 113.19 45.8113C113.19 45.785 112.626 44.8777 112.517 44.7269C112.004 44.0207 111.401 43.4964 110.924 43.336C110.748 43.2785 110.714 43.2737 110.467 43.2881C110.167 43.3025 109.941 43.3408 109.535 43.4365C109.276 43.4988 109.22 43.5036 108.736 43.506C108.128 43.506 107.956 43.4772 107.641 43.3216C107.208 43.1062 106.942 42.6896 106.76 41.9379C106.717 41.768 106.714 41.373 106.709 33.9469L106.702 26.1379H103.906H101.109L101.117 33.9948Z" fill="#707070"/>
<path d="M114.477 34.6058C114.477 40.289 114.484 43.1665 114.501 43.3509C114.561 43.9877 114.726 44.7561 114.9 45.1942C115.159 45.8454 115.508 46.4367 115.939 46.9466L116.074 47.1094H118.372H120.67L120.638 46.9681C120.362 45.8095 120.171 44.4521 120.093 43.1474C120.079 42.8936 120.069 39.6163 120.069 34.4382V26.1384H117.273H114.477V34.6058Z" fill="#707070"/>
<path d="M74.587 28.8689C73.6887 29.7594 73.4017 32.1055 73.2056 32.4C72.6269 33.269 73.5697 31.5184 73.4148 32.6077C73.3591 33.0099 73.1496 33.848 73.2052 34.2694C73.2876 34.8798 73.8349 34.9387 74.0455 35.5156H74.6767L75.3933 34.8471C75.5289 34.7107 77.4173 32.7955 79.5914 30.5907C81.7655 28.3859 83.6273 26.497 83.729 26.3941L83.913 26.2098H80.8503H77.7877L74.587 28.8689Z" fill="#707070"/>
<path d="M64.9375 31.7741V47.1875H67.7452H70.5529V43.1817V39.1759H70.6817H70.8081L74.8678 43.1697L78.9274 47.1636H82.6199H86.3125L85.1724 46.0587C79.8147 40.8667 75.9665 36.9948 75.0695 35.8923C74.8459 35.6149 74.8313 35.5886 74.6514 35.127C74.4059 34.498 74.226 33.8069 74.1336 33.1301C74.0729 32.6948 74.0729 31.4895 74.1336 31.071C74.2236 30.442 74.3743 29.8871 74.6101 29.3084L74.7559 28.9521L72.7821 30.9059L70.8081 32.8622H70.6793H70.5529V24.6114V16.3606H67.7452H64.9375V31.7741Z" fill="#707070"/>
</svg>
