<svg width="212" height="64" viewBox="0 0 212 64" fill="none" xmlns="http://www.w3.org/2000/svg">
<g clip-path="url(#clip0_2785_12992)">
<path d="M51.343 12.3425C50.9022 12.5165 50.2527 13.1661 50.0149 13.6706C49.9163 13.8794 49.8119 14.2042 49.7713 14.3956C49.7249 14.6508 49.7133 17.2954 49.7249 24.081C49.7423 32.589 49.7539 33.4416 49.8409 33.6852C50.1773 34.6363 50.8094 35.2743 51.6794 35.5352C52.0505 35.6512 52.1955 35.6512 56.8468 35.6396L61.6315 35.6222L61.9447 35.4598C62.3449 35.2453 62.7451 34.8335 62.9306 34.4333C63.1974 33.8475 63.1568 32.7224 62.8437 32.0729C62.6291 31.6263 62.1535 31.2145 61.6779 31.0695C61.3184 30.9593 61.1502 30.9535 58.059 30.9535H54.817V22.8398C54.817 17.6898 54.7938 14.616 54.759 14.4188C54.6082 13.5894 53.8774 12.6731 53.1525 12.3889C52.6537 12.1975 51.7722 12.1743 51.343 12.3425Z" fill="#707070"/>
<path d="M68.7488 12.4565C67.9949 12.5841 67.3105 13.106 66.9567 13.831C66.7421 14.2659 66.7363 14.2833 66.7363 14.9387C66.7363 15.5709 66.7479 15.6347 66.9161 15.9942C67.2699 16.7366 67.8905 17.2412 68.6676 17.4151C69.9957 17.7109 71.3296 16.9106 71.666 15.6115C72.043 14.1384 71.1209 12.6942 69.6304 12.4507C69.2418 12.3869 69.178 12.3869 68.7488 12.4565Z" fill="#707070"/>
<path d="M93.9755 12.4615C93.094 12.6065 92.3052 13.3082 92.021 14.184C91.9457 14.4217 91.9283 14.6363 91.9457 15.0829C91.9631 15.6107 91.9863 15.7151 92.1602 16.063C92.398 16.5386 92.9026 17.0374 93.355 17.2462C95.2166 18.0987 97.2755 16.5386 96.9333 14.5377C96.7535 13.488 95.9996 12.6993 94.9673 12.4847C94.5265 12.3919 94.4221 12.3861 93.9755 12.4615Z" fill="#707070"/>
<path d="M152.713 16.9497V17.2687H153.264H153.815L153.826 18.8172L153.844 20.3715L154.238 20.3889L154.627 20.4062V18.8346V17.2687H155.178H155.729V16.9497V16.6307H154.221H152.713V16.9497Z" fill="#707070"/>
<path d="M156.314 18.5156V20.4005H156.662H157.01L157.022 18.9911L157.039 17.5876L157.393 18.9795L157.741 20.3715L158.118 20.3889L158.489 20.4062L158.837 19.0259L159.185 17.6456L159.203 19.0259L159.214 20.4062L159.58 20.3889L159.939 20.3715L159.957 18.4982L159.968 16.6249L159.377 16.6423L158.779 16.6597L158.478 17.808C158.315 18.4344 158.17 18.9853 158.153 19.0259C158.124 19.1129 158.066 18.9215 157.73 17.6572L157.457 16.6307H156.889H156.314V18.5156Z" fill="#707070"/>
<path d="M107.532 20.309C105.781 20.5816 104.331 21.2718 103.026 22.4491C102.301 23.1103 101.506 24.2876 101.106 25.3083C99.9637 28.2081 100.631 31.4037 102.846 33.6134C103.965 34.7385 105.444 35.5215 107.074 35.8578C107.312 35.9042 107.979 35.9622 108.553 35.9796C109.452 36.0086 109.695 35.9912 110.316 35.8868C112.085 35.5853 113.593 34.8197 114.817 33.5902C115.721 32.6912 116.365 31.6531 116.719 30.5106C117.015 29.5768 117.078 29.1361 117.078 28.0805C117.078 26.9902 116.962 26.3116 116.643 25.4359C115.611 22.6521 113.03 20.6628 109.945 20.2858C109.26 20.2046 108.153 20.2162 107.532 20.309ZM109.579 24.6936C110.565 24.9023 111.447 25.6563 111.94 26.7234C112.369 27.6456 112.288 29.1477 111.76 30.1568C111.517 30.615 110.971 31.1601 110.513 31.4037C109.771 31.7923 108.646 31.9373 107.938 31.7285C107.097 31.4791 106.279 30.8122 105.868 30.0408C105.491 29.3275 105.34 28.1907 105.514 27.344C105.752 26.1841 106.83 25.0241 107.95 24.7226C108.327 24.6182 109.156 24.6066 109.579 24.6936Z" fill="#707070"/>
<path d="M68.7408 20.4027C68.0854 20.5303 67.4069 21.0059 67.0705 21.5627C66.6935 22.1948 66.7051 21.986 66.7051 28.1685C66.7051 32.7212 66.7225 33.8231 66.7863 34.0609C66.9777 34.78 67.4997 35.3948 68.1956 35.7254C68.561 35.8994 68.6306 35.911 69.199 35.9052C69.9239 35.9052 70.2661 35.795 70.7707 35.3948C71.1302 35.1106 71.397 34.751 71.5884 34.2639L71.7218 33.9391L71.7392 28.3424C71.7566 22.0556 71.7682 22.218 71.3506 21.5743C70.9447 20.9421 70.3415 20.5303 69.6397 20.4027C69.2512 20.3332 69.1062 20.3332 68.7408 20.4027Z" fill="#707070"/>
<path d="M93.9693 20.4015C93.0124 20.5871 92.183 21.4338 91.9974 22.4198C91.9627 22.617 91.9395 24.7164 91.9395 28.1788C91.9395 32.9461 91.9511 33.6769 92.0322 34.0306C92.2004 34.773 92.8152 35.4805 93.546 35.7705C94.0215 35.9619 94.8915 35.9619 95.3786 35.7705C96.005 35.5211 96.556 34.976 96.8227 34.3148L96.9561 33.9958L96.9735 28.3702C96.9851 24.3163 96.9735 22.646 96.9271 22.3966C96.8343 21.9268 96.6256 21.5382 96.2544 21.1497C95.8716 20.7495 95.4946 20.5349 94.9727 20.4247C94.5319 20.3319 94.3521 20.3261 93.9693 20.4015Z" fill="#707070"/>
<path d="M122.506 20.4328C121.555 20.688 120.812 21.4767 120.638 22.4047C120.598 22.6192 120.586 24.0402 120.604 26.5108C120.627 29.5614 120.644 30.3734 120.72 30.7561C121.01 32.3046 121.514 33.337 122.396 34.1779C123.561 35.2972 125.411 35.9062 127.865 35.9816C130.544 36.0628 132.806 35.4016 134.111 34.1547C134.917 33.3892 135.369 32.496 135.683 31.0693C135.793 30.5473 135.804 30.298 135.822 26.4992C135.851 22.0625 135.851 22.1263 135.485 21.5463C134.581 20.1312 132.678 19.9572 131.547 21.1983C131.246 21.5231 131.008 21.9639 130.915 22.3757C130.875 22.5323 130.852 23.8836 130.852 25.8264C130.852 27.8795 130.828 29.138 130.788 29.3642C130.625 30.2632 129.999 30.9823 129.141 31.2723C128.984 31.3245 128.619 31.3941 128.34 31.4289C127.876 31.4811 127.795 31.4753 127.453 31.3651C126.502 31.0519 125.835 30.3328 125.638 29.399C125.597 29.196 125.574 28.0187 125.574 25.8902C125.574 22.4105 125.556 22.2423 125.243 21.6623C125.04 21.2911 124.489 20.775 124.107 20.601C123.544 20.34 123.039 20.2878 122.506 20.4328Z" fill="#707070"/>
<path d="M145.722 20.374C144.261 20.5248 143.008 20.9366 142.039 21.5919C141.541 21.9225 140.862 22.6243 140.572 23.1056C139.749 24.457 139.853 26.1852 140.833 27.4612C141.477 28.2963 142.753 28.8937 145.235 29.5258C146.621 29.8738 147.004 30.0884 147.224 30.6162C147.375 30.9757 147.346 31.2251 147.126 31.4455C146.639 31.9327 145.879 31.8689 143.681 31.1671C143.043 30.9583 142.318 30.7553 142.08 30.7206C140.972 30.5408 139.952 31.0569 139.609 31.9559C139.29 32.82 139.586 33.5682 140.561 34.3453C141.784 35.3197 143.756 35.8242 146.325 35.8242C147.769 35.8242 148.86 35.6038 149.898 35.1051C150.547 34.7919 151.011 34.4439 151.562 33.8581C152.055 33.3304 152.316 32.9186 152.514 32.3502C153.007 30.9293 152.676 29.3866 151.644 28.2963C150.808 27.4148 149.846 26.945 147.305 26.1678C145.728 25.6865 145.287 25.3907 145.287 24.8165C145.287 24.5961 145.316 24.5266 145.508 24.341C145.96 23.8886 146.61 23.8828 148.396 24.3294C149.823 24.6889 150.356 24.7643 150.82 24.6889C151.736 24.5382 152.322 23.877 152.316 23.0013C152.316 22.4967 152.154 22.1313 151.783 21.7833C151.209 21.2498 149.944 20.7278 148.651 20.5074C148.007 20.3972 146.273 20.316 145.722 20.374Z" fill="#707070"/>
<path d="M81.8529 20.5774C78.9299 20.9717 76.7086 22.8682 75.7227 25.8028C75.4559 26.6148 75.3457 27.2875 75.3457 28.1691C75.3457 29.0216 75.4443 29.677 75.6995 30.4773C76.0939 31.7185 76.7724 32.8436 77.6656 33.7425C78.6863 34.7749 79.8172 35.3722 81.4179 35.7202C82.2183 35.8884 84.0336 35.9348 84.9905 35.8014C87.5597 35.4418 88.7487 34.3573 88.3717 32.7276C88.0353 31.2835 87.003 30.8253 85.1181 31.2951C83.2564 31.7533 82.2531 31.6721 81.2903 30.9819C80.635 30.5179 80.2348 29.938 80.0434 29.1782C79.823 28.3199 79.9332 27.247 80.316 26.5278C80.403 26.3596 80.6582 26.0406 80.8844 25.8144C81.8703 24.8111 83.0708 24.6255 85.1761 25.1533C86.7188 25.5361 87.2118 25.4781 87.8439 24.8401C88.3543 24.3297 88.4877 23.8542 88.3311 23.1118C88.0643 21.8475 87.0494 21.0703 85.1471 20.676C84.4975 20.5426 82.5431 20.4846 81.8529 20.5774Z" fill="#707070"/>
<path d="M93.5921 38.3364C92.7105 38.6322 92.3162 39.0208 91.7768 40.1285C91.1098 41.5146 90.6053 42.2454 89.6773 43.2139C88.7378 44.1883 87.7344 44.919 86.5745 45.4874C82.4104 47.5057 77.4691 46.7227 74.1459 43.5155C73.1368 42.547 72.435 41.561 71.7855 40.2213C71.3795 39.3804 71.1069 39.0208 70.6719 38.725C69.7962 38.1508 68.5029 38.1914 67.6677 38.8294C67.053 39.2992 66.7166 39.9371 66.6702 40.7549C66.6412 41.184 66.6586 41.3058 66.792 41.706C67.1458 42.7557 68.2303 44.6116 69.1814 45.8006C69.7382 46.4965 70.9213 47.668 71.6405 48.2364C73.6703 49.8487 76.0308 50.9506 78.542 51.4494C79.5802 51.6582 80.1195 51.7162 81.2679 51.7568C83.3615 51.8264 85.4842 51.4842 87.4561 50.7592C88.8596 50.2431 90.6865 49.1991 91.9392 48.2016C92.6177 47.6622 93.9169 46.3515 94.433 45.6846C95.129 44.7856 95.7495 43.7997 96.2367 42.8137C96.8225 41.6364 96.8863 41.416 96.8573 40.7027C96.8399 40.2271 96.8109 40.0879 96.6543 39.7515C96.3991 39.2122 95.9699 38.7714 95.4364 38.5104C95.042 38.319 94.9608 38.2958 94.4156 38.2784C94.0271 38.2668 93.7429 38.29 93.5921 38.3364Z" fill="#707070"/>
<path d="M106.401 41.0642C105.485 41.3715 104.847 42.0907 104.678 43.0128C104.487 44.0278 105.079 45.1181 106.065 45.5878C106.43 45.7618 106.505 45.7734 107.068 45.7734C107.63 45.7734 107.706 45.7618 108.071 45.5878C109.608 44.8571 109.968 42.8968 108.784 41.7079C108.309 41.2381 107.828 41.0294 107.155 41.0062C106.836 40.9946 106.546 41.0178 106.401 41.0642ZM107.677 42.3691C108.199 42.7286 108.355 43.4768 108.031 44.0278C107.567 44.8165 106.569 44.8223 106.105 44.0336C105.891 43.6566 105.885 43.1346 106.105 42.7634C106.459 42.1603 107.132 41.9863 107.677 42.3691Z" fill="#707070"/>
<path d="M127.69 41.0642C126.774 41.3715 126.136 42.0907 125.967 43.0128C125.776 44.0278 126.368 45.1181 127.354 45.5878C127.719 45.7618 127.794 45.7734 128.357 45.7734C128.919 45.7734 128.995 45.7618 129.36 45.5878C130.897 44.8571 131.257 42.8968 130.074 41.7079C129.598 41.2381 129.117 41.0294 128.444 41.0062C128.125 40.9946 127.835 41.0178 127.69 41.0642ZM128.966 42.3691C129.488 42.7286 129.644 43.4768 129.32 44.0278C128.856 44.8165 127.858 44.8223 127.394 44.0336C127.18 43.6566 127.174 43.1346 127.394 42.7634C127.748 42.1603 128.421 41.9863 128.966 42.3691Z" fill="#707070"/>
<path d="M100.428 41.1176C100.41 41.1524 100.405 42.208 100.41 43.4491L100.428 45.7109H101.82C103.2 45.7109 103.217 45.7109 103.502 45.5601C103.676 45.4732 103.861 45.3166 103.96 45.1716C104.105 44.9686 104.134 44.8642 104.157 44.4698C104.18 44.0464 104.169 43.9826 104.029 43.7449C103.942 43.5999 103.832 43.4549 103.774 43.4259C103.507 43.2693 103.507 43.2693 103.722 43.0431C103.983 42.7763 104.076 42.4979 104.029 42.1616C103.96 41.6454 103.676 41.309 103.159 41.135C102.806 41.0132 100.468 40.9958 100.428 41.1176ZM102.568 42.295C102.62 42.3414 102.661 42.4457 102.661 42.5211C102.661 42.7473 102.516 42.8401 102.168 42.8401C101.721 42.8401 101.675 42.8111 101.675 42.5211C101.675 42.2312 101.704 42.2138 102.15 42.208C102.376 42.2022 102.504 42.2312 102.568 42.295ZM102.719 44C102.782 44.0638 102.835 44.1682 102.835 44.232C102.835 44.464 102.632 44.58 102.231 44.58C101.704 44.58 101.675 44.5626 101.675 44.232C101.675 44.0638 101.704 43.9421 101.75 43.9247C101.785 43.9073 101.994 43.8899 102.214 43.8899C102.527 43.8841 102.626 43.9073 102.719 44Z" fill="#707070"/>
<path d="M110.178 41.1192C110.16 41.154 110.155 42.2095 110.16 43.4506L110.178 45.7125L110.752 45.7299C111.175 45.7415 111.344 45.7241 111.378 45.6719C111.402 45.6313 111.425 45.3413 111.425 45.0281C111.425 44.5816 111.442 44.454 111.512 44.4308C111.721 44.3496 111.889 44.4772 112.266 44.9933C112.857 45.7937 112.764 45.7415 113.571 45.7415C114.162 45.7415 114.267 45.7299 114.267 45.6487C114.267 45.6023 114.046 45.2775 113.774 44.9353C113.501 44.5874 113.281 44.2742 113.281 44.2336C113.281 44.193 113.397 44.0306 113.542 43.874C114.325 43.0041 114.006 41.5541 112.944 41.1598C112.677 41.0554 112.492 41.0438 111.419 41.0438C110.497 41.0438 110.195 41.0612 110.178 41.1192ZM112.428 42.2675C112.672 42.3777 112.776 42.7605 112.619 42.9693C112.509 43.1143 112.271 43.1896 111.918 43.1896C111.436 43.1896 111.425 43.178 111.425 42.6967C111.425 42.4125 111.448 42.2617 111.5 42.2443C111.634 42.1863 112.289 42.2037 112.428 42.2675Z" fill="#707070"/>
<path d="M114.756 41.1145C114.739 41.1551 114.733 42.2106 114.739 43.4517L114.756 45.7135L115.33 45.7309C115.753 45.7425 115.922 45.7251 115.956 45.6729C115.98 45.6323 116.003 45.064 116.003 44.4086C116.003 43.3357 116.009 43.2313 116.096 43.3125C116.142 43.3647 116.554 43.9215 117.006 44.5594L117.836 45.7135L118.439 45.7309C118.879 45.7425 119.053 45.7251 119.088 45.6729C119.146 45.5744 119.146 41.213 119.088 41.1145C119.053 41.0623 118.885 41.0449 118.462 41.0565L117.888 41.0739L117.87 42.3034C117.865 42.9819 117.836 43.5387 117.812 43.5387C117.789 43.5387 117.377 42.9819 116.902 42.3034L116.032 41.0739L115.405 41.0565C114.941 41.0449 114.773 41.0623 114.756 41.1145Z" fill="#707070"/>
<path d="M122.067 41.1367C122.015 41.2643 122.026 42.0473 122.079 42.1285C122.108 42.1749 122.322 42.2039 122.67 42.2155L123.221 42.2329L123.25 43.9727C123.268 44.9297 123.291 45.7184 123.297 45.73C123.302 45.7358 123.575 45.7358 123.906 45.73L124.497 45.7126L124.514 44.0365C124.52 42.9462 124.549 42.3314 124.59 42.2851C124.63 42.2329 124.839 42.2039 125.181 42.1923L125.715 42.1749V41.6239V41.0729L123.911 41.0555C122.299 41.0439 122.102 41.0497 122.067 41.1367Z" fill="#707070"/>
<path d="M139.865 41.1118C139.848 41.1524 139.842 42.208 139.848 43.4491L139.865 45.7109H141.605H143.345V45.16V44.609L142.243 44.5742C141.64 44.5568 141.135 44.5394 141.13 44.5336C141.118 44.5278 141.112 44.4176 141.112 44.2958C141.112 44.145 141.141 44.058 141.205 44.0348C141.257 44.0174 141.698 44.0001 142.185 44.0001C143.206 44.0001 143.142 44.0348 143.142 43.4201C143.142 42.8053 143.206 42.8401 142.185 42.8401C141.698 42.8401 141.257 42.8227 141.205 42.8053C141.141 42.7821 141.112 42.6951 141.112 42.5153C141.112 42.3762 141.118 42.2544 141.13 42.2486C141.135 42.2428 141.64 42.2254 142.243 42.208L143.345 42.1732V41.6222V41.0712L141.617 41.0538C140.265 41.0422 139.883 41.0538 139.865 41.1118Z" fill="#707070"/>
<path d="M148.223 41.1367C148.171 41.2643 148.183 42.0473 148.235 42.1285C148.264 42.1749 148.478 42.2039 148.826 42.2155L149.377 42.2329L149.406 43.9727C149.424 44.9297 149.447 45.7184 149.453 45.73C149.459 45.7358 149.731 45.7358 150.062 45.73L150.653 45.7126L150.671 44.0365C150.677 42.9462 150.706 42.3314 150.746 42.2851C150.787 42.2329 150.995 42.2039 151.338 42.1923L151.871 42.1749V41.6239V41.0729L150.068 41.0555C148.455 41.0439 148.258 41.0497 148.223 41.1367Z" fill="#707070"/>
<path d="M133.614 41.1898C133.562 41.3348 133.573 45.5859 133.626 45.6729C133.66 45.7251 133.828 45.7425 134.252 45.7309L134.826 45.7135L134.855 44.6232C134.872 43.9679 134.907 43.5329 134.942 43.5271C134.977 43.5213 135.244 43.9099 135.539 44.3854C135.934 45.0234 136.102 45.2496 136.189 45.2496C136.276 45.2496 136.444 45.0234 136.844 44.3796C137.14 43.8983 137.407 43.5155 137.436 43.5213C137.471 43.5329 137.505 43.9911 137.523 44.6232L137.552 45.7135H138.161H138.77V43.4227V41.1318L138.277 41.1144C138.004 41.1028 137.726 41.1144 137.656 41.1318C137.575 41.1492 137.308 41.4914 136.879 42.1178C136.52 42.6455 136.206 43.0689 136.177 43.0631C136.154 43.0515 135.835 42.6165 135.476 42.0888L134.826 41.1318L134.24 41.1144C133.741 41.1028 133.643 41.1144 133.614 41.1898Z" fill="#707070"/>
<path d="M145.545 41.1721C145.423 41.3403 143.614 45.632 143.643 45.6842C143.666 45.719 143.974 45.7422 144.345 45.7422H145.012L145.11 45.5624C145.371 45.0926 145.342 45.1042 146.166 45.1042C146.989 45.1042 146.96 45.0926 147.221 45.5624L147.32 45.7422H147.993C148.491 45.7422 148.671 45.7248 148.694 45.6668C148.718 45.5972 146.914 41.3287 146.792 41.1721C146.752 41.1257 146.549 41.1025 146.166 41.1025C145.783 41.1025 145.58 41.1257 145.545 41.1721ZM146.363 43.4513C146.578 43.9849 146.572 44.0023 146.201 44.0023C146.027 44.0023 145.864 43.9733 145.841 43.9385C145.8 43.8689 146.102 43.0744 146.172 43.0744C146.195 43.0744 146.282 43.2425 146.363 43.4513Z" fill="#707070"/>
</g>
<defs>
<clipPath id="clip0_2785_12992">
<rect width="113.027" height="40" fill="white" transform="translate(49.4863 12)"/>
</clipPath>
</defs>
</svg>
