<svg width="212" height="64" viewBox="0 0 212 64" fill="none" xmlns="http://www.w3.org/2000/svg">
<path fill-rule="evenodd" clip-rule="evenodd" d="M38.5 24.358V32.6916H40.7617H43.0229V26.4159V20.1402H45.5709C48.6881 20.1402 48.3685 19.3855 48.3685 26.7414V32.6916H50.6298H52.8914V26.7414C52.8914 19.4298 52.6251 20.1402 55.3687 20.1402C58.4502 20.1402 58.237 19.6395 58.237 26.8731V32.6916H60.4983H62.7599V25.6365C62.7599 15.0304 64.1368 16.0248 49.451 16.0248H38.5V24.358ZM83.7792 24.3068L83.8332 32.5888H86.0945H88.3562L88.4114 28.1133L88.467 23.6379H91.1928C95.0989 23.6379 94.8322 23.2827 94.8322 28.4852V32.6916H97.0938H99.3551V27.3575V22.0234L98.826 21.3943C98.0574 20.4795 97.2051 20.3153 93.6031 20.386L90.4209 20.4486L89.4399 21.7649L88.4589 23.0812V19.553V16.0248H86.0921H83.7256L83.7792 24.3068ZM102.028 18.9739C102.028 20.5961 102.084 21.9791 102.152 22.0473C102.22 22.1156 103.282 21.506 104.511 20.6929L106.747 19.2141L106.752 17.6194L106.756 16.0248H104.392H102.028V18.9739ZM138.623 18.1855V20.3458L134.049 20.3462C127.093 20.3466 127.213 20.2345 127.213 26.7357V31.2437L127.885 31.9162L128.557 32.5888H135.903H143.249L143.303 24.3068L143.356 16.0248H140.99H138.623V18.1855ZM67.8436 20.4885C67.6434 20.5409 67.0161 21.2707 66.4497 22.1107L65.4199 23.6379H70.623C77.2318 23.6379 76.74 23.3725 76.74 26.9417V29.6052H73.0394H69.3387V28.8042C69.3387 27.7777 69.4138 27.7533 72.5525 27.7533H75.1159L75.0541 26.5699L74.9924 25.3869L70.8808 25.3288C65.0894 25.2463 65.2271 25.1582 65.2271 28.968C65.2271 32.9013 64.7345 32.6916 73.9745 32.6916H81.2634L81.2626 27.4961C81.2613 19.965 81.6576 20.334 73.6115 20.3698C70.6396 20.3828 68.0442 20.4364 67.8436 20.4885ZM109.429 26.5187V32.6916H111.691H113.952V28.1645V23.6379H116.5C120.12 23.6379 119.901 23.3323 119.965 28.4734L120.017 32.5888H122.279H124.54L124.593 27.6505C124.676 19.9898 125.095 20.3458 115.978 20.3458H109.429V26.5187ZM146.657 20.8786L146.025 21.4113V27.0515V32.6916H148.286H150.548V28.5762C150.548 23.4436 150.435 23.6395 153.374 23.6346C154.477 23.633 155.495 23.5578 155.637 23.4676C155.945 23.2717 157.743 20.7481 157.743 20.5112C157.743 20.4202 155.391 20.3458 152.516 20.3458H147.29L146.657 20.8786ZM159.639 20.6665C159.224 20.9574 157.538 23.2502 157.538 23.5237C157.538 23.5867 159.855 23.6379 162.687 23.6379H167.836L168.341 24.143C168.821 24.6234 168.846 24.7692 168.846 27.1267V29.6052H165.042H161.239V28.9261C161.239 27.8313 161.453 27.7533 164.466 27.7533H167.201V26.8442C167.201 25.1923 167.472 25.2841 162.589 25.2841C157.006 25.2841 157.332 25.0513 157.332 29.0374C157.332 33.0293 156.55 32.6916 165.789 32.6916H173.163V27.3693C173.163 19.9439 173.601 20.3458 165.505 20.3458C160.94 20.3458 160.025 20.3958 159.639 20.6665ZM104.598 21.7523C101.941 23.4692 102.131 22.9767 102.131 28.1446V32.5888H104.392H106.654L106.708 26.5699C106.738 23.26 106.692 20.5527 106.605 20.5539C106.519 20.5555 105.615 21.0944 104.598 21.7523ZM138.623 25.289V29.4097L135.282 29.3528L131.942 29.2963L131.882 26.8272C131.806 23.6582 131.824 23.6379 134.74 23.6379C137.014 23.6379 137.143 23.5745 138.015 22.0221C138.278 21.5528 138.523 21.1687 138.558 21.1687C138.594 21.1687 138.623 23.023 138.623 25.289ZM101.474 35.3546C98.731 35.7906 98.2247 36.7696 98.2247 41.636C98.2247 47.0685 98.6973 47.6167 103.364 47.5992C107.394 47.5842 108.163 47.0937 108.354 44.4132L108.457 42.9795H107.222H105.988L105.879 43.9442C105.731 45.2552 105.403 45.4486 103.325 45.4486C100.764 45.4486 100.397 44.7606 100.642 40.4347C100.801 37.6393 101 37.4239 103.431 37.4239C105.155 37.4239 105.729 37.7608 105.729 38.7731V39.4818H106.962H108.196L108.195 38.5044C108.195 35.8199 105.75 34.6747 101.474 35.3546ZM112.441 35.3562C109.759 35.726 109.395 36.5014 109.473 41.6791C109.556 47.1981 109.909 47.6094 114.569 47.6089C119.187 47.6081 119.7 46.9908 119.7 41.4365C119.7 35.722 118.299 34.5488 112.441 35.3562ZM121.354 41.4365V47.5061H122.595H123.835L123.693 42.8767C123.615 40.3303 123.596 38.2472 123.651 38.2472C123.706 38.2472 124.53 40.3291 125.482 42.8734L127.213 47.4996L128.377 47.5029L129.541 47.5061L130.147 45.9115C130.481 45.0345 131.252 42.9519 131.861 41.2829C132.471 39.6143 133.016 38.2484 133.072 38.2476C133.129 38.2472 133.149 40.3299 133.116 42.8767L133.057 47.5061H134.298H135.539V41.4365V35.3664H133.534H131.529L129.988 39.6768C129.14 42.0473 128.391 43.9223 128.322 43.8434C128.254 43.7642 127.518 41.8246 126.686 39.533L125.175 35.3664H123.265H121.354V41.4365ZM136.476 36.3437C136.64 36.8814 137.503 39.5895 138.393 42.3622L140.011 47.4033L141.876 47.4622L143.741 47.5216L145.624 41.7136C146.659 38.5195 147.553 35.7845 147.61 35.6362C147.689 35.4306 147.394 35.3664 146.371 35.3664C145.037 35.3664 145.027 35.3704 144.819 36.0353C143.08 41.5905 142.049 44.7554 141.942 44.8716C141.87 44.95 141.124 42.8438 140.285 40.1905L138.759 35.3664H137.469H136.178L136.476 36.3437ZM148.492 41.4365V47.5061H149.725H150.959V41.4365V35.3664H149.725H148.492V41.4365ZM151.787 35.418C151.79 35.446 152.657 38.1545 153.711 41.4365L155.63 47.4033L157.498 47.4622L159.366 47.5216L161.249 41.7136C162.284 38.5195 163.178 35.7845 163.235 35.6362C163.314 35.4306 163.019 35.3664 161.996 35.3664C160.662 35.3664 160.652 35.3704 160.444 36.0353C158.705 41.5905 157.674 44.7554 157.567 44.8716C157.495 44.95 156.749 42.8438 155.91 40.1905L154.384 35.3664H153.083C152.367 35.3664 151.784 35.3896 151.787 35.418ZM163.826 41.282C162.742 44.5359 161.855 47.2717 161.855 47.3619C161.855 47.4521 162.426 47.4984 163.123 47.4647L164.391 47.4033L164.734 46.3748L165.077 45.3458H167.612H170.146L170.489 46.3748L170.832 47.4033L172.1 47.4647C173.654 47.5399 173.741 48.2758 171.367 41.2837L169.36 35.3692L167.577 35.368L165.796 35.3664L163.826 41.282ZM116.737 37.929C117.519 38.7113 117.519 44.1612 116.737 44.9435C116.04 45.6409 112.975 45.7059 112.308 45.037C111.836 44.5648 111.68 39.0368 112.115 38.222C112.627 37.2642 115.868 37.059 116.737 37.929ZM168.594 40.4672C169.072 41.9148 169.462 43.1648 169.462 43.2448C169.462 43.3253 168.63 43.3911 167.612 43.3911C166.594 43.3911 165.762 43.3253 165.762 43.2448C165.762 42.9303 167.504 37.8355 167.612 37.8355C167.675 37.8355 168.117 39.0197 168.594 40.4672Z" fill="#707070"/>
<g clip-path="url(#clip0_2785_13017)">
<path fill-rule="evenodd" clip-rule="evenodd" d="M38.5 24.358V32.6916H40.7617H43.0229V26.4159V20.1402H45.5709C48.6881 20.1402 48.3685 19.3855 48.3685 26.7414V32.6916H50.6298H52.8914V26.7414C52.8914 19.4298 52.6251 20.1402 55.3687 20.1402C58.4502 20.1402 58.237 19.6395 58.237 26.8731V32.6916H60.4983H62.7599V25.6365C62.7599 15.0304 64.1368 16.0248 49.451 16.0248H38.5V24.358ZM83.7792 24.3068L83.8332 32.5888H86.0945H88.3562L88.4114 28.1133L88.467 23.6379H91.1928C95.0989 23.6379 94.8322 23.2827 94.8322 28.4852V32.6916H97.0938H99.3551V27.3575V22.0233L98.826 21.3943C98.0574 20.4795 97.2051 20.3153 93.6031 20.386L90.4209 20.4486L89.4399 21.7649L88.4589 23.0812V19.553V16.0248H86.0921H83.7256L83.7792 24.3068ZM102.028 18.9739C102.028 20.5961 102.084 21.9791 102.152 22.0473C102.22 22.1156 103.282 21.506 104.511 20.6929L106.747 19.2141L106.752 17.6194L106.756 16.0248H104.392H102.028V18.9739ZM138.623 18.1855V20.3458L134.049 20.3462C127.093 20.3466 127.213 20.2345 127.213 26.7357V31.2437L127.885 31.9162L128.557 32.5888H135.903H143.249L143.303 24.3068L143.356 16.0248H140.99H138.623V18.1855ZM67.8436 20.4885C67.6434 20.5409 67.0161 21.2707 66.4497 22.1107L65.4199 23.6379H70.623C77.2318 23.6379 76.74 23.3725 76.74 26.9417V29.6052H73.0394H69.3387V28.8042C69.3387 27.7777 69.4138 27.7533 72.5525 27.7533H75.1159L75.0541 26.5699L74.9924 25.3869L70.8808 25.3288C65.0894 25.2463 65.2271 25.1582 65.2271 28.968C65.2271 32.9013 64.7345 32.6916 73.9745 32.6916H81.2634L81.2626 27.496C81.2613 19.965 81.6576 20.334 73.6115 20.3698C70.6396 20.3828 68.0442 20.4364 67.8436 20.4885ZM109.429 26.5187V32.6916H111.691H113.952V28.1645V23.6379H116.5C120.12 23.6379 119.901 23.3323 119.965 28.4734L120.017 32.5888H122.279H124.54L124.593 27.6505C124.676 19.9898 125.095 20.3458 115.978 20.3458H109.429V26.5187ZM146.657 20.8786L146.025 21.4113V27.0515V32.6916H148.286H150.548V28.5762C150.548 23.4436 150.435 23.6395 153.374 23.6346C154.477 23.633 155.495 23.5578 155.637 23.4676C155.945 23.2717 157.743 20.7481 157.743 20.5112C157.743 20.4202 155.391 20.3458 152.516 20.3458H147.29L146.657 20.8786ZM159.639 20.6665C159.224 20.9574 157.538 23.2502 157.538 23.5237C157.538 23.5867 159.855 23.6379 162.687 23.6379H167.836L168.341 24.143C168.821 24.6234 168.846 24.7692 168.846 27.1267V29.6052H165.042H161.239V28.9261C161.239 27.8313 161.453 27.7533 164.466 27.7533H167.201V26.8442C167.201 25.1923 167.472 25.2841 162.589 25.2841C157.006 25.2841 157.332 25.0513 157.332 29.0374C157.332 33.0293 156.55 32.6916 165.789 32.6916H173.163V27.3693C173.163 19.9439 173.601 20.3458 165.505 20.3458C160.94 20.3458 160.025 20.3958 159.639 20.6665ZM104.598 21.7523C101.941 23.4692 102.131 22.9767 102.131 28.1446V32.5888H104.392H106.654L106.708 26.5699C106.738 23.26 106.692 20.5527 106.605 20.5539C106.519 20.5555 105.615 21.0944 104.598 21.7523ZM138.623 25.289V29.4097L135.282 29.3528L131.942 29.2963L131.882 26.8272C131.806 23.6582 131.824 23.6379 134.74 23.6379C137.014 23.6379 137.143 23.5745 138.015 22.0221C138.278 21.5528 138.523 21.1687 138.558 21.1687C138.594 21.1687 138.623 23.023 138.623 25.289ZM101.474 35.3546C98.731 35.7906 98.2247 36.7696 98.2247 41.636C98.2247 47.0685 98.6973 47.6167 103.364 47.5992C107.394 47.5842 108.163 47.0937 108.354 44.4132L108.457 42.9795H107.222H105.988L105.879 43.9442C105.731 45.2552 105.403 45.4486 103.325 45.4486C100.764 45.4486 100.397 44.7606 100.642 40.4347C100.801 37.6393 101 37.4239 103.431 37.4239C105.155 37.4239 105.729 37.7608 105.729 38.7731V39.4818H106.962H108.196L108.195 38.5044C108.195 35.8199 105.75 34.6747 101.474 35.3546ZM112.441 35.3562C109.759 35.726 109.395 36.5014 109.473 41.6791C109.556 47.1981 109.909 47.6094 114.569 47.6089C119.187 47.6081 119.7 46.9908 119.7 41.4365C119.7 35.722 118.299 34.5488 112.441 35.3562ZM121.354 41.4365V47.5061H122.595H123.835L123.693 42.8767C123.615 40.3303 123.596 38.2472 123.651 38.2472C123.706 38.2472 124.53 40.3291 125.482 42.8734L127.213 47.4996L128.377 47.5029L129.541 47.5061L130.147 45.9115C130.481 45.0345 131.252 42.9518 131.861 41.2829C132.471 39.6143 133.016 38.2484 133.072 38.2476C133.129 38.2472 133.149 40.3299 133.116 42.8767L133.057 47.5061H134.298H135.539V41.4365V35.3664H133.534H131.529L129.988 39.6768C129.14 42.0472 128.391 43.9223 128.322 43.8434C128.254 43.7642 127.518 41.8246 126.686 39.533L125.175 35.3664H123.265H121.354V41.4365ZM136.476 36.3437C136.64 36.8814 137.503 39.5895 138.393 42.3622L140.011 47.4033L141.876 47.4622L143.741 47.5216L145.624 41.7136C146.659 38.5195 147.553 35.7845 147.61 35.6362C147.689 35.4306 147.394 35.3664 146.371 35.3664C145.037 35.3664 145.027 35.3704 144.819 36.0353C143.08 41.5905 142.049 44.7554 141.942 44.8716C141.87 44.95 141.124 42.8438 140.285 40.1905L138.759 35.3664H137.469H136.178L136.476 36.3437ZM148.492 41.4365V47.5061H149.725H150.959V41.4365V35.3664H149.725H148.492V41.4365ZM151.787 35.418C151.79 35.446 152.657 38.1545 153.711 41.4365L155.63 47.4033L157.498 47.4622L159.366 47.5216L161.249 41.7136C162.284 38.5195 163.178 35.7845 163.235 35.6362C163.314 35.4306 163.019 35.3664 161.996 35.3664C160.662 35.3664 160.652 35.3704 160.444 36.0353C158.705 41.5905 157.674 44.7554 157.567 44.8716C157.495 44.95 156.749 42.8438 155.91 40.1905L154.384 35.3664H153.083C152.367 35.3664 151.784 35.3895 151.787 35.418ZM163.826 41.282C162.742 44.5359 161.855 47.2717 161.855 47.3619C161.855 47.4521 162.426 47.4984 163.123 47.4647L164.391 47.4033L164.734 46.3748L165.077 45.3458H167.612H170.146L170.489 46.3748L170.832 47.4033L172.1 47.4647C173.654 47.5399 173.741 48.2758 171.367 41.2837L169.36 35.3692L167.577 35.368L165.796 35.3664L163.826 41.282ZM116.737 37.929C117.519 38.7113 117.519 44.1612 116.737 44.9435C116.04 45.6409 112.975 45.7059 112.308 45.037C111.836 44.5648 111.68 39.0368 112.115 38.222C112.627 37.2642 115.868 37.0589 116.737 37.929ZM168.594 40.4672C169.072 41.9148 169.462 43.1648 169.462 43.2448C169.462 43.3253 168.63 43.3911 167.612 43.3911C166.594 43.3911 165.762 43.3253 165.762 43.2448C165.762 42.9303 167.504 37.8355 167.612 37.8355C167.675 37.8355 168.117 39.0197 168.594 40.4672Z" fill="#707070"/>
</g>
<defs>
<clipPath id="clip0_2785_13017">
<rect width="135" height="17.7778" fill="white" transform="translate(38.5 16)"/>
</clipPath>
</defs>
</svg>
