<svg width="212" height="64" viewBox="0 0 212 64" fill="none" xmlns="http://www.w3.org/2000/svg">
<path d="M54.4995 31.9727V45.9458H58.2874H62.0234V40.3048V34.6638L64.9811 34.4568C67.368 34.2498 68.1463 33.9392 69.1322 32.8007C70.17 31.5586 70.3257 30.8859 70.3257 26.7457C70.3257 18.9311 69.236 17.9995 59.9997 17.9995H54.4995V31.9727ZM63.8395 26.2799C63.8395 29.0745 63.6839 29.6438 62.9574 29.7991C62.1272 29.9543 62.0234 29.5403 62.0234 26.2799C62.0234 23.0195 62.1272 22.6055 62.9574 22.7607C63.6839 22.916 63.8395 23.4853 63.8395 26.2799Z" fill="#707070"/>
<path d="M105.869 19.2933C105.143 19.9661 104.572 21.1047 104.572 21.7774C104.572 22.502 104.209 23.1747 103.793 23.3818C103.326 23.537 103.015 24.3133 103.015 25.2448C103.015 26.2799 103.275 26.7974 103.793 26.7974C104.468 26.7974 104.572 28.1947 104.572 36.3716V45.9458H108.204H111.836V36.3716C111.836 28.1947 111.94 26.7974 112.615 26.7974C113.133 26.7974 113.393 26.2281 113.393 24.9861C113.393 23.33 113.289 23.1747 111.836 23.1747C111.006 23.1747 110.28 22.916 110.28 22.6055C110.28 22.295 111.006 21.7774 111.836 21.4669C113.03 21.0012 113.393 20.5871 113.393 19.4486C113.393 17.9995 113.341 17.9995 110.28 17.9995C107.633 17.9995 106.907 18.2065 105.869 19.2933Z" fill="#707070"/>
<path d="M114.953 19.8132V21.6763L118.481 21.521L121.958 21.3658L122.113 19.6579L122.269 18.0018H118.637H114.953V19.8132Z" fill="#707070"/>
<path d="M76.7126 23.694C75.8304 24.0045 74.4813 24.9361 73.7549 25.8159C72.4577 27.3684 72.4058 27.6272 72.4058 34.355C72.4058 42.2731 72.8728 43.7739 75.7267 45.1195C77.8022 46.1028 82.9911 46.2063 84.8072 45.2747C86.8309 44.2915 88.0762 42.0661 88.3876 39.2715L88.647 36.6321H85.2224H81.7977L81.642 39.3232C81.4863 41.6521 81.3307 42.0661 80.4486 42.0661C79.5146 42.0661 79.4108 41.6521 79.2551 38.5469L79.0994 35.0795H83.8732H88.647L88.3876 31.4569C87.9725 25.9194 86.0526 23.7975 81.1231 23.4352C79.6183 23.28 77.6466 23.4352 76.7126 23.694ZM81.2269 29.3868C81.2269 31.0946 81.0712 31.4569 80.1891 31.4569C79.307 31.4569 79.1513 31.0946 79.1513 29.3868C79.1513 27.6789 79.307 27.3167 80.1891 27.3167C81.0712 27.3167 81.2269 27.6789 81.2269 29.3868Z" fill="#707070"/>
<path d="M90.562 34.5603V45.9458H93.9348H97.3076V39.4768C97.3076 33.6805 97.4114 32.9042 98.3454 31.9727C98.9161 31.4034 99.8501 30.9376 100.421 30.9376C101.355 30.9376 101.459 30.5753 101.459 27.0562C101.459 22.6572 100.836 22.1397 98.6048 24.5203L97.3076 25.9176V24.5203C97.3076 23.2265 97.2557 23.1747 93.9348 23.1747H90.562V34.5603Z" fill="#707070"/>
<path d="M114.953 34.5603V45.9458H118.585H122.217V34.5603V23.1747H118.585H114.953V34.5603Z" fill="#707070"/>
<path d="M129.737 23.6435C125.119 24.782 124.289 26.4898 124.289 35.029C124.289 42.1708 124.652 43.4646 126.987 44.9137C129.374 46.3628 134.77 46.3628 137.157 44.9137C139.907 43.2576 140.478 41.084 140.27 33.7352C140.115 27.5249 140.063 27.3696 138.61 25.8171C137.624 24.782 136.275 24.0575 134.563 23.747C131.761 23.1259 131.968 23.1259 129.737 23.6435ZM133.317 28.4564C133.473 29.1292 133.629 31.9756 133.629 34.822C133.629 37.6684 133.473 40.5147 133.317 41.1358C132.954 42.4813 131.812 42.6883 131.345 41.498C130.93 40.4112 130.93 28.0942 131.397 27.6801C132.072 26.9556 133.006 27.3696 133.317 28.4564Z" fill="#707070"/>
<path d="M146.708 23.6923C145.774 23.8993 144.424 24.6238 143.698 25.2966C142.66 26.2799 142.453 26.9527 142.453 29.4885C142.453 33.0077 143.231 34.0428 148.16 36.8374C150.755 38.2864 151.014 38.597 151.014 40.253C151.014 41.7021 150.807 42.0644 149.977 42.0644C149.146 42.0644 148.887 41.6504 148.783 40.0978L148.627 38.1829H145.514H142.453V39.839C142.453 43.824 145.255 45.9458 150.392 45.9458C153.661 45.9458 156.099 44.9625 156.982 43.4099C157.241 42.8407 157.5 41.0293 157.5 39.3215C157.5 35.8541 156.878 34.9743 152.83 33.0077C149.561 31.4034 148.679 30.4718 148.679 28.764C148.679 27.6772 148.939 27.3149 149.665 27.3149C150.651 27.3149 151.429 28.6605 151.17 29.9026C151.066 30.3166 152 30.5236 154.024 30.5753L156.982 30.6788V28.557C156.982 24.5203 152.415 22.3467 146.708 23.6923Z" fill="#707070"/>
</svg>
