<svg width="212" height="64" viewBox="0 0 212 64" fill="none" xmlns="http://www.w3.org/2000/svg">
<path d="M85.1051 34.1408H79.7309C79.3996 34.1414 79.082 34.2737 78.8477 34.5086C78.6134 34.7435 78.4815 35.062 78.4809 35.3942V51.9367C78.4815 52.2689 78.6134 52.5873 78.8477 52.8223C79.082 53.0572 79.3996 53.1894 79.7309 53.1901C80.0552 53.168 80.3605 53.0288 80.5903 52.7984C80.8201 52.5679 80.9589 52.2618 80.9809 51.9367V45.42H84.9806C88.3551 45.42 90.4797 43.2897 90.4797 39.7806C90.6024 36.2711 88.4797 34.1408 85.1051 34.1408ZM87.9797 39.7801C87.9797 41.9104 86.8546 43.0385 84.8546 43.0385H81.1055V36.6471H84.8551C86.8551 36.5218 87.9797 37.6498 87.9797 39.7801Z" fill="#707070"/>
<path d="M98.9801 39.653C97.7965 39.6226 96.642 40.0234 95.7305 40.7811V34.2643C95.7241 33.9362 95.5896 33.6237 95.3559 33.3939C95.1223 33.1641 94.808 33.0353 94.4807 33.0353C94.1534 33.0353 93.8391 33.1641 93.6054 33.3939C93.3717 33.6237 93.2373 33.9362 93.2309 34.2643V51.9349C93.2373 52.263 93.3717 52.5755 93.6054 52.8053C93.8391 53.0351 94.1534 53.1639 94.4807 53.1639C94.808 53.1639 95.1223 53.0351 95.3559 52.8053C95.5896 52.5755 95.7241 52.263 95.7305 51.9349V45.2923C95.7305 43.0367 96.7305 41.9086 98.9801 41.9086C101.355 41.9086 101.855 43.162 101.855 45.167V51.9344C101.861 52.2625 101.995 52.5751 102.229 52.8049C102.463 53.0347 102.777 53.1634 103.104 53.1634C103.432 53.1634 103.746 53.0347 103.98 52.8049C104.213 52.5751 104.348 52.2625 104.354 51.9344V44.7915C104.23 41.4078 102.48 39.653 98.9801 39.653Z" fill="#707070"/>
<path d="M112.355 39.6564C109.48 39.6564 108.105 41.0333 107.605 41.9121C107.492 42.0999 107.448 42.3216 107.48 42.5388C107.48 42.6871 107.508 42.8341 107.565 42.9712C107.621 43.1083 107.704 43.233 107.809 43.3378C107.913 43.4427 108.037 43.5258 108.174 43.5822C108.311 43.6387 108.458 43.6675 108.605 43.6668C108.799 43.6638 108.989 43.6171 109.162 43.5304C109.336 43.4436 109.487 43.3189 109.605 43.1655C109.952 42.7442 110.393 42.4111 110.893 42.1933C111.392 41.9754 111.936 41.8791 112.48 41.9121C114.232 41.9121 115.23 42.9148 115.23 44.5437V44.9198H111.856C108.73 44.9198 106.731 46.5492 106.731 49.0555C106.731 51.6871 108.605 53.3166 111.731 53.3166C113.008 53.3255 114.247 52.8815 115.23 52.0632C115.257 52.3751 115.401 52.6651 115.633 52.8746C115.865 53.084 116.168 53.1972 116.48 53.1912C116.811 53.1906 117.129 53.0583 117.363 52.8234C117.598 52.5885 117.73 52.2701 117.73 51.9378V44.5442C117.605 41.5361 115.605 39.6564 112.355 39.6564ZM115.23 47.1759V47.9279C115.23 50.0582 113.605 50.9356 111.981 50.9356C110.231 50.9356 109.356 50.309 109.356 49.056C109.356 47.4265 110.981 47.1763 111.981 47.1763L115.23 47.1759Z" fill="#707070"/>
<path d="M126.48 39.653C125.299 39.6383 124.15 40.0373 123.23 40.7811V34.2643C123.224 33.9362 123.09 33.6237 122.856 33.3939C122.622 33.1641 122.308 33.0353 121.981 33.0353C121.653 33.0353 121.339 33.1641 121.105 33.3939C120.872 33.6237 120.737 33.9362 120.731 34.2643V47.5485C120.731 51.0575 122.855 53.1878 126.355 53.1878C130.105 53.1878 132.229 50.8068 132.229 46.2951C132.23 40.7811 129.105 39.653 126.48 39.653ZM126.355 41.9086C128.605 41.9086 129.73 43.4121 129.73 46.419C129.73 49.4259 128.605 50.9293 126.355 50.9293C124.355 50.9293 123.23 49.6759 123.23 47.5456V43.9141C123.48 43.6634 124.355 41.9086 126.355 41.9086Z" fill="#707070"/>
<path d="M138.231 50.8078C137.981 50.8078 137.481 50.8078 137.481 49.6797V34.2653C137.48 33.9331 137.348 33.6146 137.114 33.3797C136.88 33.1448 136.562 33.0125 136.231 33.0119C135.907 33.034 135.601 33.1731 135.372 33.4036C135.142 33.634 135.003 33.9402 134.981 34.2653V49.6797C134.981 51.9354 136.106 53.1888 138.106 53.1888C138.254 53.1894 138.4 53.1606 138.537 53.1042C138.674 53.0477 138.798 52.9646 138.903 52.8598C139.007 52.7549 139.09 52.6303 139.147 52.4931C139.203 52.356 139.232 52.209 139.231 52.0607C139.268 51.91 139.271 51.7527 139.238 51.601C139.205 51.4493 139.137 51.3072 139.04 51.186C138.944 51.0647 138.82 50.9675 138.68 50.9019C138.539 50.8363 138.386 50.8041 138.231 50.8078Z" fill="#707070"/>
<path d="M152.097 45.2958C152.097 44.4184 151.847 39.6564 146.598 39.6564C142.848 39.6564 140.723 42.1628 140.723 46.4238C140.723 52.0632 144.098 53.3166 146.847 53.3166C148.495 53.3434 150.095 52.7637 151.345 51.6871C151.467 51.5765 151.564 51.4409 151.628 51.2895C151.693 51.1381 151.725 50.9745 151.72 50.8098C151.721 50.6615 151.692 50.5145 151.636 50.3773C151.58 50.2402 151.497 50.1156 151.392 50.0107C151.288 49.9058 151.163 49.8228 151.027 49.7663C150.89 49.7098 150.743 49.6811 150.595 49.6817C150.326 49.6877 150.065 49.7751 149.845 49.9324C149.095 50.4338 148.345 51.0604 146.846 51.0604C144.721 51.0604 143.346 49.6836 143.221 47.4261H150.72C152.097 47.3003 152.097 45.9234 152.097 45.2958ZM143.223 45.0451C143.473 43.0401 144.723 41.9116 146.598 41.9116C148.597 41.9116 149.597 42.9143 149.597 45.0451H143.223Z" fill="#707070"/>
<path d="M83.4821 19.8541C83.7231 18.7846 83.8489 17.6922 83.8571 16.5957C83.8571 12.3347 81.8576 8.57495 78.483 6.69533C77.358 6.06863 75.9834 6.06863 74.7334 5.94329H73.9834C72.7333 5.81795 71.9838 6.06863 70.7338 6.44465C70.5057 6.58363 70.2494 6.66931 69.9838 6.69533L69.7338 6.82067C69.6087 6.82067 69.4837 6.94601 69.3587 6.94601C69.1087 7.07135 68.9837 7.19668 68.7337 7.19668H68.6087C68.2105 7.36055 67.8329 7.5709 67.4837 7.82338C66.3721 8.56366 65.3634 9.44861 64.4841 10.455C64.1333 10.2286 63.8349 9.92944 63.6091 9.57766C63.2592 9.21615 62.8832 8.881 62.4841 8.57495L61.7341 7.82291C60.7364 6.82067 59.735 5.81795 56.7354 5.31659H53.8608C53.3608 5.44193 52.7358 5.56727 52.1089 5.69261C50.7992 6.07057 49.599 6.75814 48.6093 7.69757C48.0542 8.24637 47.5906 8.88099 47.2361 9.57719C46.8611 10.3292 46.4861 10.954 46.1111 11.7075C45.9861 11.9582 45.9861 12.2088 45.8611 12.4595C45.4065 13.6689 45.1123 14.933 44.9861 16.2192C44.6111 21.3572 47.9857 26.1197 51.2362 30.2554C52.6356 31.9744 54.1378 33.6067 55.7344 35.1432L56.4844 35.8952L57.8576 37.2721C59.3299 38.9332 60.9628 40.444 62.7322 41.7824C62.9686 42.0101 63.2797 42.1438 63.6072 42.1584C63.8232 42.1778 64.0403 42.1343 64.2322 42.0331C64.5129 41.8885 64.752 41.6745 64.927 41.4112C65.102 41.148 65.2071 40.8443 65.2322 40.529C65.2399 40.2358 65.1756 39.9452 65.0448 39.6829C64.9139 39.4206 64.7208 39.1946 64.4822 39.0249C62.8761 37.8127 61.4089 36.4256 60.1076 34.8892L59.2326 34.0118C58.7238 33.4392 58.1824 32.8964 57.6113 32.3862C56.6113 31.3835 55.7368 30.3812 54.7368 29.3785C51.2372 25.3681 49.2376 21.6084 48.7376 17.974C48.5231 15.5649 49.1893 13.1597 50.6122 11.2066C51.0434 10.6374 51.5887 10.165 52.2129 9.81966C52.8372 9.47437 53.5265 9.26385 54.2368 9.20165C56.6113 9.07631 58.6114 10.7057 60.3609 12.3351C61.267 13.2048 62.2741 13.9622 63.3605 14.5908C63.5684 14.7055 63.7977 14.7759 64.034 14.7975C64.2703 14.819 64.5085 14.7913 64.7337 14.7161C65.1406 14.5828 65.4921 14.3185 65.7337 13.9641C66.2246 13.0729 66.8582 12.2687 67.6092 11.5836C68.1995 11.1527 68.8269 10.7752 69.4837 10.4555C70.1346 10.1634 70.8028 9.91207 71.4847 9.703C72.2179 9.46777 72.9708 9.29995 73.7343 9.20165H75.7339C76.2114 9.2377 76.6775 9.36535 77.107 9.57766C77.4135 9.71725 77.7065 9.88509 77.982 10.079C79.8566 11.8357 80.1066 14.9668 79.9816 16.7211C79.9097 18.0345 79.7002 19.3367 79.3566 20.6061V20.8568C78.8566 22.6135 77.7315 25.3671 76.357 26.9975C76.1745 27.3078 75.9164 27.5666 75.607 27.7496C75.3025 28.0727 74.9686 28.3668 74.6098 28.6279C73.3268 29.6421 71.9449 30.5238 70.4852 31.2595H70.3602C69.2332 31.8011 67.9784 32.0181 66.7356 31.8862C64.736 31.7609 62.986 30.2568 61.4864 29.0039C61.3273 28.8459 61.1371 28.723 60.9279 28.6431C60.7186 28.5632 60.4951 28.528 60.2715 28.5398C60.0479 28.5516 59.8292 28.6102 59.6295 28.7117C59.4298 28.8132 59.2535 28.9554 59.1119 29.1292C58.9626 29.2765 58.844 29.452 58.7631 29.6456C58.6822 29.8393 58.6405 30.0471 58.6405 30.2571C58.6405 30.467 58.6822 30.6749 58.7631 30.8685C58.844 31.0621 58.9626 31.2377 59.1119 31.3849C60.8397 33.4309 63.2277 34.8054 65.861 35.2699C68.3606 35.646 71.1102 34.8939 74.1103 33.1396C76.9338 31.3236 79.2552 28.8232 80.8599 25.8695C82.2162 24.1124 83.1171 22.0457 83.4821 19.8541Z" fill="#707070"/>
<path d="M66.4805 23.4898V20.2314C66.4405 19.6938 66.1992 19.1913 65.8052 18.8246C65.4111 18.4579 64.8933 18.2541 64.3557 18.2541C63.8181 18.2541 63.3003 18.4579 62.9062 18.8246C62.5122 19.1913 62.2709 19.6938 62.2309 20.2314V23.4898C62.2527 24.0363 62.4875 24.5525 62.8847 24.9274C63.282 25.3023 63.8101 25.506 64.3555 25.4947C64.6282 25.511 64.9013 25.4712 65.1582 25.3778C65.415 25.2844 65.6501 25.1394 65.8491 24.9517C66.0481 24.764 66.2067 24.5375 66.3153 24.2861C66.4239 24.0347 66.4801 23.7637 66.4805 23.4898Z" fill="#707070"/>
<path d="M73.6055 23.4898V20.2314C73.5655 19.6938 73.3242 19.1913 72.9302 18.8246C72.5361 18.4579 72.0183 18.2541 71.4807 18.2541C70.9431 18.2541 70.4253 18.4579 70.0312 18.8246C69.6372 19.1913 69.3959 19.6938 69.3559 20.2314V23.4898C69.3959 24.0274 69.6372 24.5299 70.0312 24.8966C70.4253 25.2633 70.9431 25.4671 71.4807 25.4671C72.0183 25.4671 72.5361 25.2633 72.9302 24.8966C73.3242 24.5299 73.5655 24.0274 73.6055 23.4898Z" fill="#707070"/>
</svg>
