<svg width="212" height="64" viewBox="0 0 212 64" fill="none" xmlns="http://www.w3.org/2000/svg">
<path d="M75.8865 7.99948L51.7958 24.925L59.5016 35.9673L83.5923 19.0418L75.8865 7.99948Z" fill="#707070"/>
<path fill-rule="evenodd" clip-rule="evenodd" d="M48.2021 44.9582L72.2927 28.0327L79.9985 39.075L55.9079 56.0005L48.2021 44.9582Z" fill="#707070"/>
<path d="M88.0224 33.7942H91.0878C91.2824 35.3683 92.8394 36.3811 95.0655 36.3811C97.1334 36.3811 98.6296 35.3195 98.6296 33.843C98.6296 32.574 97.6686 31.8297 95.4182 31.305L93.1435 30.7803C89.9565 30.0604 88.4603 28.4741 88.4603 25.8506C88.4603 22.6537 91.0634 20.5305 94.9925 20.5305C98.6783 20.5305 101.342 22.6537 101.488 25.6798H98.4836C98.2647 24.1301 96.9023 23.154 94.9803 23.154C92.9611 23.154 91.623 24.1301 91.623 25.631C91.623 26.8146 92.511 27.5101 94.6884 28.0104L96.7077 28.4741C100.272 29.2794 101.768 30.7681 101.768 33.4526C101.768 36.8814 99.1283 39.0167 94.8708 39.0167C90.8445 39.0167 88.1805 36.9912 88.0224 33.7942ZM107.663 36.4177C109.488 36.4177 110.85 35.2341 110.85 33.6844V32.6228L107.846 32.818C106.155 32.9279 105.364 33.538 105.364 34.624C105.364 35.7466 106.325 36.4177 107.663 36.4177ZM106.775 38.7971C104.209 38.7971 102.372 37.2352 102.372 34.7948C102.372 32.3788 104.184 30.9877 107.42 30.7925L110.85 30.5851V29.4625C110.85 28.1568 109.974 27.4247 108.344 27.4247C106.958 27.4247 106.009 27.9128 105.729 28.8158H102.883C103.126 26.4607 105.328 24.9599 108.49 24.9599C111.909 24.9599 113.831 26.6316 113.831 29.4625V38.5774H110.923V36.7471H110.716C109.974 38.0406 108.515 38.7971 106.775 38.7971ZM116.673 21.9582H119.677V25.3137H122.524V27.7298H119.677V34.2823C119.677 35.6001 120.237 36.1858 121.502 36.1858C121.928 36.1858 122.159 36.1614 122.524 36.1248V38.492C122.086 38.5774 121.526 38.6385 120.942 38.6385C117.889 38.6385 116.673 37.6013 116.673 35.0144V27.7298H114.568V25.3137H116.673V21.9582ZM123.31 33.7942H126.375C126.57 35.3683 128.127 36.3811 130.353 36.3811C132.421 36.3811 133.917 35.3195 133.917 33.843C133.917 32.574 132.956 31.8297 130.706 31.305L128.431 30.7803C125.244 30.0604 123.748 28.4741 123.748 25.8506C123.748 22.6537 126.351 20.5305 130.28 20.5305C133.966 20.5305 136.63 22.6537 136.776 25.6798H133.771C133.552 24.1301 132.19 23.154 130.268 23.154C128.249 23.154 126.911 24.1301 126.911 25.631C126.911 26.8146 127.799 27.5101 129.976 28.0104L131.995 28.4741C135.559 29.2794 137.056 30.7681 137.056 33.4526C137.056 36.8814 134.416 39.0167 130.158 39.0167C126.132 39.0167 123.468 36.9912 123.31 33.7942ZM150.103 25.2283V38.5774H147.196V36.4543H146.989C146.345 37.9795 145.043 38.8459 143.012 38.8459C140.104 38.8459 138.401 37.0278 138.401 33.904V25.2283H141.418V33.1475C141.418 35.1853 142.257 36.1858 144.058 36.1858C146.016 36.1858 147.087 34.9778 147.087 33.0011V25.2283H150.103ZM152.057 38.5774V25.2283H154.965V27.3027H155.172C155.536 25.9849 156.972 25.0087 158.687 25.0087C159.125 25.0087 159.66 25.0575 159.94 25.1429V27.9494C159.709 27.864 158.906 27.7786 158.395 27.7786C156.437 27.7786 155.074 28.9988 155.074 30.8657V38.5774H152.057ZM165.92 27.3637C164.12 27.3637 162.855 28.6571 162.721 30.6095H168.986C168.925 28.6327 167.733 27.3637 165.92 27.3637ZM169.01 34.9046H171.869C171.321 37.3328 169.095 38.8459 165.957 38.8459C162.04 38.8459 159.68 36.2468 159.68 31.9517C159.68 27.6566 162.076 24.9599 165.933 24.9599C169.728 24.9599 172.002 27.4857 172.002 31.6955V32.6716H162.709V32.8302C162.782 35.051 164.059 36.4421 166.042 36.4421C167.538 36.4421 168.572 35.893 169.01 34.9046Z" fill="#707070"/>
</svg>
