<svg width="212" height="64" viewBox="0 0 212 64" fill="none" xmlns="http://www.w3.org/2000/svg">
<path d="M49.7481 13.4648C38.9465 21.4216 37.3423 22.6835 37.2782 23.2611C37.1498 24.4375 36.7862 24.4161 51.6304 24.523L65.3195 24.63L62.0255 26.9614C60.2074 28.2447 58.368 29.5709 57.9188 29.9131C56.7638 30.8115 55.844 31.0253 54.8815 30.6403C54.4537 30.4478 52.5715 29.3356 50.6892 28.1592L47.2883 26.0203H43.5452C41.4918 26.0203 39.8021 26.0844 39.8021 26.17C39.8021 26.2769 40.8929 27.0256 42.2191 27.8597C43.5238 28.7153 47.0103 30.9184 49.9192 32.7579C53.1918 34.854 55.4162 36.116 55.7585 36.116C56.0579 36.1374 56.5713 35.9449 56.8707 35.7096C57.6193 35.1535 71.0304 25.7422 72.4635 24.7583C73.5971 23.9883 73.7896 23.5605 73.3832 22.8119C72.8699 21.8494 72.8699 21.8494 58.7316 21.7424L45.2564 21.6355L49.3203 18.7479C53.7907 15.5609 54.3682 15.2401 55.3093 15.3898C55.844 15.4754 60.0577 17.9565 62.71 19.7318C63.4372 20.2238 63.6083 20.2452 67.1162 20.2452C69.1481 20.2452 70.8379 20.1596 70.9021 20.0741C70.9448 19.9885 70.5598 19.6249 70.0037 19.2826C69.4476 18.9404 65.9184 16.6946 62.1539 14.3203C58.4107 11.9247 55.1382 9.97833 54.8815 9.99972C54.6462 9.99972 52.3362 11.5611 49.7481 13.4648Z" fill="#707070"/>
<path d="M108.97 22.6007C108.714 22.7076 108.35 23.0071 108.158 23.2852C107.217 24.6327 108.585 26.3224 110.168 25.7877C110.917 25.5096 111.238 25.0391 111.238 24.1193C111.238 23.499 110.617 22.6007 110.19 22.6007C110.083 22.6007 109.869 22.5579 109.698 22.5151C109.548 22.451 109.206 22.4938 108.97 22.6007Z" fill="#707070"/>
<path d="M93.49 31.4746V39.7094H94.8803H96.2706V35.8593C96.2706 31.6243 96.4203 30.9398 97.447 30.127C97.8962 29.7634 98.324 29.6565 99.3293 29.6565C100.506 29.6565 100.655 29.7206 101.297 30.3837C102.195 31.3248 102.26 31.774 102.26 36.0946V39.7094H103.543H104.826V35.2604C104.826 30.897 104.826 30.7901 104.27 29.6992C103.607 28.3731 102.623 27.6245 101.083 27.2823C99.7784 26.9828 97.8748 27.3036 97.062 27.9667C96.7625 28.1806 96.4631 28.3731 96.3989 28.3731C96.3348 28.3731 96.2706 27.2181 96.2706 25.8064V23.2397H94.8803H93.49V31.4746Z" fill="#707070"/>
<path d="M83.0274 24.2024C80.8243 24.8227 79.6051 26.3199 79.5837 28.4161C79.5837 30.8331 80.4821 31.7314 84.1183 32.8864C87.07 33.8062 87.7117 34.2767 87.7117 35.4745C87.7117 36.8221 86.7278 37.5707 84.9738 37.5707C83.7546 37.5707 83.006 37.1001 82.5782 36.0734C82.3216 35.4531 82.2574 35.4318 80.9527 35.4318C79.6479 35.4318 79.5837 35.4531 79.5837 35.9451C79.5837 39.4315 85.4872 41.271 88.7811 38.8327C89.6581 38.1696 90.4923 36.4371 90.4923 35.282C90.4923 32.9934 89.3586 31.9239 85.8722 30.8117C84.3108 30.3411 83.1771 29.8492 82.8777 29.5283C82.2788 28.9508 82.1932 27.86 82.6852 27.1541C83.1557 26.4911 84.5033 26.1488 85.5513 26.4483C86.3855 26.6622 87.2839 27.5177 87.2839 28.0739C87.2839 28.3091 87.6689 28.3733 88.8025 28.3733H90.3425L90.2142 27.6033C89.7864 24.9296 86.2786 23.3041 83.0274 24.2024Z" fill="#707070"/>
<path d="M70.3025 27.0059L68.2064 28.4176L68.3561 35.4974L68.5058 42.5986L63.6504 45.5717C60.9982 47.1973 58.7737 48.4807 58.7095 48.4165C58.6454 48.3523 58.4956 45.4434 58.3673 41.9142C58.239 38.4063 58.0892 35.4974 58.0679 35.4546C58.0251 35.4119 57.5545 35.6899 56.9984 36.0535C56.4423 36.4171 55.8861 36.7166 55.7578 36.7166C55.6295 36.7166 55.1375 36.4813 54.667 36.1819C54.1964 35.9038 53.7686 35.6471 53.7044 35.6471C53.6403 35.6471 53.6189 38.385 53.6831 41.7431C53.7472 47.0476 53.7044 47.8604 53.4264 47.9673C53.2339 48.0315 50.9238 46.7909 47.6299 44.8445L42.1543 41.5933V34.9199L42.1329 28.2678L40.2934 27.0914C39.2667 26.4498 38.3256 25.8936 38.1759 25.8509C38.0047 25.8081 37.962 27.7759 38.0261 33.8718C38.0903 38.3208 38.1972 42.4275 38.2614 43.005L38.4111 44.0531L42.0473 46.0851C44.0579 47.1973 47.9935 49.4218 50.8169 51.026C53.6403 52.6302 56.1214 53.9563 56.3353 53.9991C56.5492 54.0419 58.4742 53.0366 60.6132 51.7746C62.7521 50.5127 66.2385 48.4807 68.3561 47.2401C70.4736 46.0209 72.2703 44.9515 72.3773 44.8659C72.4628 44.7803 72.5056 40.4169 72.4842 35.1552L72.42 25.5942L70.3025 27.0059Z" fill="#707070"/>
<path d="M119.708 27.3263C119.259 27.4332 118.467 27.7968 117.954 28.1605L117.013 28.7807V28.0535V27.3049H115.622H114.232V36.5023V45.6996H115.622H117.013V42.0421V38.3845L117.505 38.7267C118.66 39.5823 119.686 39.9245 121.184 39.9245C123.665 39.9245 125.312 38.8337 126.403 36.5023C126.852 35.5184 126.959 35.005 126.937 33.5078C126.937 31.4972 126.552 30.3422 125.462 29.0588C124.264 27.6257 121.654 26.8343 119.708 27.3263ZM122.296 30.0213C124.371 31.0052 124.884 34.3847 123.28 36.3098C121.761 38.1065 119.023 37.9353 117.697 35.9675C117.013 34.9622 116.842 33.1655 117.334 31.8822C118.082 29.9358 120.328 29.0802 122.296 30.0213Z" fill="#707070"/>
<path d="M152.203 27.2404C150.343 27.6468 148.824 28.7805 147.968 30.406C147.562 31.1333 147.498 31.6038 147.498 33.5075C147.498 35.5181 147.562 35.8603 148.075 36.8228C149.166 38.919 150.835 39.9243 153.166 39.9243C154.663 39.9243 156.075 39.4109 156.973 38.5981L157.444 38.1489V38.919V39.7104H158.727H160.011V33.5075V27.3046H158.727H157.444V28.1816V29.0585L156.695 28.3955C155.583 27.4329 153.615 26.9196 152.203 27.2404ZM155.455 30.0424C156.802 30.7697 157.594 32.823 157.209 34.5769C156.759 36.5448 155.262 37.6998 153.358 37.5287C151.284 37.3148 150.065 35.625 150.214 33.1866C150.3 31.7322 150.663 31.0263 151.711 30.2349C152.717 29.4863 154.257 29.4007 155.455 30.0424Z" fill="#707070"/>
<path d="M108.248 33.5065V39.7094H109.531H110.814V33.5065V27.3036H109.531H108.248V33.5065Z" fill="#707070"/>
<path d="M128.138 27.4573C128.138 27.5642 128.994 30.3234 130.021 33.6174L131.903 39.6064H133.379H134.855L135.967 35.4569C136.609 33.1896 137.143 31.286 137.165 31.2432C137.207 31.2218 137.742 33.104 138.384 35.4569L139.539 39.7133H140.993H142.448L142.897 38.2588C143.132 37.4674 143.988 34.7082 144.779 32.1201L146.255 27.4145L144.972 27.3503C144.266 27.3076 143.667 27.3289 143.624 27.3717C143.539 27.4359 141.207 36.3338 141.164 36.676C141.164 36.7616 140.608 34.7082 139.924 32.1201L138.705 27.4145L137.293 27.3503L135.903 27.2862L134.641 32.0987L133.379 36.9113L132.48 33.4463C131.988 31.5426 131.432 29.3823 131.218 28.6337L130.876 27.3076H129.507C128.759 27.3076 128.138 27.3717 128.138 27.4573Z" fill="#707070"/>
<path d="M162.154 27.5606C162.154 27.7317 163.202 30.4695 164.485 33.6779L166.838 39.5172L166.197 41.0144C165.854 41.8272 165.298 43.1534 164.935 43.9876L164.314 45.4848H165.747H167.181L169.833 39.1108C171.287 35.6244 172.998 31.539 173.619 30.0204L174.752 27.3039H173.319H171.886L170.175 31.7957C169.255 34.2554 168.421 36.2233 168.357 36.1591C168.293 36.0949 167.523 34.1057 166.646 31.7315L165.02 27.4109L163.587 27.3467C162.518 27.3039 162.154 27.3467 162.154 27.5606Z" fill="#707070"/>
</svg>
