<svg width="212" height="64" viewBox="0 0 212 64" fill="none" xmlns="http://www.w3.org/2000/svg">
<g clip-path="url(#clip0_2785_12935)">
<path d="M86.7182 28.119C86.5469 28.046 86.3659 27.9978 86.1807 27.9757C85.8112 27.9336 85.4373 28.0008 85.1063 28.1686C84.7754 28.3365 84.5021 28.5975 84.3209 28.9189C84.1398 29.2402 84.059 29.6074 84.0886 29.9742C84.1183 30.3409 84.2571 30.6908 84.4876 30.9795C84.718 31.2683 85.0298 31.4831 85.3836 31.5968C85.7373 31.7105 86.1172 31.718 86.4752 31.6183C86.8333 31.5186 87.1535 31.3163 87.3954 31.0368C87.6373 30.7574 87.7901 30.4133 87.8345 30.048C87.8464 29.9479 87.8464 29.8468 87.8345 29.7467L100.075 17.7902C99.7296 17.2577 99.3921 16.7659 99.0554 16.2969C96.4229 18.9171 86.9718 27.9603 86.7182 28.119Z" fill="#707070"/>
<path d="M122.013 23.0287C121.517 22.9748 121.018 23.1173 120.628 23.4251C120.237 23.7329 119.985 24.181 119.926 24.6718C119.906 24.844 119.914 25.0185 119.95 25.1881C115.777 29.7373 112.706 22.1753 108.649 16.0342C107.501 14.3748 106.179 12.6958 104.395 12.8586C106.241 15.0653 107.55 17.6692 108.384 19.0592C111.193 23.505 113.577 28.1788 116.909 28.4589C118.168 28.5623 119.549 28.0298 121.13 26.6008C121.276 26.6611 121.43 26.7013 121.588 26.7205C121.835 26.7525 122.086 26.7354 122.326 26.6704C122.567 26.6054 122.792 26.4937 122.988 26.3418C123.185 26.1899 123.348 26.0009 123.47 25.7857C123.592 25.5706 123.669 25.3336 123.698 25.0886C123.726 24.8436 123.704 24.5955 123.635 24.3587C123.565 24.1219 123.448 23.9013 123.292 23.7095C123.135 23.5178 122.941 23.3589 122.722 23.242C122.502 23.1251 122.261 23.0526 122.013 23.0287Z" fill="#707070"/>
<path d="M95.7207 14.7105C95.5519 14.7353 95.3919 14.8007 95.2548 14.9011C94.0266 16.076 89.3278 20.5146 89.2191 20.4665C88.8569 20.3105 88.4543 20.2714 88.0683 20.3547C87.6824 20.438 87.3329 20.6396 87.0694 20.9307C86.8059 21.2218 86.6419 21.5877 86.6007 21.9763C86.5595 22.3649 86.6432 22.7564 86.8399 23.0953C87.0366 23.4341 87.3362 23.703 87.6963 23.8637C88.0564 24.0245 88.4585 24.0688 88.8455 23.9905C89.2325 23.9122 89.5847 23.7152 89.852 23.4275C90.1193 23.1399 90.2882 22.7762 90.3345 22.3882C90.351 22.251 90.351 22.1125 90.3345 21.9753C92.6543 19.6954 96.9884 15.6078 96.9884 15.6078C96.4426 15.0998 96.1537 14.6633 95.7207 14.7105Z" fill="#707070"/>
<path d="M107.942 21.0612C109.515 23.7605 110.888 26.2293 112.365 26.1976C112.595 26.1903 112.819 26.1247 113.016 26.007C113.429 26.4978 113.888 26.9497 114.386 27.3571C113.832 27.6583 113.069 28.1664 111.794 28.0476C111.633 28.0315 111.474 27.9995 111.32 27.9523C109.04 27.5159 106.031 21.2835 104.458 18.6796C102.886 15.9803 101.513 13.5107 100.036 13.5424C99.8154 13.5624 99.6018 13.6302 99.4106 13.7411C98.9784 13.2495 98.4968 12.8026 97.9733 12.4073C98.4631 12.1452 99.1134 11.716 100.133 11.6843C100.291 11.681 100.449 11.6892 100.607 11.7087C103.006 11.8911 104.532 15.4795 106.754 18.9971L107.942 21.0612Z" fill="#707070"/>
<path d="M124.275 15.9196C124.211 15.9103 124.147 15.9046 124.082 15.9025C123.817 15.8987 123.553 15.9508 123.31 16.0554C123.066 16.16 122.848 16.3147 122.67 16.5092C122.491 16.7037 122.357 16.9335 122.275 17.1834C122.194 17.4333 122.167 17.6976 122.196 17.9585C119.876 20.2384 115.598 24.2706 115.598 24.2706C116.313 24.9294 116.626 25.4855 117.268 25.0165C118.496 23.8415 123.195 19.4038 123.304 19.4511C123.477 19.5291 123.661 19.5802 123.85 19.6025C124.346 19.6554 124.842 19.5122 125.232 19.2043C125.621 18.8963 125.872 18.4485 125.929 17.9585C125.955 17.7172 125.934 17.4731 125.865 17.24C125.797 17.0069 125.682 16.7894 125.529 16.6001C125.375 16.4107 125.185 16.2532 124.97 16.1364C124.755 16.0197 124.519 15.946 124.275 15.9196Z" fill="#707070"/>
<path d="M95.6136 11.446C95.4564 11.4288 95.2982 11.4234 95.1402 11.4297C94.0084 11.4859 92.7719 12.0494 91.3914 13.296C91.2442 13.2413 91.0903 13.2066 90.9337 13.1926C90.5645 13.1519 90.1914 13.2205 89.8616 13.3897C89.5318 13.5588 89.2602 13.8209 89.081 14.1429C88.9019 14.4648 88.8233 14.832 88.8552 15.1981C88.8871 15.5642 89.0281 15.9127 89.2604 16.1995C89.4926 16.4863 89.8056 16.6986 90.1598 16.8094C90.514 16.9202 90.8935 16.9246 91.2502 16.822C91.6069 16.7194 91.9249 16.5144 92.1638 16.233C92.4027 15.9517 92.5519 15.6065 92.5925 15.2413C92.6194 15.0696 92.6138 14.8946 92.576 14.725C96.7496 10.1758 99.8242 17.75 103.869 23.8781C105.017 25.5456 106.339 27.197 108.124 27.0455C106.277 24.8397 104.921 22.2495 104.092 20.8653C101.365 16.3055 98.9409 11.7155 95.6136 11.446ZM126.73 8.01637C126.667 8.0069 126.602 8.00146 126.538 8.00008C126.07 7.9958 125.618 8.16313 125.268 8.46967C124.919 8.77621 124.696 9.20018 124.644 9.65953C124.632 9.75441 124.632 9.85046 124.644 9.94534C123.327 11.1667 116.184 18.3533 112.283 21.9019C112.653 22.4816 113.024 23.0215 113.383 23.5214C117.273 20.0046 125.496 11.7318 125.757 11.573C125.929 11.6457 126.11 11.6936 126.295 11.7155C126.791 11.7696 127.289 11.627 127.679 11.3191C128.069 11.0111 128.32 10.5629 128.377 10.0724C128.406 9.83026 128.387 9.58479 128.32 9.35011C128.253 9.11543 128.14 8.89619 127.987 8.70505C127.834 8.5139 127.644 8.35463 127.428 8.23643C127.212 8.11822 126.975 8.04343 126.73 8.01637Z" fill="#707070"/>
<path d="M55.0455 51.8606C54.1494 51.8586 53.2567 51.7507 52.3866 51.539C51.4942 51.3219 50.794 51.0429 50.2858 50.702L50.5648 48.2934C51.2093 48.6949 51.9111 48.9985 52.6467 49.194C53.39 49.4076 54.1595 49.5191 54.9335 49.5254C55.7891 49.5254 56.4477 49.369 56.9092 49.0563C57.1308 48.9159 57.3116 48.7207 57.4339 48.4902C57.5561 48.2596 57.6156 48.0015 57.6064 47.7413C57.6117 47.5156 57.5611 47.2919 57.4589 47.09C57.3567 46.888 57.2062 46.7138 57.0203 46.5826C56.6301 46.2884 55.8893 45.9698 54.7977 45.6267C53.2611 45.149 52.1635 44.579 51.5049 43.9168C50.8464 43.2545 50.5171 42.3778 50.5171 41.2867C50.5028 40.55 50.7133 39.8261 51.1213 39.2096C51.5313 38.607 52.1204 38.138 52.8887 37.8025C53.657 37.4671 54.5554 37.2985 55.5839 37.2969C56.336 37.2994 57.0851 37.3921 57.8147 37.5729C58.5096 37.7334 59.179 37.987 59.8044 38.3269L59.4142 40.6622C58.844 40.3407 58.2357 40.0905 57.6032 39.9171C56.978 39.7347 56.3303 39.6387 55.6785 39.6322C54.8861 39.6322 54.2881 39.7733 53.8848 40.0556C53.4814 40.3378 53.28 40.7423 53.2806 41.2688C53.2693 41.5576 53.3506 41.8426 53.5127 42.0831C53.6683 42.2972 53.9243 42.4902 54.275 42.662C54.7661 42.8867 55.2725 43.0771 55.7905 43.232C57.4753 43.7596 58.6711 44.3635 59.378 45.0437C60.0848 45.7239 60.438 46.6095 60.4374 47.7006C60.4374 48.9882 59.9572 50.0025 58.9968 50.7435C58.0364 51.4845 56.7193 51.8568 55.0455 51.8606Z" fill="#707070"/>
<path d="M64.5796 50.9308L60.6373 42.2109H63.4444L65.8984 48.2234L68.2403 42.2109H71.0096L64.7451 56.0753H62.0705L64.5796 50.9308Z" fill="#707070"/>
<path d="M72.2233 42.2089H74.7167L74.7348 43.3668C75.0072 42.901 75.4112 42.524 75.8972 42.2822C76.3861 42.0369 76.9594 41.9142 77.6168 41.9142C78.9921 41.9142 79.9588 42.4719 80.5169 43.5875C80.7905 43.0714 81.2147 42.6486 81.7344 42.3742C82.2873 42.0676 82.9116 41.909 83.5454 41.9142C84.6732 41.9142 85.5345 42.2516 86.1294 42.9263C86.7243 43.6011 87.0218 44.5877 87.0218 45.8861V51.568H84.4378V46.369C84.4378 45.6209 84.3006 45.0692 84.0262 44.7136C83.7518 44.358 83.3303 44.1803 82.7618 44.1803C82.1921 44.1803 81.7429 44.3887 81.4142 44.8056C81.0855 45.2225 80.9208 45.7987 80.9203 46.5343V51.5721H78.3387V46.369C78.3387 45.6209 78.2054 45.0692 77.9387 44.7136C77.672 44.358 77.2475 44.1803 76.6652 44.1803C76.0824 44.1803 75.6269 44.3887 75.2987 44.8056C74.9705 45.2225 74.8059 45.7925 74.8048 46.5155V51.5721H72.2233V42.2089Z" fill="#707070"/>
<path d="M89.2467 42.2092H91.7163L91.7533 43.4225C92.3982 42.4177 93.4455 41.915 94.8955 41.9145C95.6851 41.9036 96.4617 42.1142 97.1354 42.5219C97.8137 42.9435 98.358 43.5458 98.706 44.2595C99.0902 45.0135 99.2823 45.8807 99.2823 46.8611C99.2927 47.724 99.0985 48.5774 98.7151 49.3527C98.3528 50.0897 97.7988 50.7181 97.1098 51.1734C96.4178 51.6325 95.6011 51.8729 94.7679 51.863C94.1776 51.872 93.5929 51.7493 93.0573 51.5039C92.5652 51.2773 92.143 50.9251 91.834 50.4837V56.0735H89.2508L89.2467 42.2092ZM94.1916 49.5823C94.9347 49.5823 95.5384 49.331 96.0027 48.8283C96.4669 48.3256 96.6993 47.6821 96.6999 46.8977C96.6999 46.1014 96.4645 45.4519 95.9936 44.9492C95.5227 44.4465 94.9218 44.1952 94.1908 44.1952C93.4587 44.1952 92.8575 44.4465 92.3872 44.9492C91.9169 45.4519 91.6814 46.1014 91.6809 46.8977C91.6809 47.6826 91.9133 48.3262 92.3781 48.8283C92.843 49.3304 93.4475 49.5818 94.1916 49.5823Z" fill="#707070"/>
<path d="M101.036 36.6738H103.62V43.2384C103.891 42.8105 104.282 42.4691 104.744 42.2547C105.266 42.0187 105.835 41.9023 106.408 41.9144C107.523 41.9144 108.375 42.2547 108.965 42.9355C109.554 43.6162 109.848 44.5998 109.847 45.8863V51.5682H107.263V46.3692C107.263 44.91 106.699 44.1805 105.572 44.1805C104.952 44.1805 104.472 44.3859 104.131 44.7968C103.79 45.2078 103.62 45.7862 103.62 46.532V51.5698H101.036V36.6738Z" fill="#707070"/>
<path d="M116.172 51.8632C115.282 51.8717 114.404 51.6566 113.62 51.2378C112.849 50.8288 112.207 50.2181 111.763 49.4725C111.304 48.7126 111.075 47.8484 111.075 46.88C111.068 46.0142 111.289 45.1616 111.716 44.4062C112.144 43.6524 112.77 43.0268 113.527 42.5953C114.329 42.1362 115.241 41.9009 116.167 41.9146C117.057 41.9062 117.934 42.1181 118.719 42.531C119.488 42.9359 120.128 43.5436 120.569 44.2866C121.028 45.0465 121.257 45.911 121.257 46.88C121.266 47.7515 121.045 48.6104 120.616 49.3716C120.188 50.1254 119.562 50.751 118.805 51.1825C118.005 51.6402 117.096 51.8754 116.172 51.8632ZM116.172 49.5833C116.903 49.5833 117.504 49.3319 117.976 48.8293C118.447 48.3266 118.683 47.6771 118.682 46.8808C118.682 46.0964 118.45 45.4528 117.985 44.9502C117.52 44.4475 116.916 44.1962 116.174 44.1962C115.43 44.1962 114.827 44.4475 114.363 44.9502C113.899 45.4528 113.667 46.0964 113.666 46.8808C113.666 47.6777 113.901 48.3272 114.373 48.8293C114.844 49.3314 115.444 49.5825 116.172 49.5825V49.5833Z" fill="#707070"/>
<path d="M122.915 42.2098H125.405L125.424 43.3676C125.691 42.9068 126.089 42.5331 126.567 42.292C127.101 42.0309 127.691 41.9016 128.287 41.915C129.403 41.915 130.253 42.2554 130.839 42.9361C131.424 43.6168 131.719 44.6004 131.722 45.8869V51.5688H129.138V46.3698C129.138 44.9107 128.574 44.1811 127.447 44.1811C126.826 44.1811 126.346 44.3865 126.005 44.7975C125.664 45.2084 125.494 45.7876 125.495 46.5351V51.5729H122.911L122.915 42.2098Z" fill="#707070"/>
<path d="M136.548 50.9313L132.606 42.2188H135.413L137.867 48.2312L140.21 42.2188H142.98L136.715 56.0757H134.038L136.548 50.9313Z" fill="#707070"/>
<path d="M149.315 37.5938H152.327L157.941 51.5688H154.929L153.59 47.8916H147.902L146.545 51.5688H143.7L149.315 37.5938ZM152.81 45.7184L150.727 40.0919L148.665 45.7184H152.81Z" fill="#707070"/>
<path d="M159.13 37.5938H161.974V51.5688H159.13V37.5938Z" fill="#707070"/>
</g>
<defs>
<clipPath id="clip0_2785_12935">
<rect width="111.429" height="48" fill="white" transform="translate(50.2858 8)"/>
</clipPath>
</defs>
</svg>
