<svg width="212" height="64" viewBox="0 0 212 64" fill="none" xmlns="http://www.w3.org/2000/svg">
<path d="M64.6377 16.0359C61.5482 16.2708 58.467 17.4953 56.0512 19.4452C55.6229 19.7933 54.7372 20.5942 54.5127 20.8416L54.3256 21.0429L61.4484 21.0555L68.5671 21.0639V21.2861C68.5671 21.5 68.4756 21.6594 61.9765 32.7385C55.6146 43.5869 55.39 43.9769 55.4607 44.0566C55.5522 44.1656 56.2425 44.7234 56.6125 44.9917C59.7893 47.3107 63.7978 48.3759 67.486 47.881C70.9206 47.4197 74.035 45.8724 76.5632 43.3773C76.7836 43.155 76.9665 42.9621 76.9665 42.9453C76.9665 42.9244 73.7565 42.9118 69.8353 42.9118H62.7042V42.6853C62.7042 42.4589 62.7083 42.4547 69.3364 31.2708C75.7856 20.3971 75.9686 20.0826 75.8979 20.003C75.7815 19.8688 74.8542 19.1307 74.4218 18.8288C73.5402 18.2082 72.193 17.4827 71.2283 17.1011C69.0661 16.2498 66.7459 15.8766 64.6377 16.0359Z" fill="#707070"/>
<path d="M154.697 18.4248L152.189 18.6932V21.3477V24.0021H150.734H149.279V26.0359V28.0698H150.734H152.185L152.202 32.8587L152.214 37.6518L152.31 38.0711C152.58 39.2831 153.038 40.1972 153.799 41.0569C155.021 42.4365 156.896 43.2123 159.029 43.2207C159.774 43.2207 160.248 43.1452 160.909 42.9104C161.321 42.7636 162.003 42.4239 162.003 42.3652C162.003 42.3149 161.009 38.8805 160.988 38.8595C160.98 38.8511 160.763 38.8805 160.506 38.9308C158.946 39.2118 157.878 38.784 157.454 37.7063C157.229 37.1276 157.221 36.985 157.221 32.3345V28.0698H158.655H160.09V26.0359V24.0021H158.655H157.221L157.212 21.0751L157.2 18.1522L154.697 18.4248Z" fill="#707070"/>
<path d="M78.0568 22.4596C78.0236 22.4973 67.7488 39.8247 67.6615 39.9882C67.6532 40.005 70.2312 40.0176 73.3997 40.0176H79.1504L79.508 39.3131C80.3147 37.7363 80.822 36.2015 81.0964 34.5116C81.3584 32.9139 81.3833 31.6307 81.1837 30.0581C80.8677 27.5882 79.9654 25.1811 78.5599 23.0718C78.1275 22.4219 78.1026 22.3925 78.0568 22.4596Z" fill="#707070"/>
<path d="M138.989 23.9204C137.596 24.084 136.062 24.7591 134.843 25.753C134.12 26.3442 133.546 27.2039 133.255 28.1348C133.035 28.8393 132.997 29.1203 133.001 30.0177C133.001 30.7641 133.014 30.9151 133.118 31.4015C133.413 32.8231 133.991 33.6912 135.076 34.337C136.357 35.1002 137.658 35.5237 139.421 35.7418C141.268 35.9724 142.054 36.2659 142.332 36.8195C142.419 36.9872 142.44 37.0921 142.449 37.4695C142.461 37.8762 142.453 37.9433 142.361 38.1404C142.008 38.9078 141.239 39.2265 139.567 39.2894C138.802 39.3188 138.211 39.2559 137.451 39.0546C136.548 38.8198 135.962 38.522 135.272 37.9517L134.964 37.7001L134.852 37.8217C134.785 37.8888 134.199 38.5598 133.546 39.3104L132.357 40.6775L132.531 40.8452C133.359 41.642 134.777 42.489 135.908 42.8664C137.097 43.2606 138.004 43.3906 139.546 43.3906C140.611 43.3906 140.727 43.3822 141.251 43.2774C143.234 42.8874 145.002 41.8349 145.846 40.5517C146.361 39.7591 146.607 38.9498 146.644 37.9224C146.677 36.9621 146.557 36.0605 146.287 35.2385C145.946 34.2195 145.409 33.5025 144.544 32.9154C143.459 32.1815 142.22 31.7328 140.69 31.5273C139.317 31.3386 138.078 30.9235 137.559 30.479C137.309 30.2609 137.218 30.0387 137.218 29.6361C137.218 29.3761 137.238 29.2587 137.317 29.0951C137.496 28.7135 137.816 28.4493 138.32 28.269C138.852 28.0761 139.118 28.0468 140.253 28.0468C141.288 28.051 141.322 28.0552 141.683 28.1642C142.32 28.3655 142.856 28.6758 143.359 29.1329L143.617 29.3677L144.81 27.9965C145.467 27.2374 146.058 26.5623 146.124 26.491L146.249 26.3568L146.045 26.1681C145.234 25.4007 144.054 24.6752 143.106 24.3565C142.033 23.9959 140.095 23.7904 138.989 23.9204Z" fill="#707070"/>
<path d="M51.9076 24.4281C50.9638 26.181 50.3525 28.1142 50.0739 30.2067C49.9824 30.9112 49.97 32.9157 50.0531 33.6034C50.1987 34.7776 50.4481 35.935 50.7683 36.9162C51.2548 38.4007 52.0116 39.9271 52.9014 41.1978C53.1717 41.5836 53.2382 41.6548 53.284 41.6087C53.3422 41.5416 63.6169 24.0214 63.6169 23.9836C63.6169 23.9711 61.0389 23.9585 57.887 23.9585H52.1571L51.9076 24.4281Z" fill="#707070"/>
<path d="M119.422 24.059C117.06 24.3358 115.222 25.229 113.671 26.8519C112.719 27.8415 112.062 28.9234 111.621 30.2192C110.885 32.3788 110.894 34.9285 111.646 37.1049C111.842 37.6752 112.27 38.539 112.619 39.0674C114.515 41.9567 117.617 43.4328 121.339 43.2105C124.291 43.0386 126.241 42.3467 127.622 40.9796C127.846 40.7616 128.029 40.5561 128.029 40.5267C128.029 40.4974 127.414 39.8516 126.665 39.0884L125.297 37.6961L125.019 37.8765C124.017 38.5139 122.803 38.9332 121.593 39.059C120.894 39.1303 119.617 39.0884 119.206 38.9793C118.403 38.7613 117.817 38.4384 117.301 37.9226C116.69 37.3145 116.357 36.6016 116.316 35.8133L116.291 35.4065H122.936H129.576L129.555 33.9891C129.539 33.0246 129.514 32.425 129.468 32.0937C129.16 29.9047 128.325 28.0847 126.961 26.6422C125.651 25.25 124.004 24.4155 121.958 24.1052C121.356 24.0129 120.021 23.9877 119.422 24.059ZM121.584 28.2147C121.971 28.2818 122.341 28.4076 122.711 28.5922C123.929 29.196 124.537 30.1479 124.537 31.4437V31.8421H120.499H116.457L116.482 31.3263C116.524 30.4037 116.736 29.8963 117.322 29.305C117.996 28.6257 118.84 28.2483 119.9 28.1518C120.353 28.1099 121.16 28.1393 121.584 28.2147Z" fill="#707070"/>
<path d="M93.4349 26.1617V28.2794H97.4267H101.419V28.5016C101.419 28.7197 101.369 28.8077 97.4267 35.5131L93.4349 42.3065V42.7761V43.25H100.94H108.446V41.1113V38.9727H104.454H100.462V38.7546C100.462 38.5408 100.529 38.4275 104.454 31.8186L108.446 25.1007V24.5724V24.044H100.94H93.4349V26.1617Z" fill="#707070"/>
</svg>
