<svg width="84" height="40" viewBox="0 0 84 40" fill="none" xmlns="http://www.w3.org/2000/svg">
<g clip-path="url(#clip0_3752_2423)">
<path d="M12.8927 5.65018C8.36714 6.46978 4.26916 9.53435 2.17859 13.6917C1.03829 15.9367 0.586914 17.9204 0.586914 20.6048C0.586914 24.6316 1.94103 28.0762 4.64926 30.9389C6.85861 33.2789 9.60248 34.8112 12.7264 35.4407C13.9618 35.702 17.3114 35.702 18.6418 35.4407C23.0367 34.6093 27.0634 31.5922 29.1184 27.6011C30.3537 25.2136 30.8051 23.2893 30.8051 20.5455C30.8051 17.077 29.8548 14.1787 27.8355 11.4824C25.5312 8.4178 22.229 6.37475 18.4161 5.65018C17.1808 5.41261 14.1993 5.41261 12.8927 5.65018ZM18.2261 8.06146C20.5542 8.54846 22.6448 9.64126 24.4027 11.3042C29.6885 16.3049 29.8192 24.4415 24.6878 29.561C19.5683 34.6924 11.4317 34.5617 6.43099 29.2759C4.74429 27.4942 3.67525 25.4274 3.17636 23.0399C2.84377 21.4363 2.92692 18.8112 3.35454 17.2789C4.60175 12.8484 8.07019 9.37994 12.4057 8.25151C13.843 7.8714 13.8549 7.8714 15.6129 7.84765C16.7056 7.84765 17.4659 7.90704 18.2261 8.06146Z" fill="white"/>
<path d="M14.6044 14.0839C13.2621 14.6659 12.6682 16.4476 13.3453 17.873C13.4997 18.1937 14.058 18.9421 14.5806 19.536C15.7447 20.8188 16.2792 21.7928 16.6355 23.2182C17.2294 25.6651 18.1322 26.6035 19.8783 26.6035C21.3987 26.6035 22.444 25.4988 22.444 23.8715C22.444 22.8381 22.2183 22.3986 20.9473 20.9495C19.6407 19.4647 19.3438 18.9421 18.8805 17.2316C18.6905 16.4952 18.4173 15.6874 18.2866 15.438C18.0015 14.8678 17.1819 14.167 16.6355 14.0126C16.0179 13.8463 15.0795 13.8701 14.6044 14.0839Z" fill="white"/>
<path d="M10.7787 21.3058C10.161 21.5315 9.7928 21.781 9.46021 22.2323C8.08234 24.0972 9.36519 26.6035 11.6933 26.6035C14.1877 26.6035 15.3281 23.4558 13.4275 21.8285C12.6792 21.1871 11.6696 20.9851 10.7787 21.3058Z" fill="white"/>
<path d="M38.7156 16.1145C38.4424 16.364 37.9317 17.4449 36.5776 20.6401C35.5917 22.9445 34.7958 24.9044 34.7958 24.9875C34.7958 25.2964 35.0928 25.4152 35.8768 25.4152C36.3162 25.4152 36.7557 25.3914 36.8508 25.3558C36.9339 25.3201 37.1952 24.8331 37.4209 24.2749L37.8248 23.2771L39.7015 23.3008L41.5902 23.3365L41.9703 24.2511C42.1722 24.7619 42.3979 25.2251 42.4692 25.2964C42.5523 25.3795 42.9799 25.4152 43.5382 25.3914L44.4766 25.3558L44.4647 24.8806C44.4409 24.2036 41.1744 16.6015 40.6993 16.1383C40.4142 15.8413 40.2717 15.7938 39.7134 15.7938C39.1789 15.7938 39.0126 15.8532 38.7156 16.1145ZM40.2004 19.8918C40.438 20.4738 40.6637 21.0321 40.6993 21.1034C40.7468 21.2222 40.5092 21.2578 39.7372 21.2578C39.1789 21.2578 38.7156 21.2103 38.7156 21.1628C38.7156 21.1152 38.8938 20.652 39.1076 20.1294C39.3333 19.6067 39.5471 19.0722 39.5946 18.9534C39.6303 18.8346 39.6897 18.7515 39.7134 18.7752C39.7372 18.799 39.9629 19.2979 40.2004 19.8918Z" fill="white"/>
<path d="M44.9399 15.9481C44.9043 16.0432 44.8924 16.5064 44.9162 16.9934L44.9518 17.8724L46.3416 17.908L47.7432 17.9437L47.7669 21.6497L47.8026 25.3557L48.7291 25.3913C49.323 25.4151 49.7268 25.3794 49.8338 25.2844C49.9644 25.1775 50 24.4886 50 21.5428V17.9318H51.2948C52.2569 17.9318 52.6251 17.8843 52.7202 17.7655C52.8033 17.6586 52.8508 17.2666 52.8271 16.7202L52.7914 15.8531L48.8954 15.8175C45.712 15.7937 44.9993 15.8175 44.9399 15.9481Z" fill="white"/>
<path d="M55.072 15.8659C55.0245 15.9134 54.9889 18.0515 54.9889 20.6171C54.9889 25.903 54.8701 25.4159 56.1173 25.4159C57.317 25.4159 57.2457 25.5347 57.2457 23.4442V21.6149H59.0275H60.8092V23.3729C60.8092 24.5845 60.8567 25.1784 60.9518 25.2734C61.1418 25.4635 62.8523 25.4635 63.0423 25.2734C63.2442 25.0715 63.2442 16.1391 63.0423 15.9371C62.9592 15.854 62.5197 15.7946 61.9258 15.7946C61.1537 15.7946 60.9399 15.8302 60.8805 15.9846C60.8448 16.0915 60.8092 16.9111 60.8092 17.8258V19.4768H59.0275H57.2576L57.222 17.6595L57.1864 15.854L56.1767 15.8183C55.6184 15.8065 55.1195 15.8183 55.072 15.8659Z" fill="white"/>
<path d="M66.76 15.9958C66.5462 16.1027 66.2611 16.3641 66.1423 16.5541C65.9285 16.8986 65.9166 17.1718 65.9404 20.6877L65.976 24.4531L66.3205 24.8095C66.5224 25.0114 66.8669 25.2371 67.0926 25.2965C67.734 25.4747 72.9604 25.4509 73.1386 25.2727C73.3405 25.0708 73.3286 23.586 73.1267 23.4078C73.0198 23.3247 72.1052 23.2653 70.5966 23.2534L68.2329 23.2178L68.2091 20.7234C68.1854 19.2861 68.221 18.1577 68.2923 18.0508C68.3754 17.9082 68.8387 17.8607 70.751 17.8132L73.1029 17.7538V16.8036V15.8533L70.1334 15.8295C67.5558 15.8058 67.1163 15.8177 66.76 15.9958Z" fill="white"/>
<path d="M76.6192 16.0084C76.3935 16.1153 76.0965 16.3647 75.9659 16.5429C75.7283 16.8636 75.7164 17.0537 75.6808 20.9854C75.657 23.9905 75.6808 25.1309 75.7877 25.2496C75.9659 25.4634 77.6763 25.4872 77.8901 25.2734C77.9852 25.1784 78.0327 24.6795 78.0327 23.7886V22.4464H78.7454H79.4462L80.4321 23.8955L81.418 25.3565L82.3088 25.3922C84.0668 25.4634 84.1143 25.2853 82.8077 23.3848L81.8693 22.0306L82.4157 21.6743C82.7127 21.4724 83.1165 21.0566 83.3185 20.7359C83.6511 20.1895 83.6748 20.0707 83.6748 19.0136C83.6748 17.9802 83.6392 17.8258 83.3422 17.3031C82.6414 16.1153 81.7268 15.7946 78.9948 15.7946C77.3556 15.7946 76.9517 15.8302 76.6192 16.0084ZM81.0141 18.2771C81.2754 18.5384 81.3586 18.7404 81.3586 19.0848C81.3586 20.047 80.8359 20.3321 79.2086 20.2845L78.0921 20.2489L78.0564 19.2511C78.0327 18.7047 78.0445 18.1821 78.0802 18.0871C78.1277 17.9683 78.4603 17.9327 79.3987 17.9327C80.634 17.9327 80.6696 17.9445 81.0141 18.2771Z" fill="white"/>
<path d="M69.5999 19.6306C68.9466 19.9632 68.8635 20.9134 69.4455 21.3767C69.6949 21.5667 69.9325 21.6143 70.7521 21.6143C72.1656 21.6143 72.5695 21.3767 72.5695 20.5452C72.5695 20.0463 72.4626 19.8444 72.0825 19.6544C71.6667 19.4287 70.0156 19.4168 69.5999 19.6306Z" fill="white"/>
</g>
<defs>
<clipPath id="clip0_3752_2423">
<rect width="83.5325" height="30.5455" fill="white" transform="translate(0.233887 5.09082)"/>
</clipPath>
</defs>
</svg>
