<svg width="150" height="119" viewBox="0 0 150 119" fill="none" xmlns="http://www.w3.org/2000/svg">
<g opacity="0.35">
<path d="M65.0723 0.629341L108.049 43.6913L53.0772 98.7694V98.7517L52.3178 99.5133C49.4974 102.342 46.1486 104.586 42.4625 106.118C38.7765 107.649 34.8255 108.439 30.8352 108.44C26.8449 108.442 22.8933 107.656 19.2062 106.127C15.519 104.598 12.1685 102.356 9.3459 99.53C6.52392 96.7029 4.28533 93.3463 2.75801 89.6522C1.23069 85.958 0.444563 81.9986 0.444563 77.9999C0.444563 74.0013 1.23069 70.0418 2.75801 66.3476C4.28533 62.6535 6.52392 59.2969 9.3459 56.4698L9.34593 56.4697L65.0723 0.629341ZM268.671 121.367L212.944 177.208L169.958 134.169L225.689 78.3308L225.374 78.0168L225.689 78.3308C228.51 75.5032 231.86 73.2601 235.547 71.7298C239.233 70.1996 243.184 69.412 247.175 69.412C251.165 69.412 255.116 70.1996 258.803 71.7298C262.49 73.2601 265.839 75.5032 268.661 78.3308C274.354 84.0381 277.554 91.7771 277.555 99.8471C277.557 107.917 274.361 115.657 268.671 121.367ZM166.185 18.7155L165.87 18.4015L166.185 18.7155C169.006 15.8879 172.356 13.6447 176.043 12.1145C179.729 10.5842 183.681 9.79671 187.671 9.79671C191.661 9.79671 195.613 10.5842 199.299 12.1145C202.986 13.6447 206.335 15.8879 209.157 18.7155L209.472 18.4015L209.157 18.7155C211.979 21.5426 214.218 24.8988 215.745 28.593C217.272 32.2871 218.058 36.2466 218.058 40.2452C218.058 44.2439 217.272 48.2034 215.745 51.8975C214.218 55.5917 211.979 58.9483 209.157 61.7754L209.472 62.0894L209.157 61.7754L93.8491 177.312L50.8758 134.254L166.185 18.7155Z" stroke="url(#paint0_linear_3678_16270)" stroke-width="0.889126"/>
<path d="M65.0723 0.629341L108.049 43.6913L53.0772 98.7694V98.7517L52.3178 99.5133C49.4974 102.342 46.1486 104.586 42.4625 106.118C38.7765 107.649 34.8255 108.439 30.8352 108.44C26.8449 108.442 22.8933 107.656 19.2062 106.127C15.519 104.598 12.1685 102.356 9.3459 99.53C6.52392 96.7029 4.28533 93.3463 2.75801 89.6522C1.23069 85.958 0.444563 81.9986 0.444563 77.9999C0.444563 74.0013 1.23069 70.0418 2.75801 66.3476C4.28533 62.6535 6.52392 59.2969 9.3459 56.4698L9.34593 56.4697L65.0723 0.629341ZM268.671 121.367L212.944 177.208L169.958 134.169L225.689 78.3308L225.374 78.0168L225.689 78.3308C228.51 75.5032 231.86 73.2601 235.547 71.7298C239.233 70.1996 243.184 69.412 247.175 69.412C251.165 69.412 255.116 70.1996 258.803 71.7298C262.49 73.2601 265.839 75.5032 268.661 78.3308C274.354 84.0381 277.554 91.7771 277.555 99.8471C277.557 107.917 274.361 115.657 268.671 121.367ZM166.185 18.7155L165.87 18.4015L166.185 18.7155C169.006 15.8879 172.356 13.6447 176.043 12.1145C179.729 10.5842 183.681 9.79671 187.671 9.79671C191.661 9.79671 195.613 10.5842 199.299 12.1145C202.986 13.6447 206.335 15.8879 209.157 18.7155L209.472 18.4015L209.157 18.7155C211.979 21.5426 214.218 24.8988 215.745 28.593C217.272 32.2871 218.058 36.2466 218.058 40.2452C218.058 44.2439 217.272 48.2034 215.745 51.8975C214.218 55.5917 211.979 58.9483 209.157 61.7754L209.472 62.0894L209.157 61.7754L93.8491 177.312L50.8758 134.254L166.185 18.7155Z" stroke="url(#paint1_linear_3678_16270)" stroke-width="0.889126"/>
</g>
<defs>
<linearGradient id="paint0_linear_3678_16270" x1="0" y1="0" x2="261.423" y2="199.543" gradientUnits="userSpaceOnUse">
<stop stop-color="#FA8BFF"/>
<stop offset="0.486276" stop-color="#2BD2FF"/>
<stop offset="1" stop-color="#2BFF88"/>
</linearGradient>
<linearGradient id="paint1_linear_3678_16270" x1="226.134" y1="26.6738" x2="6.06139e-06" y2="177.825" gradientUnits="userSpaceOnUse">
<stop/>
<stop offset="1" stop-opacity="0"/>
</linearGradient>
</defs>
</svg>
