<svg width="201" height="25" viewBox="0 0 201 25" fill="none" xmlns="http://www.w3.org/2000/svg">
<path d="M57.5753 12.3786C58.2196 12.6859 58.7849 13.1372 59.2277 13.6975C59.6082 14.1689 59.8618 14.73 59.9642 15.3273C60.0667 15.9246 60.0147 16.5383 59.8131 17.1097C59.6168 17.6975 59.2917 18.2339 58.8615 18.6797C58.3611 19.18 57.7581 19.5657 57.0942 19.8101C56.3068 20.112 55.4692 20.2613 54.6261 20.25C53.5539 20.237 52.4989 19.979 51.5415 19.4957C50.5348 19.0192 49.6456 18.326 48.9375 17.4657L51.1334 15.5189C51.6867 16.1942 52.3979 16.7226 53.2039 17.0573C53.865 17.3317 54.5824 17.4431 55.2955 17.3818C55.7903 17.3666 56.261 17.1646 56.6132 16.8163C56.7536 16.6748 56.8469 16.4934 56.8806 16.2968C56.9143 16.1003 56.8867 15.8981 56.8015 15.7179C56.5454 15.2244 56.1118 14.8467 55.5882 14.6609L52.6185 13.321C51.6034 12.9432 50.7154 12.2864 50.0565 11.4261C49.7803 11.0504 49.5895 10.6189 49.4973 10.1617C49.4052 9.70449 49.4139 9.23269 49.523 8.77922C49.6223 8.23963 49.8325 7.72656 50.1404 7.27256C50.4482 6.81857 50.8469 6.43351 51.3112 6.14184C52.2682 5.52687 53.3845 5.20648 54.5217 5.22041C55.5578 5.21211 56.5816 5.4451 57.5124 5.90089C58.4014 6.33109 59.1973 6.93212 59.8546 7.66977L57.6587 9.59564C57.2575 9.15442 56.8005 8.76739 56.2995 8.44424C55.8911 8.16409 55.4219 7.98561 54.9307 7.92369C54.4395 7.86178 53.9407 7.9182 53.4757 8.08826C52.8483 8.31188 52.5139 8.66082 52.4726 9.13515C52.4166 9.55348 52.6536 9.93032 53.1834 10.2656C53.4789 10.4527 53.7863 10.6204 54.1036 10.7676C54.5079 10.9632 54.9018 11.1482 55.2854 11.3226L56.5507 11.898C57.0103 12.1068 57.3519 12.2669 57.5753 12.3786Z" fill="white"/>
<path d="M64.6646 13.1111H65.815L66.1287 12.5881L68.5549 8.65241H71.8802L68.3237 14.3676L72.0047 20.0612H68.6803L66.0868 16.042L65.794 15.6025H64.6646V20.0612H61.8203V5.13794H64.6646V13.1111Z" fill="white"/>
<path d="M73.7334 10.2024C74.5559 9.3808 75.6033 8.82168 76.7432 8.59572C77.8831 8.36976 79.0644 8.48709 80.1377 8.93293C81.211 9.37877 82.1281 10.1331 82.7732 11.1005C83.4183 12.0679 83.7623 13.2051 83.7619 14.3682C83.7615 14.7046 83.7336 15.0404 83.6784 15.3722H75.0397C75.2442 15.9628 75.6286 16.4742 76.1389 16.8345C76.6492 17.1948 77.2596 17.3856 77.8841 17.3802C78.3572 17.3942 78.8264 17.2907 79.2498 17.0788C79.6732 16.867 80.0375 16.5535 80.3102 16.1663H83.491C83.1141 17.3477 82.3704 18.3779 81.3681 19.1071C80.491 19.7496 79.4533 20.1364 78.37 20.2247C77.2867 20.3129 76.2002 20.0991 75.2309 19.607C74.2616 19.1149 73.4474 18.3637 72.8786 17.4368C72.3098 16.5098 72.0087 15.4432 72.0085 14.3554C71.9963 13.5818 72.143 12.8139 72.4398 12.0995C72.7365 11.3851 73.1768 10.7393 73.7334 10.2024V10.2024ZM75.2495 12.8818H80.5409C80.3409 12.5294 80.073 12.2204 79.7527 11.9725C79.4324 11.7246 79.0661 11.5428 78.6751 11.4377C78.284 11.3326 77.8761 11.3063 77.4748 11.3602C77.0735 11.4141 76.6869 11.5472 76.3374 11.7518C75.8751 12.018 75.4976 12.4097 75.2486 12.8818H75.2495Z" fill="white"/>
<path d="M88.2985 15.8534C88.2481 16.2022 88.2991 16.5582 88.4453 16.8788C88.5702 17.1448 88.7903 17.3542 89.0622 17.4653C89.372 17.5832 89.7036 17.633 90.0343 17.6113C90.4541 17.5906 90.8691 17.5138 91.2686 17.3832V19.979C90.2537 20.2668 89.184 20.3026 88.1521 20.0835C87.3767 19.8692 86.6911 19.4103 86.1969 18.775C85.6965 18.1256 85.4343 17.3237 85.4542 16.5037V5.99536H88.2985V8.65369H91.2686V11.145H88.2985V15.8534Z" fill="white"/>
<path d="M94.7193 14.3678C94.7186 14.8992 94.8585 15.4213 95.1249 15.8809C95.3913 16.3406 95.7746 16.7214 96.2358 16.9846C96.6975 17.2483 97.2204 17.3854 97.7519 17.3821C98.1739 17.3905 98.5927 17.3068 98.9791 17.1369C99.3656 16.967 99.7104 16.7149 99.9898 16.3982L102.081 18.3451C101.533 18.935 100.872 19.4085 100.137 19.7374C99.2415 20.1348 98.2614 20.3021 97.2854 20.2241C96.3093 20.1461 95.3682 19.8252 94.5475 19.2907C93.7267 18.7562 93.0524 18.025 92.5857 17.1635C92.119 16.3019 91.8747 15.3373 91.875 14.3573C91.8767 12.7987 92.4967 11.3046 93.5988 10.2035C94.7009 9.10247 96.1948 8.48455 97.7519 8.48564C98.5733 8.48229 99.3861 8.65338 100.137 8.98764C100.876 9.3132 101.539 9.79122 102.081 10.3905L99.9898 12.3164C99.5766 11.8657 99.0371 11.5503 98.4419 11.4115C97.8467 11.2728 97.2235 11.3172 96.654 11.5389C96.0844 11.7606 95.5949 12.1493 95.2497 12.654C94.9045 13.1588 94.7197 13.7561 94.7193 14.3678V14.3678Z" fill="white"/>
<path d="M106.063 9.7203L108.133 8.5269C108.369 8.4992 108.607 8.48536 108.844 8.48539C109.583 8.48509 110.315 8.63055 110.998 8.91341C111.68 9.19626 112.301 9.61097 112.823 10.1339C113.346 10.6568 113.76 11.2776 114.043 11.9609C114.325 12.6442 114.471 13.3765 114.471 14.1161V20.0612H111.605V14.1161C111.611 13.7507 111.542 13.388 111.404 13.0498C111.266 12.7116 111.06 12.4051 110.8 12.1487C110.548 11.885 110.244 11.6764 109.907 11.5359C109.571 11.3954 109.209 11.326 108.844 11.3322C108.107 11.3332 107.4 11.6268 106.879 12.1487C106.357 12.6705 106.064 13.3781 106.063 14.1161V20.0612H103.219V5.13794H106.063L106.063 9.7203Z" fill="white"/>
<path d="M131.848 12.5148C132.359 12.8997 132.775 13.3976 133.062 13.9697C133.353 14.5436 133.504 15.1787 133.501 15.8225C133.509 16.3839 133.398 16.9407 133.176 17.4565C132.955 17.9722 132.627 18.4355 132.215 18.8159C131.808 19.2163 131.326 19.5317 130.796 19.7437C130.267 19.9557 129.7 20.0601 129.13 20.0508H122.062V5.39771H128.776C129.6 5.39609 130.407 5.63633 131.096 6.08873C131.786 6.54113 132.327 7.18583 132.655 7.94312C132.982 8.70041 133.08 9.53707 132.937 10.3496C132.794 11.1621 132.416 11.9149 131.85 12.5148H131.848ZM124.905 8.24406V11.3018H128.628C129.033 11.3018 129.422 11.1407 129.708 10.854C129.994 10.5673 130.155 10.1784 130.155 9.77289C130.155 9.36742 129.994 8.97857 129.708 8.69185C129.422 8.40514 129.033 8.24406 128.628 8.24406H124.905ZM129.13 17.2035C129.534 17.2015 129.921 17.0399 130.207 16.7538C130.493 16.4676 130.654 16.0802 130.657 15.6756C130.659 15.4064 130.587 15.1419 130.447 14.9116C130.311 14.6842 130.12 14.4938 129.893 14.3571C129.663 14.2176 129.399 14.145 129.13 14.1477H124.905V17.2053L129.13 17.2035Z" fill="white"/>
<path d="M138.071 9.71076L140.142 8.5178C140.378 8.48991 140.615 8.47593 140.853 8.47585C141.622 8.47371 142.384 8.63042 143.091 8.93629L142.547 11.9091C142.129 11.5802 141.63 11.3705 141.103 11.3021C140.614 11.2277 140.113 11.2818 139.65 11.4591C139.185 11.6548 138.794 11.9915 138.531 12.4216C138.214 12.9254 138.054 13.512 138.071 14.107V20.0521H135.227V8.64287H138.071V9.71076Z" fill="white"/>
<path d="M143.266 14.3565C143.263 13.5832 143.413 12.8171 143.708 12.1021C144.002 11.3872 144.435 10.7376 144.981 10.1908C145.527 9.64402 146.176 9.21086 146.891 8.91619C147.605 8.62152 148.37 8.4712 149.143 8.47391C149.493 8.47428 149.843 8.5022 150.189 8.55742L152.176 9.70887V8.64143H155.02V20.0507H152.176V19.0037L150.189 20.1342C149.844 20.2037 149.494 20.2388 149.143 20.2391C147.586 20.2352 146.093 19.6142 144.992 18.5119C143.89 17.4097 143.27 15.9158 143.266 14.357V14.3565ZM146.999 12.2116C146.712 12.4894 146.486 12.8231 146.333 13.192C146.18 13.5609 146.104 13.9572 146.11 14.3565C146.104 14.7545 146.179 15.1495 146.332 15.5169C146.485 15.8843 146.712 16.216 146.999 16.4914C147.571 17.0544 148.34 17.3699 149.142 17.3699C149.944 17.3699 150.714 17.0544 151.285 16.4914C151.572 16.2161 151.799 15.8843 151.952 15.5169C152.106 15.1496 152.181 14.7545 152.174 14.3565C152.174 13.7563 151.996 13.1696 151.663 12.6706C151.33 12.1716 150.856 11.7827 150.302 11.5531C149.748 11.3235 149.138 11.2636 148.55 11.3808C147.962 11.498 147.422 11.7871 146.998 12.2116H146.999Z" fill="white"/>
<path d="M159.751 9.71148L161.822 8.51852C162.057 8.49065 162.295 8.47667 162.532 8.47657C163.271 8.47615 164.003 8.62152 164.686 8.90436C165.369 9.18721 165.989 9.60197 166.512 10.125C167.034 10.6479 167.448 11.2689 167.731 11.9523C168.014 12.6357 168.159 13.3681 168.158 14.1077V20.0528H165.293V14.1063C165.299 13.7408 165.231 13.378 165.092 13.0398C164.954 12.7015 164.748 12.3949 164.488 12.1384C164.236 11.8749 163.932 11.6663 163.595 11.5259C163.259 11.3854 162.897 11.3162 162.532 11.3225C161.795 11.3232 161.088 11.6168 160.566 12.1387C160.045 12.6606 159.752 13.3682 159.751 14.1063V20.0514H156.906V5.12817H159.751V9.71148Z" fill="white"/>
<path d="M172.62 9.20981V9.7118L174.691 8.51885C175.381 8.43407 176.081 8.53525 176.719 8.81188C177.379 9.09465 177.971 9.51571 178.455 10.0468C178.866 9.58871 179.359 9.2123 179.909 8.93733C180.415 8.68119 180.965 8.52489 181.53 8.4769C182.079 8.43569 182.631 8.47087 183.171 8.58141C183.716 8.6911 184.234 8.90442 184.698 9.20981C185.161 9.51363 185.582 9.87575 185.953 10.2873C186.332 10.7166 186.626 11.2138 186.819 11.7527C187.029 12.326 187.135 12.9323 187.132 13.543V20.0532H184.267V13.543C184.277 13.1189 184.165 12.7008 183.943 12.3392C183.751 12.0195 183.472 11.7615 183.138 11.5957C182.807 11.4409 182.446 11.3629 182.082 11.3675C181.714 11.3636 181.349 11.4416 181.015 11.5957C180.679 11.7572 180.396 12.0115 180.199 12.3286C179.975 12.693 179.862 13.1152 179.875 13.543V20.0532H177.031V13.543C177.03 12.9955 176.827 12.4675 176.46 12.0614C176.093 11.6553 175.588 11.4001 175.044 11.3451H174.835C174.544 11.34 174.255 11.394 173.985 11.5039C173.715 11.6137 173.471 11.777 173.266 11.9841C173.056 12.1852 172.89 12.4276 172.779 12.6961C172.667 12.9646 172.612 13.2532 172.618 13.5439V20.054H169.773V8.6448H172.618L172.62 9.20981Z" fill="white"/>
<path d="M188.25 14.3565C188.247 13.5833 188.397 12.8171 188.692 12.1022C188.986 11.3873 189.419 10.7377 189.965 10.1909C190.511 9.64407 191.16 9.21086 191.875 8.91619C192.589 8.62152 193.354 8.4712 194.127 8.47391C194.477 8.47428 194.827 8.5022 195.172 8.55742L197.16 9.70887V8.64143H200.004V20.0507H197.16V19.0037L195.172 20.1342C194.828 20.2037 194.478 20.2388 194.127 20.2391C192.569 20.2353 191.077 19.6143 189.976 18.512C188.874 17.4098 188.254 15.9158 188.25 14.357V14.3565ZM191.983 12.2116C191.696 12.4894 191.47 12.8231 191.317 13.192C191.164 13.5609 191.088 13.9572 191.094 14.3565C191.088 14.7545 191.163 15.1495 191.316 15.5169C191.469 15.8843 191.696 16.216 191.983 16.4914C192.554 17.0544 193.324 17.3699 194.126 17.3699C194.928 17.3699 195.698 17.0544 196.269 16.4914C196.556 16.216 196.783 15.8842 196.936 15.5168C197.089 15.1495 197.164 14.7544 197.158 14.3565C197.158 13.7563 196.98 13.1696 196.646 12.6706C196.313 12.1716 195.839 11.7827 195.285 11.5531C194.731 11.3235 194.122 11.2636 193.533 11.3808C192.945 11.498 192.405 11.7871 191.981 12.2116H191.983Z" fill="white"/>
<path d="M36.4105 16.923L28.8247 24.5161L22.9209 18.6116L30.5072 11.0189C30.8947 10.631 31.3547 10.3233 31.8611 10.1133C32.3674 9.9034 32.9101 9.79535 33.4582 9.79535C34.0062 9.79535 34.5489 9.9034 35.0553 10.1133C35.5616 10.3233 36.0216 10.631 36.4091 11.0189C37.1911 11.8019 37.6305 12.8636 37.6307 13.9707C37.631 15.0778 37.1921 16.1397 36.4105 16.923V16.923ZM28.3546 2.95811C27.9671 2.57019 27.507 2.26244 27.0007 2.0525C26.4943 1.84256 25.9516 1.73451 25.4036 1.73451C24.8555 1.73451 24.3128 1.84256 23.8065 2.0525C23.3002 2.26244 22.8401 2.57019 22.4526 2.95811L6.80165 18.623L12.7036 24.5302L28.3546 8.86534C28.7421 8.47749 29.0496 8.017 29.2593 7.51022C29.4691 7.00343 29.577 6.46025 29.577 5.9117C29.577 5.36315 29.4691 4.81997 29.2593 4.31318C29.0496 3.80639 28.7421 3.34596 28.3546 2.95811V2.95811ZM7.12448 13.9703L14.7108 6.37765L8.80834 0.469971L1.22249 8.06302C0.834919 8.45087 0.527475 8.91136 0.317719 9.41815C0.107962 9.92493 0 10.4681 0 11.0167C0 11.5652 0.107962 12.1084 0.317719 12.6152C0.527475 13.122 0.834919 13.5825 1.22249 13.9703V13.9703C1.61015 14.3581 2.07033 14.6656 2.57674 14.8754C3.08316 15.0851 3.62589 15.1929 4.17395 15.1927C4.72201 15.1925 5.26467 15.0842 5.77092 14.8741C6.27717 14.6639 6.73712 14.3561 7.12448 13.968V13.9703Z" fill="white"/>
</svg>
