<svg width="84" height="40" viewBox="0 0 84 40" fill="none" xmlns="http://www.w3.org/2000/svg">
<path d="M32.1765 23.5314H28.2431C28.0005 23.5318 27.7681 23.6286 27.5966 23.8006C27.4251 23.9725 27.3286 24.2056 27.3281 24.4488V36.5566C27.3286 36.7998 27.4251 37.0329 27.5966 37.2048C27.7681 37.3767 28.0005 37.4735 28.2431 37.474C28.4804 37.4578 28.7039 37.356 28.8721 37.1873C29.0403 37.0187 29.1418 36.7946 29.158 36.5566V31.7869H32.0854C34.5553 31.7869 36.1104 30.2276 36.1104 27.6593C36.2001 25.0906 34.6465 23.5314 32.1765 23.5314ZM34.2805 27.6589C34.2805 29.2182 33.4571 30.0438 31.9932 30.0438H29.2491V25.3658H31.9935C33.4574 25.2741 34.2805 26.0997 34.2805 27.6589Z" fill="white"/>
<path d="M42.3305 27.5664C41.4642 27.5441 40.6192 27.8375 39.9521 28.3921V23.6223C39.9474 23.3821 39.849 23.1534 39.6779 22.9852C39.5069 22.817 39.2769 22.7228 39.0373 22.7228C38.7977 22.7228 38.5677 22.817 38.3967 22.9852C38.2256 23.1534 38.1272 23.3821 38.1226 23.6223V36.5558C38.1272 36.796 38.2256 37.0247 38.3967 37.1929C38.5677 37.3611 38.7977 37.4554 39.0373 37.4554C39.2769 37.4554 39.5069 37.3611 39.6779 37.1929C39.849 37.0247 39.9474 36.796 39.9521 36.5558V31.694C39.9521 30.043 40.684 29.2174 42.3305 29.2174C44.0685 29.2174 44.4345 30.1348 44.4345 31.6022V36.5555C44.4392 36.7956 44.5376 37.0244 44.7086 37.1926C44.8797 37.3608 45.1097 37.455 45.3492 37.455C45.5888 37.455 45.8188 37.3608 45.9899 37.1926C46.1609 37.0244 46.2593 36.7956 46.264 36.5555V31.3274C46.1729 28.8508 44.892 27.5664 42.3305 27.5664Z" fill="white"/>
<path d="M52.119 27.5675C50.0151 27.5675 49.0086 28.5752 48.6427 29.2185C48.5596 29.3559 48.5272 29.5182 48.5512 29.6772C48.5507 29.7857 48.5717 29.8933 48.6129 29.9937C48.6541 30.094 48.7148 30.1853 48.7913 30.262C48.8679 30.3388 48.9588 30.3996 49.059 30.4409C49.1591 30.4822 49.2663 30.5033 49.3746 30.5028C49.5162 30.5006 49.6556 30.4664 49.7823 30.4029C49.909 30.3394 50.0198 30.2481 50.1065 30.1359C50.3603 29.8275 50.6832 29.5837 51.0489 29.4243C51.4145 29.2648 51.8125 29.1943 52.2105 29.2185C53.4928 29.2185 54.223 29.9524 54.223 31.1446V31.4199H51.7534C49.4661 31.4199 48.0026 32.6125 48.0026 34.4469C48.0026 36.3731 49.3746 37.5657 51.6619 37.5657C52.5969 37.5722 53.5041 37.2473 54.2234 36.6483C54.243 36.8766 54.3484 37.0889 54.5183 37.2422C54.6882 37.3955 54.9098 37.4783 55.1383 37.474C55.3808 37.4735 55.6132 37.3767 55.7847 37.2048C55.9562 37.0328 56.0527 36.7997 56.0532 36.5566V31.145C55.9614 28.9432 54.4975 27.5675 52.119 27.5675ZM54.2234 33.0712V33.6216C54.2234 35.1808 53.034 35.823 51.8449 35.823C50.5642 35.823 49.9239 35.3644 49.9239 34.4473C49.9239 33.2546 51.1133 33.0715 51.8449 33.0715L54.2234 33.0712Z" fill="white"/>
<path d="M62.4565 27.5664C61.592 27.5557 60.7509 27.8477 60.078 28.3921V23.6223C60.0734 23.3821 59.975 23.1534 59.8039 22.9852C59.6329 22.817 59.4029 22.7228 59.1633 22.7228C58.9237 22.7228 58.6937 22.817 58.5227 22.9852C58.3516 23.1534 58.2532 23.3821 58.2485 23.6223V33.3453C58.2485 35.9136 59.8036 37.4729 62.365 37.4729C65.1094 37.4729 66.6645 35.7302 66.6645 32.4279C66.6648 28.3921 64.3778 27.5664 62.4565 27.5664ZM62.365 29.2174C64.0116 29.2174 64.835 30.3178 64.835 32.5186C64.835 34.7194 64.0116 35.8198 62.365 35.8198C60.9015 35.8198 60.0777 34.9024 60.0777 33.3432V30.6852C60.261 30.5017 60.9015 29.2174 62.365 29.2174Z" fill="white"/>
<path d="M71.0551 35.7304C70.8721 35.7304 70.5061 35.7304 70.5061 34.9048V23.6226C70.5057 23.3794 70.4091 23.1464 70.2376 22.9744C70.0662 22.8025 69.8337 22.7057 69.5912 22.7052C69.3539 22.7214 69.1304 22.8232 68.9622 22.9919C68.794 23.1605 68.6924 23.3846 68.6763 23.6226V34.9048C68.6763 36.5557 69.4997 37.4731 70.9636 37.4731C71.0718 37.4736 71.1791 37.4526 71.2792 37.4112C71.3793 37.3699 71.4703 37.3091 71.5469 37.2323C71.6234 37.1556 71.684 37.0644 71.7253 36.964C71.7665 36.8636 71.7875 36.756 71.787 36.6475C71.8145 36.5372 71.8162 36.422 71.7919 36.311C71.7677 36.2 71.7183 36.096 71.6475 36.0073C71.5766 35.9185 71.4863 35.8474 71.3836 35.7993C71.2808 35.7513 71.1684 35.7278 71.0551 35.7304Z" fill="white"/>
<path d="M81.21 31.6951C81.21 31.0529 81.027 27.5675 77.1851 27.5675C74.4403 27.5675 72.8853 29.4019 72.8853 32.5207C72.8853 36.6483 75.3552 37.5657 77.3677 37.5657C78.5737 37.5854 79.745 37.1611 80.66 36.3731C80.7491 36.2921 80.8198 36.1928 80.8672 36.082C80.9145 35.9712 80.9375 35.8514 80.9345 35.7309C80.935 35.6224 80.914 35.5148 80.8728 35.4144C80.8315 35.314 80.7709 35.2228 80.6944 35.1461C80.6178 35.0693 80.5268 35.0085 80.4267 34.9672C80.3266 34.9258 80.2193 34.9048 80.1111 34.9053C79.9139 34.9097 79.7225 34.9736 79.5621 35.0887C79.0132 35.4557 78.4642 35.9144 77.3667 35.9144C75.8116 35.9144 74.8052 34.9066 74.7137 33.2543H80.2026C81.21 33.1622 81.21 32.1545 81.21 31.6951ZM74.7151 31.5116C74.8981 30.0441 75.813 29.2181 77.1851 29.2181C78.6486 29.2181 79.3805 29.952 79.3805 31.5116H74.7151Z" fill="white"/>
<path d="M30.9872 13.0741C31.1636 12.2913 31.2556 11.4917 31.2617 10.6892C31.2617 7.57042 29.7981 4.81859 27.3282 3.44285C26.5048 2.98415 25.4987 2.98415 24.5838 2.89241H24.0348C23.1199 2.80067 22.5713 2.98415 21.6564 3.25937C21.4894 3.3611 21.3018 3.42381 21.1074 3.44285L20.9244 3.53459C20.8329 3.53459 20.7414 3.62633 20.6499 3.62633C20.467 3.71807 20.3755 3.8098 20.1925 3.8098H20.101C19.8095 3.92974 19.5331 4.0837 19.2776 4.2685C18.464 4.81032 17.7257 5.45804 17.0821 6.19468C16.8253 6.02895 16.6069 5.80997 16.4416 5.5525C16.1855 5.2879 15.9103 5.0426 15.6182 4.81859L15.0693 4.26815C14.339 3.53459 13.6061 2.80067 11.4106 2.43372H9.30661C8.94064 2.52546 8.48318 2.61719 8.02433 2.70893C7.06573 2.98558 6.18732 3.48882 5.46289 4.17641C5.0566 4.57809 4.71726 5.04259 4.45786 5.55216C4.18338 6.10259 3.90891 6.5599 3.63443 7.11137C3.54294 7.29485 3.54294 7.47833 3.45144 7.66181C3.11867 8.547 2.90335 9.4722 2.811 10.4136C2.53652 14.1743 5.00647 17.66 7.38562 20.687C8.40987 21.9452 9.50934 23.1399 10.678 24.2645L11.2269 24.815L12.2319 25.8227C13.3096 27.0385 14.5047 28.1443 15.7998 29.1239C15.9729 29.2906 16.2005 29.3884 16.4403 29.3992C16.5984 29.4133 16.7572 29.3815 16.8977 29.3074C17.1031 29.2016 17.2782 29.0449 17.4063 28.8523C17.5344 28.6596 17.6113 28.4374 17.6297 28.2065C17.6353 27.992 17.5882 27.7793 17.4924 27.5873C17.3967 27.3953 17.2553 27.2299 17.0807 27.1057C15.9051 26.2184 14.8313 25.2032 13.8788 24.0786L13.2384 23.4364C12.8659 23.0173 12.4697 22.62 12.0517 22.2466C11.3198 21.5127 10.6797 20.7791 9.94775 20.0452C7.38631 17.1099 5.92278 14.3581 5.55681 11.698C5.39983 9.9347 5.88745 8.17431 6.92885 6.74477C7.24451 6.32815 7.64361 5.98236 8.1005 5.72963C8.55739 5.4769 9.06196 5.32281 9.58178 5.27728C11.3198 5.18555 12.7837 6.37816 14.0642 7.57077C14.7274 8.20733 15.4645 8.76163 16.2597 9.22173C16.4118 9.30572 16.5797 9.35722 16.7526 9.37301C16.9256 9.3888 17.1 9.36853 17.2647 9.31347C17.5626 9.21592 17.8199 9.02241 17.9967 8.76303C18.356 8.11079 18.8197 7.52217 19.3694 7.02068C19.8015 6.70532 20.2606 6.42902 20.7414 6.19503C21.2178 5.98121 21.7069 5.79726 22.206 5.64424C22.7426 5.47207 23.2937 5.34924 23.8525 5.27728H25.3161C25.6656 5.30368 26.0067 5.39711 26.3211 5.5525C26.5454 5.65467 26.7599 5.77751 26.9615 5.91946C28.3336 7.2052 28.5166 9.49694 28.4251 10.7809C28.3725 11.7423 28.2191 12.6954 27.9676 13.6245V13.808C27.6016 15.0937 26.7782 17.1092 25.7721 18.3025C25.6386 18.5296 25.4497 18.719 25.2232 18.853C25.0003 19.0895 24.756 19.3047 24.4933 19.4958C23.5543 20.2382 22.5428 20.8835 21.4744 21.422H21.3829C20.5581 21.8184 19.6396 21.9772 18.73 21.8807C17.2665 21.789 15.9856 20.6881 14.888 19.771C14.7716 19.6554 14.6323 19.5655 14.4792 19.507C14.326 19.4485 14.1624 19.4227 13.9988 19.4314C13.8351 19.44 13.6751 19.4829 13.5289 19.5571C13.3827 19.6314 13.2537 19.7355 13.15 19.8628C13.0407 19.9705 12.954 20.099 12.8947 20.2407C12.8355 20.3825 12.805 20.5346 12.805 20.6883C12.805 20.8419 12.8355 20.9941 12.8947 21.1358C12.954 21.2775 13.0407 21.406 13.15 21.5137C14.4147 23.0112 16.1625 24.0173 18.0899 24.3573C19.9194 24.6325 21.9319 24.0821 24.1277 22.7981C26.1943 21.4689 27.8934 19.6388 29.0679 17.4769C30.0606 16.1908 30.7201 14.6781 30.9872 13.0741Z" fill="white"/>
<path d="M18.5455 15.734V13.3491C18.5162 12.9556 18.3396 12.5878 18.0512 12.3194C17.7628 12.051 17.3838 11.9019 16.9903 11.9019C16.5968 11.9019 16.2179 12.051 15.9294 12.3194C15.641 12.5878 15.4644 12.9556 15.4351 13.3491V15.734C15.4511 16.134 15.6229 16.5118 15.9137 16.7862C16.2044 17.0606 16.5909 17.2097 16.9901 17.2015C17.1898 17.2134 17.3897 17.1842 17.5777 17.1159C17.7657 17.0475 17.9378 16.9414 18.0834 16.804C18.229 16.6666 18.3451 16.5008 18.4246 16.3168C18.5041 16.1328 18.5452 15.9345 18.5455 15.734Z" fill="white"/>
<path d="M23.7598 15.734V13.3491C23.7305 12.9556 23.5539 12.5878 23.2655 12.3194C22.9771 12.051 22.5981 11.9019 22.2046 11.9019C21.8111 11.9019 21.4321 12.051 21.1437 12.3194C20.8553 12.5878 20.6787 12.9556 20.6494 13.3491V15.734C20.6787 16.1275 20.8553 16.4953 21.1437 16.7637C21.4321 17.0321 21.8111 17.1813 22.2046 17.1813C22.5981 17.1813 22.9771 17.0321 23.2655 16.7637C23.5539 16.4953 23.7305 16.1275 23.7598 15.734Z" fill="white"/>
</svg>
