<svg width="307" height="266" viewBox="0 0 307 266" fill="none" xmlns="http://www.w3.org/2000/svg">
<g opacity="0.32">
<path d="M335.629 116.294L336.16 116.824L253.227 199.917L317.119 263.886L400.044 180.79L335.629 116.294ZM335.629 116.294L336.16 116.824C340.354 112.621 345.332 109.287 350.812 107.013M335.629 116.294L350.812 107.013M350.812 107.013C356.291 104.739 362.164 103.568 368.095 103.568M350.812 107.013L368.095 103.568M368.095 103.568C374.026 103.568 379.899 104.739 385.378 107.013M368.095 103.568L385.378 107.013M385.378 107.013C390.857 109.287 395.836 112.621 400.03 116.824M385.378 107.013L400.03 116.824M400.03 116.824C408.492 125.307 413.247 136.81 413.25 148.804M400.03 116.824L413.25 148.804M413.25 148.804C413.253 160.799 408.503 172.303 400.045 180.79L413.25 148.804ZM247.546 28.0445L247.015 27.5147L247.546 28.0445C251.74 23.8418 256.719 20.5077 262.198 18.2333C267.678 15.9589 273.55 14.7884 279.481 14.7884C285.412 14.7884 291.285 15.9589 296.764 18.2333C302.244 20.5077 307.222 23.8417 311.416 28.0445L311.947 27.5147L311.416 28.0445C315.61 32.2465 318.938 37.2349 321.208 42.7256C323.478 48.2163 324.646 54.1013 324.646 60.0446C324.646 65.988 323.478 71.873 321.208 77.3637C318.938 82.8544 315.61 87.8434 311.416 92.0454L139.761 264.042L75.889 200.043L247.546 28.0445ZM96.9063 1.17281L160.783 65.1765L79.131 146.987V146.96L77.8499 148.245C73.6579 152.449 68.6804 155.784 63.2018 158.061C57.7233 160.338 51.8509 161.511 45.92 161.513C39.9891 161.515 34.116 160.347 28.6357 158.075C23.1554 155.803 18.1754 152.471 13.9801 148.27C9.78584 144.068 6.4586 139.079 4.18853 133.588C1.91844 128.098 0.75 122.213 0.75 116.269C0.75 110.326 1.91844 104.441 4.18853 98.9501C6.45862 93.4594 9.78589 88.4705 13.9802 84.2685L13.9803 84.2684L96.9063 1.17281Z" stroke="url(#paint0_linear_2785_12434)" stroke-width="1.5"/>
<path d="M335.629 116.294L336.16 116.824L253.227 199.917L317.119 263.886L400.044 180.79L335.629 116.294ZM335.629 116.294L336.16 116.824C340.354 112.621 345.332 109.287 350.812 107.013M335.629 116.294L350.812 107.013M350.812 107.013C356.291 104.739 362.164 103.568 368.095 103.568M350.812 107.013L368.095 103.568M368.095 103.568C374.026 103.568 379.899 104.739 385.378 107.013M368.095 103.568L385.378 107.013M385.378 107.013C390.857 109.287 395.836 112.621 400.03 116.824M385.378 107.013L400.03 116.824M400.03 116.824C408.492 125.307 413.247 136.81 413.25 148.804M400.03 116.824L413.25 148.804M413.25 148.804C413.253 160.799 408.503 172.303 400.045 180.79L413.25 148.804ZM247.546 28.0445L247.015 27.5147L247.546 28.0445C251.74 23.8418 256.719 20.5077 262.198 18.2333C267.678 15.9589 273.55 14.7884 279.481 14.7884C285.412 14.7884 291.285 15.9589 296.764 18.2333C302.244 20.5077 307.222 23.8417 311.416 28.0445L311.947 27.5147L311.416 28.0445C315.61 32.2465 318.938 37.2349 321.208 42.7256C323.478 48.2163 324.646 54.1013 324.646 60.0446C324.646 65.988 323.478 71.873 321.208 77.3637C318.938 82.8544 315.61 87.8434 311.416 92.0454L139.761 264.042L75.889 200.043L247.546 28.0445ZM96.9063 1.17281L160.783 65.1765L79.131 146.987V146.96L77.8499 148.245C73.6579 152.449 68.6804 155.784 63.2018 158.061C57.7233 160.338 51.8509 161.511 45.92 161.513C39.9891 161.515 34.116 160.347 28.6357 158.075C23.1554 155.803 18.1754 152.471 13.9801 148.27C9.78584 144.068 6.4586 139.079 4.18853 133.588C1.91844 128.098 0.75 122.213 0.75 116.269C0.75 110.326 1.91844 104.441 4.18853 98.9501C6.45862 93.4594 9.78589 88.4705 13.9802 84.2685L13.9803 84.2684L96.9063 1.17281Z" stroke="url(#paint1_linear_2785_12434)" stroke-width="1.5"/>
</g>
<defs>
<linearGradient id="paint0_linear_2785_12434" x1="0" y1="0.111084" x2="544.644" y2="264.93" gradientUnits="userSpaceOnUse">
<stop stop-color="#B3B3B3"/>
<stop offset="1" stop-color="#D6D4D3" stop-opacity="0"/>
</linearGradient>
<linearGradient id="paint1_linear_2785_12434" x1="295.866" y1="-27.0267" x2="176.134" y2="265.102" gradientUnits="userSpaceOnUse">
<stop/>
<stop offset="1" stop-opacity="0"/>
</linearGradient>
</defs>
</svg>
