<svg width="192" height="59" viewBox="0 0 192 59" fill="none" xmlns="http://www.w3.org/2000/svg">
<g clip-path="url(#clip0_2785_13173)">
<path d="M56.9994 26.7913L51.856 29.4955L52.8385 23.768L48.6719 19.7121L54.4219 18.8788L56.9935 13.668L59.5652 18.8788L65.3152 19.7121L61.1485 23.768L62.131 29.4955L56.9994 26.7913Z" fill="#FF3D2E"/>
</g>
<g clip-path="url(#clip1_2785_13173)">
<path d="M76.9994 26.7913L71.856 29.4955L72.8385 23.768L68.6719 19.7121L74.4219 18.8788L76.9935 13.668L79.5652 18.8788L85.3152 19.7121L81.1485 23.768L82.131 29.4955L76.9994 26.7913Z" fill="#FF3D2E"/>
</g>
<g clip-path="url(#clip2_2785_13173)">
<path d="M96.9994 26.7913L91.856 29.4955L92.8385 23.768L88.6719 19.7121L94.4219 18.8788L96.9935 13.668L99.5652 18.8788L105.315 19.7121L101.149 23.768L102.131 29.4955L96.9994 26.7913Z" fill="#FF3D2E"/>
</g>
<g clip-path="url(#clip3_2785_13173)">
<path d="M116.999 26.7913L111.856 29.4955L112.839 23.768L108.672 19.7121L114.422 18.8788L116.994 13.668L119.565 18.8788L125.315 19.7121L121.149 23.768L122.131 29.4955L116.999 26.7913Z" fill="#FF3D2E"/>
</g>
<g clip-path="url(#clip4_2785_13173)">
<path d="M137.344 26.137C137.129 26.0234 136.871 26.0233 136.655 26.1367L132.838 28.1434L133.567 23.893C133.609 23.6529 133.529 23.4079 133.354 23.238L130.263 20.2288L134.528 19.6107C134.769 19.5758 134.977 19.4245 135.085 19.2061L136.994 15.3391L138.902 19.2061C139.01 19.4245 139.218 19.5758 139.459 19.6107L143.724 20.2288L140.633 23.238C140.458 23.4079 140.378 23.6529 140.42 23.893L141.148 28.1417L137.344 26.137Z" stroke="#FF3D2E" stroke-width="1.47917" stroke-linecap="round" stroke-linejoin="round"/>
</g>
<path d="M181.862 43.2209C179.65 45.1896 176.73 46.2808 173.524 46.2808C166.459 46.2808 161.27 41.1441 161.27 34.0916C161.27 27.039 166.294 22.1185 173.524 22.1185C176.674 22.1185 179.65 23.1569 181.918 25.1256L183.46 26.4381L190.31 19.6596L188.595 18.1284C184.565 14.5254 179.213 12.5039 173.522 12.5039C160.823 12.5039 151.602 21.5754 151.602 34.0388C151.602 46.4493 161.044 55.8452 173.522 55.8452C179.32 55.8452 184.727 53.8237 188.707 50.1629L190.363 48.6317L183.407 41.8582L181.862 43.2209Z" fill="white"/>
<path d="M173.186 26.9297C177.245 26.9297 180.534 30.1807 180.534 34.201C180.534 38.2163 177.245 41.4723 173.186 41.4723C169.13 41.4723 165.844 38.2163 165.844 34.201C165.846 30.1832 169.133 26.9297 173.186 26.9297Z" fill="#FF3D2E"/>
<path d="M0.736 24.128V26.528H12.48V32H15.168V26.528H18.784V24.064H15.168V9.6H11.968L0.736 24.128ZM3.616 24.064L12.48 12.608V24.064H3.616ZM21.0153 29.12C20.6633 29.44 20.5033 29.888 20.5033 30.4C20.5033 30.944 20.6633 31.392 21.0153 31.712C21.3353 32.032 21.7833 32.192 22.3273 32.192C22.8393 32.192 23.2873 32.032 23.6393 31.712C23.9593 31.392 24.1513 30.944 24.1513 30.4C24.1513 29.888 23.9593 29.44 23.6393 29.12C23.2873 28.8 22.8393 28.608 22.3273 28.608C21.7833 28.608 21.3353 28.8 21.0153 29.12ZM41.2575 22.304C40.3295 21.344 39.1455 20.704 37.6735 20.384C38.9215 20.16 39.9455 19.584 40.7775 18.656C41.5775 17.728 41.9935 16.608 41.9935 15.328C41.9935 14.176 41.6735 13.12 41.0655 12.224C40.4575 11.328 39.5935 10.656 38.4735 10.144C37.3215 9.632 36.0095 9.376 34.5375 9.376C33.0335 9.376 31.7215 9.632 30.6015 10.144C29.4495 10.656 28.5855 11.328 27.9775 12.224C27.3695 13.12 27.0815 14.176 27.0815 15.328C27.0815 16.64 27.4655 17.76 28.2975 18.656C29.0975 19.552 30.1215 20.128 31.4015 20.384C29.9295 20.704 28.7135 21.376 27.8175 22.336C26.8895 23.296 26.4415 24.512 26.4415 25.984C26.4415 27.2 26.7615 28.288 27.4015 29.216C28.0415 30.176 29.0015 30.912 30.2175 31.424C31.4335 31.936 32.8735 32.192 34.5375 32.192C36.1695 32.192 37.6095 31.936 38.8255 31.424C40.0415 30.912 41.0015 30.176 41.6415 29.216C42.2815 28.288 42.6335 27.2 42.6335 25.984C42.6335 24.512 42.1535 23.264 41.2575 22.304ZM31.0815 18.048C30.1855 17.344 29.7375 16.448 29.7375 15.328C29.7375 14.24 30.1855 13.376 31.0815 12.672C31.9775 11.968 33.1295 11.616 34.5375 11.616C35.9455 11.616 37.0975 11.968 37.9935 12.672C38.8895 13.376 39.3375 14.24 39.3375 15.328C39.3375 16.448 38.8895 17.344 37.9935 18.048C37.0975 18.752 35.9455 19.072 34.5375 19.072C33.1295 19.072 31.9775 18.752 31.0815 18.048ZM38.4095 28.832C37.3855 29.6 36.1055 29.984 34.5375 29.984C32.9695 29.984 31.6895 29.6 30.6655 28.832C29.6415 28.064 29.1295 27.104 29.1295 25.888C29.1295 25.12 29.3535 24.384 29.8335 23.744C30.2815 23.104 30.9215 22.624 31.7535 22.24C32.5855 21.888 33.5135 21.696 34.5375 21.696C35.5615 21.696 36.4575 21.888 37.2895 22.24C38.1215 22.624 38.7615 23.104 39.2415 23.744C39.6895 24.384 39.9455 25.12 39.9455 25.888C39.9455 27.104 39.4335 28.064 38.4095 28.832Z" fill="white"/>
<path d="M6.048 42.4H1.224V55H2.79V50.158H6.012L8.622 55H10.386L7.56 49.852C8.37 49.636 9.018 49.204 9.504 48.556C9.99 47.908 10.242 47.152 10.242 46.27C10.242 45.496 10.062 44.812 9.72 44.236C9.36 43.66 8.874 43.21 8.244 42.886C7.596 42.562 6.876 42.4 6.048 42.4ZM2.79 48.718V43.84H5.94C6.75 43.84 7.398 44.074 7.902 44.506C8.388 44.956 8.64 45.55 8.64 46.27C8.64 47.026 8.388 47.62 7.902 48.052C7.398 48.502 6.75 48.718 5.922 48.718H2.79ZM13.1933 47.944C12.8333 48.664 12.6533 49.474 12.6533 50.41C12.6533 51.346 12.8333 52.156 13.2113 52.876C13.5893 53.596 14.1293 54.136 14.8133 54.532C15.4973 54.928 16.2893 55.108 17.2073 55.108C18.2513 55.108 19.1333 54.82 19.8533 54.226C20.5733 53.632 21.0233 52.858 21.2033 51.922H19.7093C19.5473 52.516 19.2413 52.984 18.7733 53.308C18.3053 53.632 17.7473 53.794 17.0993 53.794C16.2353 53.794 15.5513 53.524 15.0293 52.984C14.4893 52.444 14.2193 51.724 14.2013 50.824V50.698H21.3293C21.3473 50.41 21.3653 50.212 21.3653 50.068C21.3293 49.186 21.1313 48.412 20.7713 47.746C20.3933 47.098 19.8893 46.594 19.2413 46.234C18.5933 45.892 17.8373 45.712 17.0093 45.712C16.1453 45.712 15.3893 45.91 14.7413 46.306C14.0753 46.702 13.5533 47.242 13.1933 47.944ZM19.8353 49.474H14.2913C14.3633 48.754 14.6513 48.16 15.1913 47.692C15.7133 47.242 16.3253 47.008 17.0273 47.008C17.8013 47.008 18.4493 47.224 18.9533 47.656C19.4573 48.088 19.7633 48.7 19.8353 49.474ZM33.0756 53.65H32.6256C32.2116 53.65 32.0136 53.434 32.0136 52.984V49.024C32.0136 47.962 31.6896 47.152 31.0416 46.576C30.3936 46 29.4936 45.712 28.3236 45.712C27.2076 45.712 26.3076 45.964 25.6236 46.468C24.9396 46.972 24.5436 47.674 24.4356 48.574H25.9116C26.0016 48.106 26.2536 47.746 26.6676 47.458C27.0816 47.17 27.6036 47.026 28.2516 47.026C28.9716 47.026 29.5296 47.206 29.9256 47.53C30.3216 47.872 30.5376 48.34 30.5376 48.934V49.564H27.8376C26.6316 49.564 25.7136 49.816 25.0836 50.302C24.4536 50.806 24.1476 51.508 24.1476 52.426C24.1476 53.254 24.4536 53.92 25.0656 54.388C25.6776 54.874 26.5056 55.108 27.5316 55.108C28.8636 55.108 29.8896 54.604 30.6096 53.578C30.6096 54.046 30.7536 54.406 31.0056 54.64C31.2576 54.892 31.6716 55 32.2656 55H33.0756V53.65ZM30.5376 50.806V51.256C30.5376 52.048 30.2676 52.678 29.7636 53.146C29.2416 53.614 28.5396 53.848 27.6396 53.848C27.0276 53.848 26.5416 53.722 26.1816 53.434C25.8216 53.164 25.6416 52.804 25.6416 52.336C25.6416 51.328 26.3256 50.806 27.6936 50.806H30.5376ZM44.3623 42.4H42.8863V47.224C42.5803 46.756 42.1663 46.396 41.6443 46.126C41.1043 45.856 40.4743 45.712 39.7363 45.712C38.8903 45.712 38.1343 45.91 37.4683 46.306C36.7843 46.702 36.2623 47.26 35.8843 47.962C35.5063 48.682 35.3263 49.492 35.3263 50.41C35.3263 51.382 35.5063 52.228 35.8843 52.93C36.2623 53.65 36.7843 54.19 37.4503 54.55C38.1163 54.928 38.8723 55.108 39.7363 55.108C41.0683 55.108 42.1123 54.586 42.8863 53.524L43.0843 55H44.3623V42.4ZM41.4463 53.38C40.9783 53.668 40.4563 53.794 39.8803 53.794C38.9623 53.794 38.2243 53.488 37.6663 52.858C37.1083 52.228 36.8383 51.418 36.8383 50.41C36.8383 49.42 37.1083 48.61 37.6663 47.98C38.2243 47.35 38.9623 47.026 39.8803 47.026C40.4563 47.026 40.9783 47.17 41.4463 47.458C41.9143 47.746 42.2743 48.16 42.5263 48.682C42.7783 49.204 42.9043 49.798 42.9043 50.446C42.9043 51.094 42.7783 51.688 42.5263 52.192C42.2743 52.696 41.9143 53.092 41.4463 53.38ZM55.8179 54.514C56.5019 54.91 57.2939 55.108 58.1939 55.108C59.0759 55.108 59.8679 54.91 60.5519 54.514C61.2359 54.118 61.7759 53.578 62.1719 52.858C62.5499 52.156 62.7479 51.346 62.7479 50.41C62.7479 49.492 62.5499 48.682 62.1719 47.962C61.7759 47.26 61.2359 46.702 60.5519 46.306C59.8679 45.91 59.0759 45.712 58.1939 45.712C57.2939 45.712 56.5019 45.91 55.8179 46.306C55.1339 46.702 54.5939 47.26 54.2159 47.962C53.8199 48.682 53.6399 49.492 53.6399 50.41C53.6399 51.346 53.8199 52.156 54.2159 52.858C54.5939 53.578 55.1339 54.118 55.8179 54.514ZM59.7779 53.362C59.3099 53.65 58.7879 53.794 58.1939 53.794C57.5819 53.794 57.0599 53.65 56.5919 53.362C56.1239 53.074 55.7819 52.678 55.5299 52.156C55.2779 51.652 55.1519 51.058 55.1519 50.41C55.1519 49.762 55.2779 49.186 55.5299 48.664C55.7819 48.16 56.1239 47.746 56.5919 47.458C57.0599 47.17 57.5819 47.026 58.1939 47.026C58.7879 47.026 59.3099 47.17 59.7779 47.458C60.2459 47.746 60.6059 48.16 60.8579 48.664C61.1099 49.186 61.2359 49.762 61.2359 50.41C61.2359 51.058 61.1099 51.652 60.8579 52.156C60.6059 52.678 60.2459 53.074 59.7779 53.362ZM73.0624 46.72C72.3784 46.054 71.4964 45.712 70.3804 45.712C69.0484 45.712 68.0404 46.162 67.3564 47.062L67.1584 45.82H65.8804V55H67.3564V50.41C67.3564 49.384 67.5904 48.574 68.0944 47.962C68.5804 47.368 69.2644 47.062 70.1284 47.062C70.9204 47.062 71.5324 47.314 71.9644 47.818C72.3964 48.322 72.6124 49.042 72.6124 49.978V55H74.0884V49.888C74.0884 48.448 73.7464 47.404 73.0624 46.72ZM84.0472 45.352C83.5432 46.324 83.3092 47.44 83.3092 48.7C83.3092 49.978 83.5432 51.094 84.0472 52.066C84.5332 53.038 85.2352 53.776 86.1532 54.316C87.0532 54.856 88.1152 55.108 89.3212 55.108C90.7252 55.108 91.8772 54.73 92.8132 53.974C93.7492 53.218 94.3252 52.192 94.5772 50.878H93.0112C92.7592 51.778 92.3272 52.462 91.6792 52.948C91.0312 53.434 90.2212 53.668 89.2492 53.668C88.3852 53.668 87.6112 53.47 86.9632 53.038C86.2972 52.624 85.7932 52.03 85.4332 51.274C85.0732 50.518 84.9112 49.672 84.9112 48.7C84.9112 47.728 85.0732 46.882 85.4332 46.126C85.7932 45.37 86.2972 44.794 86.9632 44.362C87.6112 43.948 88.3852 43.732 89.2492 43.732C90.2032 43.732 91.0132 43.984 91.6792 44.47C92.3452 44.974 92.7952 45.658 93.0292 46.522H94.5952C94.3432 45.226 93.7492 44.182 92.8132 43.426C91.8772 42.67 90.7072 42.292 89.3212 42.292C88.1152 42.292 87.0532 42.562 86.1532 43.102C85.2352 43.642 84.5332 44.38 84.0472 45.352ZM97.7805 42.4V55H99.2565V42.4H97.7805ZM110.621 45.82H109.145V50.41C109.145 51.454 108.893 52.264 108.425 52.858C107.957 53.47 107.291 53.758 106.463 53.758C105.689 53.758 105.095 53.524 104.681 53.02C104.267 52.516 104.069 51.796 104.069 50.842V45.82H102.593V50.932C102.593 52.372 102.917 53.434 103.583 54.1C104.231 54.784 105.113 55.108 106.211 55.108C107.471 55.108 108.443 54.676 109.145 53.776L109.343 55H110.621V45.82ZM114.72 47.17V52.606C114.72 53.434 114.9 54.046 115.26 54.424C115.62 54.82 116.25 55 117.114 55H118.806V53.65H117.204C116.826 53.65 116.556 53.578 116.412 53.416C116.268 53.254 116.196 52.984 116.196 52.588V47.17H118.518V45.82H116.196V43.246H114.72V45.82H113.064V47.17H114.72ZM127.907 54.244C128.609 53.668 129.059 52.858 129.257 51.832H127.781C127.637 52.444 127.349 52.93 126.899 53.272C126.431 53.632 125.873 53.794 125.207 53.794C124.325 53.794 123.605 53.488 123.065 52.858C122.525 52.228 122.255 51.4 122.255 50.392C122.255 49.402 122.525 48.592 123.065 47.962C123.605 47.35 124.325 47.026 125.207 47.026C125.855 47.026 126.395 47.206 126.863 47.548C127.313 47.908 127.619 48.376 127.763 48.952H129.257C129.077 47.944 128.627 47.152 127.925 46.576C127.223 46 126.341 45.712 125.261 45.712C124.361 45.712 123.587 45.91 122.903 46.306C122.219 46.702 121.679 47.242 121.301 47.944C120.923 48.664 120.743 49.474 120.743 50.392C120.743 51.328 120.923 52.138 121.301 52.858C121.661 53.578 122.183 54.118 122.867 54.514C123.533 54.91 124.307 55.108 125.207 55.108C126.287 55.108 127.187 54.82 127.907 54.244ZM139.604 46.72C138.92 46.054 138.02 45.712 136.904 45.712C136.184 45.712 135.572 45.874 135.068 46.162C134.564 46.468 134.168 46.864 133.88 47.332V42.4H132.404V55H133.88V50.41C133.88 49.384 134.114 48.574 134.618 47.962C135.122 47.368 135.788 47.062 136.652 47.062C137.444 47.062 138.074 47.314 138.506 47.818C138.938 48.322 139.154 49.042 139.154 49.978V55H140.63V49.888C140.63 48.448 140.288 47.404 139.604 46.72Z" fill="#BCBCBC"/>
<defs>
<clipPath id="clip0_2785_13173">
<rect width="20" height="20" fill="white" transform="translate(47 12)"/>
</clipPath>
<clipPath id="clip1_2785_13173">
<rect width="20" height="20" fill="white" transform="translate(67 12)"/>
</clipPath>
<clipPath id="clip2_2785_13173">
<rect width="20" height="20" fill="white" transform="translate(87 12)"/>
</clipPath>
<clipPath id="clip3_2785_13173">
<rect width="20" height="20" fill="white" transform="translate(107 12)"/>
</clipPath>
<clipPath id="clip4_2785_13173">
<rect width="20" height="20" fill="white" transform="translate(127 12)"/>
</clipPath>
</defs>
</svg>
